# Blender v2.75 (sub 0) OBJ File: 'BigTreeWithLeaves.blend'
# www.blender.org
mtllib BigTreeWithLeaves.mtl
o Tree_Cylinder.002
v -0.663488 3.951099 -1.547315
v -0.199586 5.585886 -0.522563
v 1.023064 4.195684 -0.355127
v 0.420331 5.672563 -0.160644
v 0.298563 4.266536 1.039601
v 0.001334 5.673529 0.631459
v -1.482706 4.245376 1.032377
v -0.872002 5.687433 0.652137
v -2.109165 3.946559 -0.497312
v -0.974224 5.586597 0.033296
v -0.438377 4.856565 -1.393204
v 1.025903 5.084419 -0.367013
v 0.310327 5.126489 1.028622
v -1.477440 5.130126 1.012643
v -1.885715 4.856565 -0.341652
v -0.565196 3.747071 -0.473804
v 0.075977 3.798499 -0.008869
v -0.172778 3.807665 0.588382
v -0.869406 3.807665 0.588382
v -1.128997 3.746438 -0.061554
v -0.970666 3.508097 -0.210000
v -1.279245 4.081748 -0.028138
v -0.712911 3.508043 0.451697
v -1.138015 4.078565 0.344200
v -1.675678 3.475261 0.844976
v -1.637699 4.061765 0.558133
v -2.420115 3.470488 0.403646
v -2.134838 4.056818 0.278880
v -2.109185 3.489230 -0.310944
v -1.871476 4.071356 -0.071602
v -0.970666 3.862046 -0.210000
v -0.712911 3.861992 0.451697
v -1.675678 3.829210 0.844976
v -2.420115 3.824437 0.403646
v -2.109185 3.843179 -0.310944
v -1.379830 3.272324 0.032552
v -1.275353 3.268836 0.311512
v -1.634420 3.257525 0.465714
v -2.021037 3.254352 0.245958
v -1.806699 3.265896 -0.002404
v 0.830927 4.056794 -0.720178
v 1.147671 5.181345 -0.016303
v 1.987408 4.224271 0.097179
v 1.572722 5.240776 0.231849
v 1.497297 4.254670 1.047279
v 1.285434 5.241438 0.774961
v 0.270649 4.254670 1.047279
v 0.686624 5.250971 0.789139
v -0.161453 4.056794 0.000828
v 0.616535 5.181832 0.364826
v 0.983942 4.681281 -0.613266
v 1.987938 4.837511 0.090350
v 1.497297 4.866356 1.047279
v 0.271500 4.868849 1.036323
v -0.008437 4.681281 0.107740
v 0.941828 3.797954 -0.024721
v 1.381454 3.833216 0.294065
v 1.210893 3.839501 0.703575
v 0.733244 3.839501 0.703575
v 0.555254 3.797520 0.257941
v -0.048573 -0.163129 -0.084667
v 0.041686 0.930795 -0.066947
v 0.162635 0.930795 0.042778
v 0.104882 -0.163129 -0.028814
v -0.202028 -0.163129 -0.028814
v -0.296118 2.947826 -0.018821
v 0.186534 -0.163129 0.112611
v 0.158177 -0.163129 0.273434
v 0.033079 -0.163129 0.378403
v -0.130224 -0.163129 0.378403
v -0.255322 -0.163129 0.273434
v -0.283679 -0.163129 0.112611
v 0.184757 0.930795 0.204576
v -0.121495 0.930795 -0.073257
v -0.189330 2.947826 0.033557
v -0.411590 2.947826 0.009697
v 0.097701 0.930795 0.342740
v -0.057797 0.930795 0.392622
v -0.208980 0.930795 0.330881
v -0.285106 0.930795 0.186407
v -0.250555 0.930795 0.026800
v -0.055919 3.676592 -0.001433
v -0.154154 3.676592 0.039669
v -0.141193 2.947826 0.142322
v -0.440448 2.716754 0.085259
v -0.413632 2.731024 0.046296
v -0.400165 2.820698 0.013865
v -0.438411 2.918224 0.051057
v -0.473780 2.947826 0.094897
v 0.045753 3.676592 0.030225
v -0.202985 3.676592 0.134299
v -0.174231 2.947826 0.256583
v -0.272986 2.947826 0.322876
v -0.391248 2.947826 0.310180
v -0.451442 2.709950 0.219953
v -0.446801 2.704834 0.200628
v -0.455024 2.714928 0.096650
v -0.479007 2.954907 0.106045
v 0.248573 3.976416 0.026343
v 0.332083 3.976416 0.052346
v 0.167885 3.976416 0.060104
v 0.127776 3.976416 0.137830
v -0.473682 2.947826 0.224438
v -0.473631 2.947282 0.224428
v -0.407679 2.871020 0.284173
v -0.393184 2.769281 0.287438
v -0.448546 2.709530 0.222916
v -0.450181 2.692952 0.130132
v 0.103289 3.676592 0.119830
v -0.478535 2.955497 0.107162
v -0.179566 3.676592 0.238179
v 0.379342 3.976416 0.125945
v 0.147012 3.976416 0.223154
v 0.089767 3.676592 0.225454
v 0.011515 3.676592 0.297676
v -0.094853 3.676592 0.302701
v -0.473713 2.947826 0.223975
v -0.471558 2.968750 0.131467
v -0.471865 2.953204 0.219317
v 0.368236 3.976416 0.212703
v 0.216593 3.976416 0.276151
v 0.303961 3.976416 0.272024
v -0.674488 2.884069 0.042131
v -0.660032 2.954566 0.068324
v -0.688945 2.813573 0.068324
v -0.941440 3.025500 0.062644
v -0.652339 2.992076 0.134646
v -0.696637 2.776063 0.134646
v -0.987836 2.977164 0.061710
v -0.906156 3.061942 0.106425
v -0.655011 2.979049 0.210064
v -0.693965 2.789090 0.210064
v -1.023635 2.939552 0.104061
v -1.339699 3.377924 0.074484
v -1.385452 3.338807 0.073601
v -0.898494 3.069439 0.172568
v -0.666796 2.921580 0.259290
v -0.682180 2.846559 0.259290
v -1.032086 2.930263 0.169879
v -1.421014 3.308568 0.111617
v -1.305161 3.407615 0.113853
v -0.922039 3.044484 0.230124
v -1.009234 2.953642 0.228369
v -1.429744 3.301354 0.170745
v -1.298001 3.413987 0.173288
v -0.965773 2.998752 0.252161
v -1.407557 3.320542 0.223317
v -1.321568 3.394058 0.224977
v -1.364835 3.357154 0.244736
vt 0.031367 0.921992
vt 0.038945 0.921992
vt 0.038945 0.929570
vt 0.031367 0.929570
vt 0.035156 0.929570
vt 0.038760 0.926952
vt 0.037383 0.922716
vt 0.032929 0.922716
vt 0.031553 0.926952
vt 0.948478 0.944572
vt 0.942147 0.944572
vt 0.942147 0.938241
vt 0.948478 0.938241
vt 0.945312 0.938241
vt 0.943278 0.938981
vt 0.942195 0.940857
vt 0.942571 0.942989
vt 0.944230 0.944381
vt 0.946395 0.944381
vt 0.948054 0.942989
vt 0.948430 0.940857
vt 0.947347 0.938981
vt 0.942837 0.939433
vt 0.942226 0.942111
vt 0.943939 0.944258
vt 0.946686 0.944258
vt 0.948399 0.942111
vt 0.947788 0.939433
vt 0.942302 0.940428
vt 0.943452 0.943967
vt 0.947173 0.943967
vt 0.948323 0.940428
vt 0.942571 0.939823
vt 0.945312 0.944572
vt 0.948054 0.939823
vn 0.351300 0.649300 -0.674600
vn 0.699600 0.622600 0.350600
vn 0.005200 0.564800 0.825200
vn -0.049800 0.994800 -0.088300
vn -0.383800 0.755600 -0.530800
vn -0.647000 0.762100 0.022800
vn 0.004000 -0.706200 0.708000
vn -0.942800 0.096000 0.319200
vn -0.565700 0.272600 -0.778200
vn -0.006600 0.017700 0.999800
vn 0.888600 -0.001400 0.458700
vn 0.576500 -0.008500 -0.817000
vn 0.030400 -0.998000 0.055500
vn -0.354300 -0.888800 0.290800
vn 0.482900 -0.833200 0.269400
vn -0.123600 -0.977100 -0.173300
vn 0.280400 -0.932600 -0.227300
vn 0.488200 0.852700 -0.185700
vn 0.233000 0.747300 0.622300
vn -0.339400 0.744700 0.574700
vn -0.022200 0.999500 0.021800
vn 0.048700 0.688300 -0.723700
vn -0.593700 0.748000 -0.296700
vn -0.265700 -0.844700 0.464700
vn -0.917000 0.000000 -0.399000
vn 0.088300 0.000000 -0.996100
vn -0.510000 0.000000 0.860200
vn 0.378200 0.000000 0.925700
vn 0.931800 0.000000 -0.363000
vn 0.020400 -0.999500 -0.024000
vn -0.465600 -0.839400 -0.280400
vn 0.234400 -0.834400 0.498800
vn 0.067300 -0.772900 -0.630900
vn 0.419100 -0.892900 -0.164800
vn -0.000000 -0.637700 0.770300
vn -0.942300 0.092100 0.321700
vn -0.565600 0.271900 -0.778500
vn -0.004500 0.008900 1.000000
vn 0.889300 0.002200 0.457300
vn 0.576200 -0.005400 -0.817300
vn -0.452800 -0.832600 0.319000
vn 0.607300 -0.729500 0.314800
vn -0.224000 -0.924600 -0.308200
vn 0.386100 -0.834300 -0.393500
vn 0.516600 0.000000 -0.856200
vn -0.154600 -0.000000 -0.988000
vn 0.576600 0.106400 -0.810100
vn 0.000000 -1.000000 0.000000
vn 0.946100 -0.000000 -0.323800
vn -0.079400 0.020000 -0.996600
vn 0.932900 -0.000000 0.360100
vn 0.483200 -0.000000 0.875500
vn -0.192600 0.000000 0.981300
vn -0.778300 0.000000 0.627900
vn -0.999800 0.000000 -0.019300
vn -0.753500 0.000000 -0.657500
vn 0.956000 0.156300 -0.248300
vn 0.371500 -0.112300 -0.921600
vn -0.306900 0.135400 -0.942100
vn -0.804300 -0.091500 -0.587100
vn -0.804900 0.316200 -0.502100
vn 0.893100 0.148000 0.424900
vn 0.414100 0.085000 0.906300
vn -0.266300 -0.004600 0.963900
vn -0.826200 -0.077700 0.558000
vn -0.973700 -0.087100 -0.210800
vn -0.612200 -0.039200 -0.789700
vn 0.845700 -0.286200 -0.450500
vn 0.290700 -0.208800 -0.933700
vn -0.348300 0.430900 -0.832500
vn -0.632900 0.702000 -0.326600
vn -0.991000 -0.116200 0.067100
vn -0.916500 0.342500 0.206600
vn 0.668700 -0.607000 -0.429400
vn -0.664900 0.731700 0.149900
vn 0.928000 -0.316500 0.196500
vn 0.604100 -0.197500 0.772000
vn -0.034100 0.036000 0.998800
vn -0.645800 0.258600 0.718400
vn -0.925900 0.372500 0.062700
vn 0.731500 -0.675400 0.093600
vn -0.496400 0.573400 0.651800
vn 0.581900 -0.513700 0.630500
vn 0.047200 0.039400 0.998100
vn -0.015400 0.351000 -0.936200
vn -0.168600 -0.312700 -0.934800
vn 0.142000 0.494900 -0.857300
vn 0.102300 0.860700 -0.498700
vn -0.285500 -0.819600 -0.496700
vn -0.107100 -0.153900 -0.982300
vn 0.284500 0.897200 -0.337800
vn 0.129000 0.976400 0.173200
vn -0.311900 -0.934300 0.172400
vn -0.333000 -0.708000 -0.622700
vn 0.422100 0.502800 -0.754300
vn -0.005700 0.026800 -0.999600
vn 0.287300 0.904600 0.315000
vn -0.235600 -0.603900 0.761400
vn -0.417100 -0.908900 0.007000
vn -0.438300 -0.456300 -0.774400
vn 0.644700 0.747800 -0.158700
vn 0.147200 0.507200 0.849200
vn -0.091900 0.018900 0.995600
vn -0.329300 -0.701300 0.632300
vn -0.670400 -0.718000 -0.187000
vn 0.562500 0.650800 0.510000
vn -0.102400 -0.144700 0.984200
vn -0.595400 -0.639400 0.486500
vn 0.211200 0.254900 0.943600
vn -0.247500 -0.256000 0.934500
vn -0.993300 -0.093900 0.067100
vn 0.052200 0.643500 0.763700
usemtl Material.005
s off
f 11/1/1 2/2/1 4/3/1 12/4/1
f 12/1/2 4/2/2 6/3/2 13/4/2
f 13/1/3 6/2/3 8/3/3 14/4/3
f 4/5/4 2/6/4 10/7/4 8/8/4 6/9/4
f 15/1/5 10/2/5 2/3/5 11/4/5
f 14/1/6 8/2/6 10/3/6 15/4/6
f 5/1/7 7/2/7 19/3/7 18/4/7
f 7/1/8 14/2/8 15/3/8 9/4/8
f 9/1/9 15/2/9 11/3/9 1/4/9
f 5/1/10 13/2/10 14/3/10 7/4/10
f 3/1/11 12/2/11 13/3/11 5/4/11
f 1/1/12 11/2/12 12/3/12 3/4/12
f 16/5/13 17/6/13 18/7/13 19/8/13 20/9/13
f 7/1/14 9/2/14 20/3/14 19/4/14
f 3/1/15 5/2/15 18/3/15 17/4/15
f 9/1/16 1/2/16 16/3/16 20/4/16
f 1/1/17 3/2/17 17/3/17 16/4/17
f 31/1/18 22/2/18 24/3/18 32/4/18
f 32/1/19 24/2/19 26/3/19 33/4/19
f 33/1/20 26/2/20 28/3/20 34/4/20
f 24/5/21 22/6/21 30/7/21 28/8/21 26/9/21
f 35/1/22 30/2/22 22/3/22 31/4/22
f 34/1/23 28/2/23 30/3/23 35/4/23
f 25/1/24 27/2/24 39/3/24 38/4/24
f 27/1/25 34/2/25 35/3/25 29/4/25
f 29/1/26 35/2/26 31/3/26 21/4/26
f 25/1/27 33/2/27 34/3/27 27/4/27
f 23/1/28 32/2/28 33/3/28 25/4/28
f 21/1/29 31/2/29 32/3/29 23/4/29
f 36/5/30 37/6/30 38/7/30 39/8/30 40/9/30
f 27/1/31 29/2/31 40/3/31 39/4/31
f 23/1/32 25/2/32 38/3/32 37/4/32
f 29/1/33 21/2/33 36/3/33 40/4/33
f 21/1/34 23/2/34 37/3/34 36/4/34
f 51/1/1 42/2/1 44/3/1 52/4/1
f 52/1/2 44/2/2 46/3/2 53/4/2
f 53/1/3 46/2/3 48/3/3 54/4/3
f 44/5/4 42/6/4 50/7/4 48/8/4 46/9/4
f 55/1/5 50/2/5 42/3/5 51/4/5
f 54/1/6 48/2/6 50/3/6 55/4/6
f 45/1/35 47/2/35 59/3/35 58/4/35
f 47/1/36 54/2/36 55/3/36 49/4/36
f 49/1/37 55/2/37 51/3/37 41/4/37
f 45/1/38 53/2/38 54/3/38 47/4/38
f 43/1/39 52/2/39 53/3/39 45/4/39
f 41/1/40 51/2/40 52/3/40 43/4/40
f 56/5/13 57/6/13 58/7/13 59/8/13 60/9/13
f 47/1/41 49/2/41 60/3/41 59/4/41
f 43/1/42 45/2/42 58/3/42 57/4/42
f 49/1/43 41/2/43 56/3/43 60/4/43
f 41/1/44 43/2/44 57/3/44 56/4/44
f 62/10/45 63/11/45 64/12/45 61/13/45
f 61/10/46 65/11/46 74/12/46 62/13/46
f 62/10/47 66/11/47 75/12/47 63/13/47
f 61/14/48 64/15/48 67/16/48 68/17/48 69/18/48 70/19/48 71/20/48 72/21/48 65/22/48
f 63/10/49 73/11/49 67/12/49 64/13/49
f 66/10/50 62/11/50 74/12/50 76/13/50
f 68/10/51 67/11/51 73/12/51 77/13/51
f 69/10/52 68/11/52 77/12/52 78/13/52
f 70/10/53 69/11/53 78/12/53 79/13/53
f 71/10/54 70/11/54 79/12/54 80/13/54
f 72/10/55 71/11/55 80/12/55 81/13/55
f 65/10/56 72/11/56 81/12/56 74/13/56
f 63/10/57 75/11/57 84/12/57 73/13/57
f 66/10/58 82/11/58 90/12/58 75/13/58
f 76/10/59 83/11/59 82/12/59 66/13/59
f 74/14/60 85/23/60 86/24/60 87/25/60 88/26/60 89/27/60 76/28/60
f 83/14/61 76/29/61 89/30/61 98/31/61 91/32/61
f 73/10/62 84/11/62 92/12/62 77/13/62
f 77/10/63 92/11/63 93/12/63 78/13/63
f 78/10/64 93/11/64 94/12/64 79/13/64
f 79/14/65 94/15/65 103/16/65 104/17/65 105/18/65 106/19/65 107/20/65 95/21/65 80/22/65
f 81/10/66 80/11/66 95/12/66 96/13/66
f 85/10/67 74/11/67 81/12/67 97/13/67
f 75/10/68 90/11/68 109/12/68 84/13/68
f 90/10/69 82/11/69 99/12/69 100/13/69
f 82/10/70 83/11/70 101/12/70 99/13/70
f 83/10/71 91/11/71 102/12/71 101/13/71
f 81/10/72 96/11/72 108/12/72 97/13/72
f 110/10/73 111/11/73 91/12/73 98/13/73
f 109/10/74 90/11/74 100/12/74 112/13/74
f 91/10/75 111/11/75 113/12/75 102/13/75
f 84/10/76 109/11/76 114/12/76 92/13/76
f 92/10/77 114/11/77 115/12/77 93/13/77
f 93/10/78 115/11/78 116/12/78 94/13/78
f 94/10/79 116/11/79 111/12/79 103/13/79
f 117/14/80 103/33/80 111/17/80 110/34/80 118/20/80 119/35/80
f 114/10/81 109/11/81 112/12/81 120/13/81
f 111/10/82 116/11/82 121/12/82 113/13/82
f 115/10/83 114/11/83 120/12/83 122/13/83
f 116/10/84 115/11/84 122/12/84 121/13/84
f 87/10/85 123/11/85 124/12/85 88/13/85
f 86/10/86 125/11/86 123/12/86 87/13/86
f 123/10/87 126/11/87 130/12/87 124/13/87
f 88/14/88 124/23/88 127/24/88 118/25/88 110/26/88 98/27/88 89/28/88
f 108/14/89 128/33/89 125/17/89 86/34/89 85/20/89 97/35/89
f 125/10/90 129/11/90 126/12/90 123/13/90
f 124/10/91 130/11/91 136/12/91 127/13/91
f 118/10/92 127/11/92 131/12/92 119/13/92
f 107/14/93 132/33/93 128/17/93 108/34/93 96/20/93 95/35/93
f 128/10/94 133/11/94 129/12/94 125/13/94
f 126/10/95 134/11/95 141/12/95 130/13/95
f 129/10/96 135/11/96 134/12/96 126/13/96
f 127/10/97 136/11/97 142/12/97 131/13/97
f 106/10/98 138/11/98 132/12/98 107/13/98
f 133/10/99 128/11/99 132/12/99 139/13/99
f 133/10/100 140/11/100 135/12/100 129/13/100
f 130/10/101 141/11/101 145/12/101 136/13/101
f 131/10/102 142/11/102 146/12/102 137/13/102
f 105/10/103 137/11/103 138/12/103 106/13/103
f 138/10/104 143/11/104 139/12/104 132/13/104
f 133/10/105 139/11/105 144/12/105 140/13/105
f 136/10/106 145/11/106 148/12/106 142/13/106
f 137/10/107 146/11/107 143/12/107 138/13/107
f 143/10/108 147/11/108 144/12/108 139/13/108
f 142/10/109 148/11/109 149/12/109 146/13/109
f 146/10/110 149/11/110 147/12/110 143/13/110
f 104/10/111 103/11/111 117/12/111
f 119/14/112 131/23/112 137/24/112 105/25/112 104/27/112 117/28/112
