# Blender v2.75 (sub 0) OBJ File: 'SmallBush.blend'
# www.blender.org
mtllib SmallBush.mtl
o Icosphere.007_Icosphere.009
v -0.505146 0.345530 0.649071
v -0.520224 0.380954 0.699632
v -0.593320 0.380707 0.600705
v -0.586202 0.375952 0.600778
v -0.448568 0.377738 0.675741
v -0.569134 0.486264 0.659039
v -0.591050 0.380536 0.597524
v -0.428937 0.432043 0.679313
v -0.451906 0.483182 0.696157
v -0.591710 0.387812 0.596207
v -0.569674 0.484465 0.595516
v -0.433444 0.481790 0.670300
v -0.516057 0.523051 0.619729
v -0.466598 0.513131 0.648058
v 0.410107 0.806267 0.803171
v 0.437114 0.825838 0.821400
v 0.376562 0.828556 0.841588
v 0.436606 0.824143 0.761524
v 0.396776 0.915653 0.850984
v 0.347048 0.841240 0.853512
v 0.375285 0.831182 0.842486
v 0.436788 0.824950 0.761019
v 0.438765 0.833938 0.724725
v 0.456457 0.911152 0.767395
v 0.298797 0.918228 0.819960
v 0.329882 0.851298 0.845758
v 0.426792 0.843280 0.710797
v 0.395364 0.910946 0.684713
v 0.370972 0.968252 0.766505
v 0.290501 0.882020 0.799950
v 0.371712 0.875555 0.685916
v 0.297925 0.915320 0.717200
v 0.294483 0.900133 0.726813
v 0.305134 0.899270 0.711914
v 0.146124 1.140651 -0.344547
v 0.206459 1.139065 -0.325443
v 0.188193 1.126405 -0.311915
v 0.117373 1.154948 -0.356918
v 0.165580 1.227082 -0.359370
v 0.207089 1.141167 -0.251199
v 0.091993 1.178349 -0.344376
v 0.068142 1.231455 -0.326885
v 0.226673 1.227288 -0.276689
v 0.209229 1.150346 -0.227982
v 0.063681 1.211783 -0.314431
v 0.141187 1.284388 -0.277578
v 0.166992 1.231789 -0.193100
v 0.197180 1.164573 -0.215240
v 0.068711 1.233352 -0.259874
v 0.077809 1.240460 -0.230638
v 0.150708 1.207422 -0.192272
v 0.098066 1.233600 -0.214926
v 0.747740 0.616828 0.405385
v 0.739377 0.636475 0.433426
v 0.730912 0.636446 0.421970
v 0.783211 0.593259 0.364759
v 0.836815 0.632102 0.400941
v 0.724087 0.669396 0.420737
v 0.816333 0.615601 0.312705
v 0.835942 0.629193 0.298181
v 0.796475 0.721916 0.430523
v 0.721567 0.723885 0.406804
v 0.826087 0.629452 0.295060
v 0.856157 0.717416 0.346936
v 0.770672 0.774515 0.346046
v 0.744396 0.756302 0.365508
v 0.825009 0.652733 0.289107
v 0.811644 0.717265 0.286693
v 0.760953 0.767472 0.339486
v 0.778685 0.755689 0.319177
v -0.592155 1.083100 0.021220
v -0.596186 1.092571 0.034738
v -0.669283 1.092324 -0.064189
v -0.625785 1.063269 -0.063736
v -0.577881 1.091749 0.028635
v -0.645097 1.197881 -0.005856
v -0.597877 1.086939 -0.164200
v -0.595656 1.082412 -0.156929
v -0.520261 1.127007 0.016363
v -0.500778 1.134482 0.011397
v -0.527868 1.194799 0.031265
v -0.646140 1.194400 -0.128806
v -0.588690 1.086698 -0.161290
v -0.462493 1.162811 -0.051906
v -0.456461 1.189414 -0.068747
v -0.492011 1.144411 -0.004166
v -0.558742 1.257732 -0.069811
v -0.529558 1.189167 -0.167674
v -0.505492 1.137352 -0.147700
v -0.462499 1.163062 -0.083309
v -0.949415 0.870730 -0.670570
v -0.976715 0.929510 -0.693227
v -0.996656 0.842480 -0.741322
v -0.893577 0.904727 -0.661448
v -0.878736 0.926934 -0.662203
v -0.977587 0.926600 -0.795986
v -0.996657 0.842491 -0.742744
v -0.874112 0.916638 -0.665594
v -0.904540 0.979533 -0.746680
v -0.952245 0.870174 -0.814571
v -0.859875 0.925512 -0.688619
v -0.841316 0.937303 -0.746021
v -0.880149 0.922228 -0.828473
v -0.889123 0.908798 -0.828015
v -0.866806 0.922272 -0.810415
v -0.877265 0.916018 -0.826078
v 0.549227 0.575276 -0.637437
v 0.558721 0.574560 -0.650735
v 0.570434 0.550683 -0.612387
v 0.540410 0.615332 -0.637305
v 0.656699 0.571985 -0.619711
v 0.597667 0.531070 -0.575991
v 0.536124 0.663579 -0.627068
v 0.615821 0.660001 -0.653638
v 0.657573 0.574894 -0.516953
v 0.613412 0.542893 -0.546760
v 0.547267 0.685306 -0.601655
v 0.591429 0.717307 -0.571846
v 0.676914 0.660208 -0.570956
v 0.630448 0.576111 -0.507909
v 0.571337 0.703382 -0.556966
v 0.623896 0.649874 -0.492255
v 0.620688 0.664448 -0.492208
v 0.612971 0.673396 -0.501322
v -0.190011 -0.341128 -0.218617
v -0.522851 -0.079111 0.695325
v -1.101503 -0.119643 -0.577275
v -0.697326 -0.158822 -1.117838
v 0.738921 -0.131887 0.655773
v -0.957825 0.857430 0.334322
v 0.615740 -0.197221 -0.804712
v -1.070445 0.800087 -1.064990
v 0.256589 0.843209 0.999709
v 0.180760 0.739320 -1.165721
v 0.953855 0.772557 0.076128
v -0.129616 1.367679 -0.267505
vt 0.054730 0.887699
vt 0.055180 0.886954
vt 0.056145 0.887854
vt 0.054257 0.886595
vt 0.056397 0.886559
vt 0.056158 0.887894
vt 0.054521 0.885651
vt 0.055403 0.885570
vt 0.056238 0.887846
vt 0.057199 0.886898
vt 0.055256 0.885117
vt 0.056934 0.885726
vt 0.056165 0.885117
vt 0.058490 0.891092
vt 0.058773 0.890491
vt 0.059741 0.891006
vt 0.057825 0.890103
vt 0.059498 0.889873
vt 0.060472 0.891092
vt 0.059787 0.891052
vt 0.057209 0.889572
vt 0.058783 0.889538
vt 0.060304 0.889335
vt 0.060864 0.890768
vt 0.057204 0.889081
vt 0.058678 0.888578
vt 0.059406 0.889138
vt 0.061020 0.889036
vt 0.058444 0.887829
vt 0.059816 0.888256
vt 0.060032 0.888175
vt 0.059738 0.888038
vt 0.056110 0.895292
vt 0.055761 0.894325
vt 0.056170 0.894237
vt 0.055703 0.895811
vt 0.054932 0.894910
vt 0.055650 0.893076
vt 0.055072 0.896133
vt 0.054210 0.895650
vt 0.054781 0.894097
vt 0.055230 0.892818
vt 0.054073 0.896003
vt 0.054151 0.894623
vt 0.053894 0.893668
vt 0.054796 0.892743
vt 0.053122 0.895392
vt 0.052882 0.894823
vt 0.053593 0.893299
vt 0.052882 0.894309
vt 0.053341 0.890617
vt 0.053429 0.890094
vt 0.053625 0.890169
vt 0.052400 0.891092
vt 0.052255 0.890175
vt 0.053745 0.889593
vt 0.051318 0.890783
vt 0.051166 0.890434
vt 0.052596 0.889252
vt 0.053406 0.888592
vt 0.051054 0.890508
vt 0.051623 0.889447
vt 0.051903 0.888221
vt 0.052466 0.888011
vt 0.050915 0.890166
vt 0.050582 0.889123
vt 0.051868 0.888011
vt 0.051360 0.888205
vt 0.056509 0.894384
vt 0.056632 0.894162
vt 0.057908 0.894841
vt 0.057639 0.896133
vt 0.056422 0.894001
vt 0.057701 0.893807
vt 0.059500 0.894750
vt 0.059504 0.894894
vt 0.056175 0.892693
vt 0.056175 0.892277
vt 0.057188 0.893023
vt 0.058463 0.893918
vt 0.059668 0.894724
vt 0.057834 0.891096
vt 0.058278 0.891671
vt 0.056575 0.891915
vt 0.058156 0.893193
vt 0.059297 0.893142
vt 0.061020 0.892462
vt 0.058839 0.891338
vt 0.051393 0.888007
vt 0.051989 0.887064
vt 0.053254 0.888007
vt 0.050876 0.886977
vt 0.050910 0.886604
vt 0.052793 0.886490
vt 0.050748 0.886620
vt 0.051945 0.886092
vt 0.053745 0.886256
vt 0.050781 0.886152
vt 0.051411 0.885227
vt 0.052695 0.885447
vt 0.052886 0.885479
vt 0.052458 0.885321
vt 0.053840 0.889902
vt 0.054080 0.889830
vt 0.054171 0.890570
vt 0.053750 0.889162
vt 0.055200 0.889952
vt 0.054996 0.891063
vt 0.054170 0.888297
vt 0.054950 0.889114
vt 0.056174 0.890234
vt 0.055663 0.891092
vt 0.054711 0.887907
vt 0.055608 0.888344
vt 0.055769 0.889325
vt 0.056537 0.890518
vt 0.055756 0.887907
vt 0.057199 0.889195
vt 0.057170 0.888906
vt 0.057036 0.888650
vt 0.946491 0.721101
vt 0.944882 0.720233
vt 0.947388 0.721181
vt 0.950480 0.721605
vt 0.943910 0.721130
vt 0.945203 0.720784
vt 0.946575 0.721382
vt 0.947786 0.721160
vt 0.940145 0.720072
vt 0.950346 0.720072
vt 0.950423 0.719588
vt 0.950338 0.719513
vt 0.950400 0.719404
vt 0.950480 0.719390
vt 0.950212 0.719390
vt 0.950278 0.719392
vt 0.950358 0.719541
vt 0.947435 0.720826
vt 0.942786 0.721058
vt 0.942706 0.720926
vt 0.942617 0.720896
vt 0.942548 0.720963
vt 0.942592 0.721023
vt 0.941181 0.720392
vt 0.940984 0.720273
vt 0.940906 0.720281
vt 0.943734 0.720474
vt 0.941426 0.720657
vt 0.941310 0.720564
vt 0.942696 0.721021
vt 0.942783 0.721026
vt 0.947045 0.721023
vt 0.946949 0.720959
vt 0.946856 0.720921
vt 0.946809 0.720965
vt 0.945645 0.720723
vt 0.945592 0.720753
vt 0.945495 0.720732
vt 0.945377 0.720828
vt 0.945303 0.720947
vt 0.944897 0.720537
vt 0.945582 0.720540
vt 0.946959 0.721051
vt 0.946019 0.721331
vt 0.945966 0.721131
vt 0.945913 0.721141
vt 0.945806 0.721128
vt 0.945696 0.721132
vt 0.945948 0.721205
vt 0.945974 0.721175
vt 0.940835 0.720213
vt 0.940846 0.720257
vt 0.940956 0.720198
vt 0.941209 0.720472
vt 0.941351 0.720509
vt 0.941392 0.720602
vt 0.945382 0.721020
vt 0.945285 0.720963
vt 0.945209 0.720923
vt 0.945135 0.720862
vt 0.945108 0.720839
vt 0.944951 0.720771
vt 0.945213 0.720980
vn -0.515800 -0.766300 0.383100
vn 0.164300 -0.784200 0.598400
vn -0.795900 -0.142800 0.588400
vn -0.522000 -0.786400 -0.330200
vn 0.304600 -0.171700 0.936900
vn -0.975000 0.222300 0.002000
vn -0.288800 0.224600 0.930700
vn -0.805800 -0.175500 -0.565600
vn 0.805700 0.175500 0.565800
vn -0.578600 0.815400 -0.018200
vn -0.154500 0.816800 0.555800
vn 0.521900 0.786500 0.330300
vn 0.578600 -0.815400 0.018200
vn 0.304600 -0.171800 0.936900
vn 0.975000 -0.222300 -0.002000
vn 0.795900 0.142800 -0.588400
vn 0.288800 -0.224600 -0.930700
vn 0.515800 0.766300 -0.383100
vn -0.304600 0.171700 -0.936900
vn -0.164300 0.784200 -0.598400
vn -0.805700 -0.175500 -0.565800
vn 0.154500 -0.816800 -0.555800
vn 0.795800 0.142800 -0.588400
vn 0.304700 -0.171700 0.936800
vn -0.795800 -0.142800 0.588400
vn 0.154600 -0.816800 -0.555800
vn 0.515800 0.766300 -0.383000
vn -0.521900 -0.786500 -0.330300
vn 0.304600 -0.171800 0.936800
vn -0.304600 0.171800 -0.936900
vn 0.805700 0.175400 0.565800
vn 0.288800 -0.224700 -0.930600
vn 0.795900 0.142700 -0.588400
vn 0.304700 -0.171800 0.936800
vn -0.293200 -0.942000 0.163300
vn -0.204600 -0.975400 -0.082300
vn -0.032000 -0.963800 0.264700
vn -0.878200 -0.250900 0.407300
vn 0.021600 -0.977400 -0.210300
vn -0.780000 -0.272400 -0.563400
vn 0.016000 -0.325500 0.945400
vn 0.195000 -0.980400 0.027400
vn -0.994300 0.074400 0.077000
vn -0.476300 0.114800 0.871800
vn 0.216600 -0.261900 -0.940500
vn -0.079100 0.024200 -0.996600
vn 0.791000 0.185600 0.583000
vn 0.959800 -0.272200 -0.068800
vn -0.520900 0.853600 0.006900
vn -0.225600 0.874000 0.430500
vn 0.832100 0.184900 -0.522900
vn -0.006500 0.818300 -0.574700
vn 0.407600 0.880900 0.240400
vn 0.534000 0.768300 -0.353000
usemtl Material.001
s off
f 1/1/1 2/2/1 3/3/1 4/3/1
f 5/4/2 2/2/2 1/1/2
f 3/3/3 2/2/3 6/5/3
f 4/3/4 3/3/4 7/6/4
f 8/7/5 9/8/5 2/2/5 5/4/5
f 10/9/6 3/3/6 6/5/6 11/10/6
f 2/2/7 9/8/7 6/5/7
f 7/6/8 3/3/8 10/9/8
f 12/11/9 9/8/9 8/7/9
f 11/10/10 6/5/10 13/12/10
f 13/12/11 6/5/11 9/8/11 14/13/11
f 14/13/12 9/8/12 12/11/12
f 15/14/2 16/15/2 17/16/2
f 18/17/13 16/15/13 15/14/13
f 17/16/14 16/15/14 19/18/14 20/19/14 21/20/14
f 16/15/15 18/17/15 22/17/15 23/21/15 24/22/15
f 16/15/9 24/22/9 19/18/9
f 20/19/7 19/18/7 25/23/7 26/24/7
f 27/25/16 28/26/16 24/22/16 23/21/16
f 19/18/12 24/22/12 29/27/12
f 25/23/11 19/18/11 29/27/11
f 26/24/3 25/23/3 30/28/3
f 31/29/17 28/26/17 27/25/17
f 24/22/18 28/26/18 29/27/18
f 32/30/10 25/23/10 29/27/10
f 30/28/6 25/23/6 32/30/6 33/31/6
f 34/32/19 32/30/19 28/26/19 31/29/19
f 28/26/20 32/30/20 29/27/20
f 33/31/21 32/30/21 34/32/21
f 35/33/22 36/34/22 37/35/22
f 38/36/17 39/37/17 36/34/17 35/33/17
f 37/35/13 36/34/13 40/38/13
f 41/39/19 42/40/19 39/37/19 38/36/19
f 36/34/23 39/37/23 43/41/23
f 40/38/15 36/34/15 43/41/15 44/42/15
f 45/43/21 42/40/21 41/39/21
f 39/37/20 42/40/20 46/44/20
f 43/41/18 39/37/18 46/44/18
f 44/42/9 43/41/9 47/45/9 48/46/9
f 49/47/6 42/40/6 45/43/6
f 50/48/10 46/44/10 42/40/10 49/47/10
f 47/45/12 43/41/12 46/44/12
f 48/46/24 47/45/24 51/49/24
f 52/50/11 47/45/11 46/44/11 50/48/11
f 51/49/7 47/45/7 52/50/7
f 53/51/1 54/52/1 55/53/1
f 56/54/2 57/55/2 54/52/2 53/51/2
f 55/53/25 54/52/25 58/56/25
f 59/57/13 60/58/13 57/55/13 56/54/13
f 54/52/14 57/55/14 61/59/14
f 58/56/7 54/52/7 61/59/7 62/60/7
f 63/61/26 60/58/26 59/57/26
f 57/55/15 60/58/15 64/62/15
f 57/55/9 64/62/9 61/59/9
f 62/60/11 61/59/11 65/63/11 66/64/11
f 67/65/17 60/58/17 63/61/17
f 68/66/16 64/62/16 60/58/16 67/65/16
f 61/59/12 64/62/12 65/63/12
f 66/64/10 65/63/10 69/67/10
f 70/68/27 65/63/27 64/62/27 68/66/27
f 69/67/20 65/63/20 70/68/20
f 71/69/1 72/70/1 73/71/1 74/72/1
f 75/73/2 72/70/2 71/69/2
f 73/71/25 72/70/25 76/74/25
f 74/72/28 73/71/28 77/75/28 78/76/28
f 72/70/29 75/73/29 79/77/29 80/78/29 81/79/29
f 73/71/6 76/74/6 82/80/6
f 72/70/7 81/79/7 76/74/7
f 77/75/21 73/71/21 82/80/21
f 78/76/26 77/75/26 83/81/26
f 84/82/9 85/83/9 81/79/9 80/78/9 86/84/9
f 82/80/10 76/74/10 87/85/10
f 76/74/11 81/79/11 87/85/11
f 77/75/30 82/80/30 88/86/30
f 83/81/17 77/75/17 88/86/17 89/87/17
f 90/88/15 85/83/15 84/82/15
f 81/79/12 85/83/12 87/85/12
f 88/86/20 82/80/20 87/85/20
f 89/87/16 88/86/16 85/83/16 90/88/16
f 85/83/18 88/86/18 87/85/18
f 91/89/25 92/90/25 93/91/25
f 94/92/7 95/93/7 92/90/7 91/89/7
f 93/91/6 92/90/6 96/94/6 97/91/6
f 98/95/5 95/93/5 94/92/5
f 92/90/11 95/93/11 99/96/11
f 96/94/10 92/90/10 99/96/10
f 97/91/21 96/94/21 100/97/21
f 101/98/31 95/93/31 98/95/31
f 102/99/12 99/96/12 95/93/12 101/98/12
f 103/100/20 96/94/20 99/96/20
f 100/97/19 96/94/19 103/100/19 104/101/19
f 105/102/18 103/100/18 99/96/18 102/99/18
f 104/101/32 103/100/32 106/100/32
f 106/100/33 103/100/33 105/102/33
f 107/103/28 108/104/28 109/105/28
f 110/106/21 108/104/21 107/103/21
f 109/105/22 108/104/22 111/107/22 112/108/22
f 113/109/19 114/110/19 108/104/19 110/106/19
f 111/107/17 108/104/17 114/110/17
f 112/108/13 111/107/13 115/111/13 116/112/13
f 117/113/20 118/114/20 114/110/20 113/109/20
f 111/107/16 114/110/16 119/115/16
f 115/111/15 111/107/15 119/115/15
f 116/112/2 115/111/2 120/116/2
f 121/117/10 118/114/10 117/113/10
f 119/115/18 114/110/18 118/114/18
f 122/118/9 115/111/9 119/115/9 123/119/9
f 120/116/34 115/111/34 122/118/34
f 124/120/11 118/114/11 121/117/11
f 123/119/12 119/115/12 118/114/12 124/120/12
f 125/121/35 126/122/35 127/123/35
f 125/121/36 127/123/36 128/124/36
f 126/122/37 125/121/37 129/125/37
f 127/123/38 126/122/38 130/126/38
f 125/121/39 128/124/39 131/127/39
f 128/124/40 127/123/40 132/128/40
f 126/122/41 129/125/41 133/129/41
f 125/121/42 131/127/42 129/125/42
f 127/123/43 130/126/43 132/128/43
f 126/130/44 1/131/44 4/132/44 7/132/44 10/132/44 11/133/44 13/134/44 133/129/44 130/126/44
f 126/130/44 133/129/44 13/135/44 14/136/44 12/136/44 8/132/44 5/137/44 1/131/44
f 131/127/45 128/124/45 134/138/45
f 128/124/46 132/128/46 134/138/46
f 129/125/47 56/139/47 53/140/47 55/140/47 58/141/47 62/142/47 66/143/47 69/143/47 15/144/47 17/145/47 21/146/47 133/129/47
f 129/125/47 135/147/47 22/148/47 18/149/47 15/144/47 69/143/47 70/150/47 68/151/47 67/139/47 63/139/47 59/139/47 56/139/47
f 129/125/48 131/127/48 135/147/48
f 132/128/49 100/152/49 104/152/49 106/152/49 105/153/49 102/154/49 101/155/49 98/155/49 78/156/49 83/157/49 89/158/49 90/159/49 84/160/49 86/159/49 136/161/49
f 130/126/49 79/158/49 75/162/49 71/158/49 74/156/49 78/156/49 98/155/49 94/155/49 91/155/49 93/163/49 97/152/49 100/152/49 132/128/49
f 130/126/50 133/129/50 136/161/50 86/159/50 80/159/50 79/158/50
f 131/127/51 112/164/51 116/165/51 120/166/51 122/167/51 123/167/51 124/168/51 121/167/51 134/138/51 135/147/51
f 131/127/51 134/138/51 121/167/51 117/169/51 113/169/51 110/169/51 107/169/51 109/170/51 112/164/51
f 134/138/52 132/128/52 136/161/52
f 133/129/53 21/146/53 20/171/53 26/171/53 30/172/53 33/173/53 34/145/53 31/174/53 27/175/53 23/176/53 22/148/53 135/147/53 136/161/53
f 134/138/54 38/177/54 35/178/54 37/179/54 40/180/54 44/181/54 48/180/54 51/182/54 136/161/54 135/147/54
f 134/138/54 136/161/54 51/182/54 52/182/54 50/182/54 49/180/54 45/180/54 41/183/54 38/177/54
