# Blender v2.79 (sub 0) OBJ File: 'Rock_Moss_5.blend'
# www.blender.org
mtllib Rock_Moss_5.mtl
o Rock_Moss_5_Cube.025
v -0.173477 0.078197 0.349604
v -0.175999 0.550805 0.238668
v 0.194909 0.466562 0.101507
v 0.126443 0.534897 0.182864
v 0.152800 0.085191 0.395222
v 0.287116 0.088949 0.328502
v 0.247978 0.185820 0.274482
v -0.187478 0.278263 0.289753
v 0.127650 0.285096 0.281313
v 0.303605 0.089466 0.298091
v -0.118812 0.069967 0.390446
v 0.230405 0.442089 0.061941
v 0.286693 0.183612 0.226206
v 0.340535 0.088362 0.213067
v -0.322655 0.076864 0.052786
v -0.275732 0.565005 0.027357
v 0.202127 0.484979 -0.033818
v -0.276056 0.077316 -0.336461
v -0.243284 0.550228 -0.232099
v 0.164643 0.395258 -0.194000
v 0.125672 0.569879 -0.021546
v 0.061153 0.534337 -0.275738
v -0.106078 0.589540 0.016418
v 0.018574 0.084039 -0.483886
v 0.167161 0.087919 -0.463553
v 0.106159 0.012801 -0.017523
v 0.147276 0.184956 -0.400131
v -0.290216 0.304776 -0.334958
v 0.011109 0.311491 -0.427595
v -0.316151 0.310654 0.051391
v 0.287027 0.089875 -0.047180
v 0.192497 0.088512 -0.440001
v -0.237288 0.068950 -0.392596
v 0.246359 0.435462 -0.041000
v 0.210425 0.369425 -0.164398
v 0.199380 0.182862 -0.366737
v 0.288817 0.236668 -0.047680
v 0.332865 0.089836 -0.054694
v 0.254641 0.087625 -0.371216
v -0.118812 0.069967 0.426120
v -0.173477 0.078197 0.385279
v -0.130847 0.271292 0.386755
v 0.152800 0.085191 0.430897
v 0.287116 0.088949 0.364176
v 0.131632 0.283035 0.388806
v 0.222532 0.159670 0.323012
vn -0.0165 -0.9999 -0.0024
vn 0.7745 0.4659 0.4279
vn 0.7431 0.4566 0.4891
vn 0.7560 0.6443 0.1156
vn 0.6534 0.3967 0.6448
vn 0.0280 -0.9996 0.0000
vn -0.0659 -0.9921 0.1071
vn 0.7421 0.5292 0.4114
vn -0.8852 0.0500 0.4625
vn 0.1035 0.2719 0.9568
vn -0.1489 -0.9889 0.0000
vn 0.2577 -0.9638 0.0680
vn -0.9101 0.1249 0.3950
vn 0.9275 0.3727 0.0280
vn 0.9690 0.2353 0.0755
vn -0.9780 0.1858 -0.0944
vn -0.0133 -0.9999 0.0083
vn 0.5971 0.4644 -0.6541
vn 0.5517 0.5787 -0.6006
vn 0.7804 0.5188 -0.3489
vn 0.7012 0.3862 -0.5993
vn -0.3145 0.1878 -0.9305
vn -0.0940 -0.9933 -0.0674
vn 0.5717 0.5278 -0.6282
vn -0.9955 -0.0165 -0.0930
vn -0.1830 0.4987 -0.8472
vn -0.8252 -0.0477 -0.5628
vn 0.2234 -0.9668 -0.1244
vn 0.3005 0.3523 -0.8863
vn 0.8870 0.3766 -0.2672
vn 0.9113 0.2513 -0.3263
vn -0.0225 0.1981 0.9799
vn -0.5821 0.1224 0.8038
vn 0.6139 0.4059 0.6770
vn 0.6620 0.6354 0.3974
vn 0.0560 -0.9984 0.0000
vn -0.8748 0.1518 0.4601
vn -0.1338 0.9826 0.1292
vn 0.0975 0.9779 0.1848
vn 0.7085 0.6981 0.1034
vn -0.1474 0.9863 -0.0746
vn 0.0405 0.9858 -0.1631
vn 0.6273 0.6026 -0.4934
vn 0.7425 0.6338 0.2167
vn -0.0315 0.9981 0.0534
usemtl Rock
s off
f 10//1 31//1 38//1 14//1
f 7//2 10//2 14//2 13//2
f 7//3 13//3 12//3 3//3
f 3//4 17//4 21//4 4//4
f 7//5 3//5 4//5 9//5
f 5//6 6//6 44//6 43//6
f 15//7 26//7 5//7 11//7 1//7
f 6//8 10//8 7//8
f 1//9 8//9 30//9 15//9
f 9//10 4//10 2//10 8//10
f 1//11 11//11 40//11 41//11
f 26//12 31//12 10//12 6//12 5//12
f 8//13 1//13 41//13 42//13
f 37//14 13//14 14//14 38//14
f 37//15 34//15 12//15 13//15
f 16//16 19//16 28//16 30//16
f 32//17 39//17 38//17 31//17
f 27//18 36//18 39//18 32//18
f 36//19 27//19 20//19 35//19
f 20//20 22//20 21//20 17//20
f 27//21 29//21 22//21 20//21
f 29//22 24//22 33//22 28//22
f 15//23 18//23 33//23 24//23 26//23
f 25//24 27//24 32//24
f 18//25 15//25 30//25 28//25
f 29//26 28//26 19//26 22//26
f 28//27 33//27 18//27
f 26//28 24//28 25//28 32//28 31//28
f 27//29 25//29 24//29 29//29
f 37//30 38//30 39//30 36//30
f 37//31 36//31 35//31 34//31
f 45//32 42//32 40//32 43//32
f 42//33 41//33 40//33
f 46//34 45//34 43//34 44//34
f 6//35 7//35 46//35 44//35
f 11//36 5//36 43//36 40//36
f 8//37 2//37 16//37 30//37
usemtl Green
f 16//38 2//38 23//38
f 4//39 21//39 23//39 2//39
f 17//40 3//40 12//40 34//40
f 16//41 23//41 19//41
f 22//42 19//42 23//42 21//42
f 17//43 34//43 35//43 20//43
f 7//44 9//44 45//44 46//44
f 9//45 8//45 42//45 45//45
