# Blender v2.79 (sub 0) OBJ File: 'WoodLog_Snow.blend'
# www.blender.org
mtllib WoodLog_Snow.mtl
o WoodLog_Snow_Cylinder.019
v -0.025963 -0.019435 -1.169688
v 0.001753 0.011258 0.001794
v -0.213787 -0.004053 -1.165698
v -0.157229 0.019010 0.005252
v -0.347824 0.128472 -1.164732
v -0.269992 0.125858 0.006137
v -0.365358 0.316132 -1.167241
v -0.260201 0.293533 -0.030741
v -0.258184 0.471118 -1.172052
v -0.076329 0.520995 -1.171506
v 0.103815 0.443114 -1.133729
v 0.209742 0.274123 -1.081857
v 0.183577 0.248202 -0.003562
v 0.135436 0.090100 -1.148850
v 0.134412 0.099493 -0.002558
v -0.074076 0.089293 1.314200
v 0.085041 0.075523 1.269353
v -0.188170 0.202347 1.320813
v -0.180079 0.421988 1.314733
v -0.112065 0.494265 1.303692
v 0.042547 0.536447 1.287969
v 0.188304 0.469150 1.276851
v 0.257808 0.335826 1.212144
v 0.214828 0.167513 1.211309
v 0.201721 0.262170 0.570665
v -0.266191 0.315881 0.582707
v 0.023464 0.035931 0.630701
v -0.137714 0.051240 0.639571
v -0.251512 0.162570 0.643992
v 0.158212 0.118748 0.615840
v -0.009548 0.005725 -0.477338
v -0.177821 0.015978 -0.473709
v -0.297556 0.131552 -0.472802
v -0.312824 0.298723 -0.475045
v -0.216591 0.439670 -0.479393
v 0.172512 0.266241 -0.485467
v 0.128504 0.105677 -0.481992
v -0.278328 0.230649 -0.005821
v -0.304002 0.404861 -1.169996
v -0.226848 0.347771 1.008900
v 0.062187 0.064165 1.021064
v -0.211582 0.189370 1.039087
v 0.199411 0.146114 0.989226
v 0.233897 0.311121 0.999579
v -0.097620 0.077030 1.033468
v -0.197662 0.303618 1.318185
v 0.182901 0.301277 0.565926
v -0.034740 0.014437 -1.170519
v -0.007288 0.045066 0.001264
v -0.199350 0.027801 -1.167043
v -0.143287 0.051082 0.003858
v -0.316184 0.143313 -1.166636
v -0.238551 0.141139 0.004433
v -0.331612 0.307115 -1.169444
v -0.230494 0.275092 -0.032277
v -0.248893 0.437415 -1.173702
v -0.171494 0.387105 -0.000807
v -0.078208 0.486080 -1.173047
v -0.040419 0.422253 -0.004379
v 0.081676 0.416039 -1.135072
v 0.067009 0.375318 0.073776
v 0.174931 0.270728 -1.083153
v 0.148760 0.244738 -0.002717
v 0.108634 0.112594 -1.149619
v 0.106500 0.120604 -0.002101
v -0.058894 0.120713 1.311521
v 0.077895 0.109760 1.268065
v -0.156586 0.217075 1.317567
v -0.152471 0.400477 1.314673
v -0.092554 0.465212 1.304128
v 0.039892 0.501602 1.289904
v 0.165816 0.442567 1.280404
v 0.223646 0.329133 1.215763
v 0.186402 0.187912 1.212213
v 0.106955 0.383437 0.554950
v 0.168178 0.272053 0.572139
v -0.020736 0.454216 0.623622
v -0.153458 0.422254 0.629629
v -0.232298 0.307231 0.581508
v 0.015352 0.069951 0.629374
v -0.123217 0.082972 0.636769
v -0.219878 0.177231 0.640945
v 0.130462 0.140065 0.616539
v -0.018976 0.039428 -0.477747
v -0.163667 0.047970 -0.474787
v -0.265984 0.146548 -0.474611
v -0.278988 0.290111 -0.477493
v -0.196188 0.411336 -0.481809
v -0.056027 0.450382 -0.485374
v 0.068017 0.383361 -0.489056
v 0.137752 0.262181 -0.485933
v 0.100365 0.126489 -0.482068
v -0.243483 0.233503 -0.007451
v -0.275225 0.385051 -1.172110
v 0.141319 0.430609 1.004590
v 0.016664 0.487929 1.012746
v -0.115446 0.451546 1.024287
v -0.193254 0.338190 1.006748
v 0.053714 0.098096 1.019692
v -0.180011 0.204030 1.035437
v 0.171038 0.166580 0.990243
v 0.199254 0.307450 1.002945
v -0.083248 0.108790 1.030345
v -0.162910 0.306561 1.315248
v 0.151944 0.285251 0.569053
v -0.196009 0.443390 0.000484
v -0.263749 0.321804 -0.030173
v -0.261732 0.499390 -1.171484
v -0.079877 0.549266 -1.170937
v -0.040596 0.485362 -0.003664
v 0.100267 0.471386 -1.133161
v 0.087227 0.429254 0.073146
v 0.206194 0.302395 -1.081288
v 0.180030 0.276473 -0.002994
v -0.307549 0.433132 -1.169427
v -0.220138 0.467942 -0.478825
v -0.115613 0.522537 1.304260
v -0.183627 0.450259 1.315301
v 0.039000 0.564718 1.288537
v 0.184756 0.497422 1.277419
v 0.254260 0.364098 1.212713
v 0.161817 0.483989 1.001117
v 0.016046 0.550979 1.010703
v -0.138683 0.508750 1.024423
v -0.230396 0.376042 1.009468
v 0.127831 0.436585 0.552418
v -0.021248 0.517250 0.621482
v -0.177618 0.478805 0.629609
v -0.269738 0.344153 0.583275
v -0.368906 0.344404 -1.166673
v -0.316371 0.326994 -0.474477
v -0.056547 0.513485 -0.483212
v 0.088016 0.437507 -0.487529
v 0.168964 0.294512 -0.484899
v 0.230349 0.339392 1.000148
v 0.179353 0.329548 0.566495
vn -0.0547 -0.9984 0.0107
vn -0.6908 -0.7223 0.0327
vn -0.9948 -0.0833 0.0586
vn 0.9571 -0.2887 -0.0242
vn 0.5705 -0.8212 -0.0108
vn -0.0740 -0.9960 0.0510
vn -0.9929 -0.0841 0.0839
vn -0.6976 -0.7108 0.0901
vn 0.5490 -0.8357 0.0135
vn 0.9725 -0.2239 -0.0642
vn 0.9517 -0.3059 -0.0250
vn 0.5393 -0.8420 0.0100
vn -0.6917 -0.7197 0.0597
vn -0.0700 -0.9964 0.0472
vn 0.5724 -0.8197 0.0206
vn 0.9432 -0.3303 0.0350
vn -0.9932 -0.0908 0.0728
vn -0.6978 -0.7142 0.0554
vn -0.9963 -0.0795 0.0328
vn -0.0710 -0.9969 0.0352
vn 0.9657 -0.2515 -0.0644
vn 0.5191 -0.8547 0.0079
vn -0.6932 -0.7111 0.1177
vn -0.9928 -0.0659 0.1005
vn -0.0821 -0.9937 0.0767
vn 0.0516 0.9986 -0.0109
vn 0.6901 0.7230 -0.0327
vn 0.9955 0.0719 -0.0613
vn 0.8556 -0.5098 -0.0892
vn 0.2618 -0.9630 -0.0634
vn -0.4350 -0.9001 -0.0251
vn -0.8574 -0.5146 -0.0043
vn -0.8781 -0.4632 0.1197
vn -0.9557 0.2934 0.0241
vn -0.5718 0.8203 0.0108
vn -0.4154 -0.9063 0.0779
vn 0.7912 -0.6116 -0.0067
vn 0.0688 0.9963 -0.0507
vn 0.9933 0.0747 -0.0881
vn 0.6963 0.7120 -0.0906
vn -0.5479 0.8365 -0.0126
vn -0.9728 0.2219 0.0670
vn -0.9531 0.3016 0.0228
vn -0.5373 0.8433 -0.0099
vn 0.6907 0.7207 -0.0597
vn 0.0674 0.9966 -0.0472
vn 0.8520 -0.5233 0.0172
vn 0.2478 -0.9678 0.0442
vn -0.4488 -0.8919 0.0564
vn -0.5752 0.8177 -0.0202
vn -0.9400 0.3392 -0.0352
vn -0.8471 -0.5289 -0.0522
vn -0.4301 -0.9018 -0.0435
vn 0.2706 -0.9610 -0.0577
vn 0.8162 -0.5730 -0.0739
vn 0.9932 0.0905 -0.0729
vn 0.6977 0.7143 -0.0554
vn 0.9972 0.0681 -0.0304
vn 0.0699 0.9969 -0.0351
vn -0.9680 0.2417 0.0676
vn -0.5133 0.8582 -0.0084
vn 0.6921 0.7122 -0.1177
vn 0.9930 0.0631 -0.1000
vn 0.0805 0.9938 -0.0765
vn 0.8290 -0.5580 -0.0369
vn 0.2528 -0.9660 0.0533
vn -0.4193 -0.8995 0.1226
vn -0.9031 -0.4134 0.1159
vn -0.8664 -0.4959 0.0584
vn -0.0237 -0.0310 -0.9992
vn -0.0375 -0.0324 -0.9988
vn -0.0608 -0.0208 -0.9979
vn -0.0093 0.0454 -0.9989
vn 0.2035 -0.0333 -0.9785
vn 0.1604 -0.2164 -0.9630
vn 0.1288 0.3140 -0.9407
vn 0.6895 0.7151 -0.1147
vn 0.1085 0.0403 -0.9933
vn 0.2876 0.0226 0.9575
vn 0.0928 0.0337 0.9951
vn 0.0841 0.0328 0.9959
vn 0.0799 0.0819 0.9934
vn 0.0873 0.0600 0.9944
vn 0.0981 0.0487 0.9940
vn 0.3000 -0.3168 0.8998
vn 0.0653 -0.0310 0.9974
vn 0.3009 0.2024 0.9319
vn 0.0921 0.9950 -0.0388
vn -0.4308 -0.8660 0.2540
vn 0.0830 0.9912 -0.1033
vn -0.3902 -0.9199 0.0384
vn -0.0633 0.0122 -0.9979
vn -0.3904 -0.9204 0.0235
vn 0.0777 0.9878 -0.1349
vn 0.0902 0.9881 0.1244
vn -0.9000 -0.4336 0.0433
vn 0.1043 0.9883 0.1112
vn 0.2878 -0.9577 0.0028
vn 0.2875 -0.9546 0.0777
vn 0.1600 0.0002 0.9871
vn 0.9849 0.1260 -0.1187
vn 0.9904 0.1230 0.0634
vn -0.9853 -0.1260 0.1152
vn 0.5444 0.0851 -0.8345
vn -0.9869 -0.1259 0.1005
vn -0.9922 -0.1244 -0.0052
vn -0.9906 -0.1254 0.0538
vn 0.7590 0.0823 0.6458
vn 0.2247 0.0478 -0.9732
vn -0.9756 -0.1260 0.1798
vn -0.0625 0.0122 -0.9980
vn -0.9895 -0.1256 0.0719
vn 0.9920 0.1248 -0.0181
vn 0.0709 -0.0111 0.9974
vn 0.9834 0.1260 -0.1308
vn 0.9841 0.1260 -0.1253
vn 0.1031 -0.0071 0.9946
vn -0.0024 0.0198 -0.9998
vn 0.9921 0.1247 -0.0104
vn 0.2674 -0.9633 0.0251
vn -0.8488 0.5214 0.0873
vn -0.2624 0.9628 0.0639
vn 0.4307 0.9021 0.0253
vn 0.8627 0.5057 0.0043
vn 0.8775 0.4643 -0.1203
vn 0.4125 0.9076 -0.0787
vn -0.2654 0.9638 -0.0257
vn -0.7888 0.6146 0.0017
vn -0.8461 0.5328 -0.0163
vn -0.2511 0.9669 -0.0443
vn 0.4434 0.8946 -0.0558
vn 0.8528 0.5198 0.0514
vn 0.4241 0.9046 0.0437
vn -0.2652 0.9624 0.0593
vn -0.8211 0.5657 0.0760
vn -0.8274 0.5605 0.0367
vn -0.2542 0.9657 -0.0537
vn 0.4180 0.9001 -0.1227
vn 0.8989 0.4230 -0.1140
vn 0.8662 0.4959 -0.0615
usemtl Wood
s off
f 31//1 2//1 4//1 32//1
f 32//2 4//2 6//2 33//2
f 33//3 6//3 38//3 34//3
f 36//4 13//4 15//4 37//4
f 37//5 15//5 2//5 31//5
f 45//6 41//6 17//6 16//6
f 40//7 42//7 18//7 46//7
f 42//8 45//8 16//8 18//8
f 41//9 43//9 24//9 17//9
f 43//10 44//10 23//10 24//10
f 15//11 13//11 25//11 30//11
f 2//12 15//12 30//12 27//12
f 6//13 4//13 28//13 29//13
f 4//14 2//14 27//14 28//14
f 14//15 37//15 31//15 1//15
f 12//16 36//16 37//16 14//16
f 5//17 33//17 34//17 7//17
f 3//18 32//18 33//18 5//18
f 26//19 38//19 6//19 29//19
f 1//20 31//20 32//20 3//20
f 30//21 25//21 44//21 43//21
f 27//22 30//22 43//22 41//22
f 29//23 28//23 45//23 42//23
f 26//24 29//24 42//24 40//24
f 28//25 27//25 41//25 45//25
f 84//26 85//26 51//26 49//26
f 85//27 86//27 53//27 51//27
f 86//28 87//28 93//28 53//28
f 87//29 88//29 57//29 55//29
f 88//30 89//30 59//30 57//30
f 89//31 90//31 61//31 59//31
f 90//32 91//32 63//32 61//32
f 102//33 73//33 72//33 95//33
f 91//34 92//34 65//34 63//34
f 92//35 84//35 49//35 65//35
f 95//36 72//36 71//36 96//36
f 97//37 70//37 69//37 98//37
f 103//38 66//38 67//38 99//38
f 98//39 104//39 68//39 100//39
f 100//40 68//40 66//40 103//40
f 99//41 67//41 74//41 101//41
f 101//42 74//42 73//42 102//42
f 65//43 83//43 76//43 63//43
f 49//44 80//44 83//44 65//44
f 53//45 82//45 81//45 51//45
f 51//46 81//46 80//46 49//46
f 57//47 78//47 79//47 55//47
f 59//48 77//48 78//48 57//48
f 61//49 75//49 77//49 59//49
f 64//50 48//50 84//50 92//50
f 62//51 64//51 92//51 91//51
f 60//52 62//52 91//52 90//52
f 58//53 60//53 90//53 89//53
f 56//54 58//54 89//54 88//54
f 54//55 94//55 88//55 87//55
f 52//56 54//56 87//56 86//56
f 50//57 52//57 86//57 85//57
f 79//58 82//58 53//58 93//58
f 48//59 50//59 85//59 84//59
f 83//60 101//60 102//60 76//60
f 80//61 99//61 101//61 83//61
f 82//62 100//62 103//62 81//62
f 79//63 98//63 100//63 82//63
f 81//64 103//64 99//64 80//64
f 78//65 97//65 98//65 79//65
f 77//66 96//66 97//66 78//66
f 75//67 95//67 96//67 77//67
f 102//68 95//68 75//68 105//68
f 105//69 75//69 61//69 63//69
f 1//70 3//70 50//70 48//70
f 3//71 5//71 52//71 50//71
f 5//72 7//72 54//72 52//72
f 9//73 10//73 58//73 56//73
f 10//74 11//74 60//74 58//74
f 11//75 12//75 62//75 60//75
f 12//76 14//76 64//76 62//76
f 39//77 35//77 88//77 94//77
f 14//78 1//78 48//78 64//78
f 16//79 17//79 67//79 66//79
f 18//80 16//80 66//80 68//80
f 46//81 18//81 68//81 104//81
f 20//82 19//82 69//82 70//82
f 21//83 20//83 70//83 71//83
f 22//84 21//84 71//84 72//84
f 23//85 22//85 72//85 73//85
f 24//86 23//86 73//86 74//86
f 17//87 24//87 74//87 67//87
f 25//88 13//88 63//88 76//88
f 19//89 40//89 98//89 69//89
f 44//90 25//90 76//90 102//90
f 26//91 8//91 55//91 79//91
f 7//92 39//92 94//92 54//92
f 8//93 34//93 87//93 55//93
f 38//94 26//94 79//94 93//94
f 34//95 38//95 93//95 87//95
f 35//96 9//96 56//96 88//96
f 40//97 46//97 104//97 98//97
f 47//98 44//98 102//98 105//98
f 13//99 47//99 105//99 63//99
usemtl Snow
f 19//100 20//100 117//100 118//100
f 44//101 47//101 136//101 135//101
f 36//102 12//102 113//102 134//102
f 34//103 8//103 107//103 131//103
f 12//104 11//104 111//104 113//104
f 26//105 40//105 125//105 129//105
f 8//106 26//106 129//106 107//106
f 9//107 35//107 116//107 108//107
f 22//108 23//108 121//108 120//108
f 11//109 10//109 109//109 111//109
f 40//110 19//110 118//110 125//110
f 39//111 7//111 130//111 115//111
f 7//112 34//112 131//112 130//112
f 13//113 36//113 134//113 114//113
f 21//114 22//114 120//114 119//114
f 35//115 39//115 115//115 116//115
f 23//116 44//116 135//116 121//116
f 20//117 21//117 119//117 117//117
f 10//118 9//118 108//118 109//118
f 47//119 13//119 114//119 136//119
f 96//120 71//120 70//120 97//120
f 131//121 107//121 106//121 116//121
f 116//122 106//122 110//122 132//122
f 132//123 110//123 112//123 133//123
f 133//124 112//124 114//124 134//124
f 135//125 122//125 120//125 121//125
f 122//126 123//126 119//126 120//126
f 123//127 124//127 117//127 119//127
f 124//128 125//128 118//128 117//128
f 106//129 107//129 129//129 128//129
f 110//130 106//130 128//130 127//130
f 112//131 110//131 127//131 126//131
f 111//132 133//132 134//132 113//132
f 109//133 132//133 133//133 111//133
f 108//134 116//134 132//134 109//134
f 130//135 131//135 116//135 115//135
f 128//136 129//136 125//136 124//136
f 127//137 128//137 124//137 123//137
f 126//138 127//138 123//138 122//138
f 135//139 136//139 126//139 122//139
f 136//140 114//140 112//140 126//140
