# Blender v2.79 (sub 0) OBJ File: 'Plant_4.blend'
# www.blender.org
mtllib Plant_4.mtl
o Plant_4_Plane.006
v 0.294462 0.802170 -0.565055
v 0.371750 0.782303 -0.782088
v 0.159952 0.312478 -1.116073
v 0.353827 0.693995 -0.959166
v 0.269269 0.625345 -1.095070
v 0.148009 0.804795 -0.516441
v 0.062173 0.497606 -1.121811
v 0.044460 0.798652 -0.564897
v 0.080233 0.726235 -0.859964
v 0.068393 0.619794 -1.069857
v -0.065574 0.788091 -0.658165
v 0.015655 0.000000 -0.102970
v 0.009685 0.195155 -0.143776
v 0.015444 0.522401 -0.104414
v -0.014824 0.742006 -0.311289
v 0.304173 0.441345 -1.139003
v -0.152520 0.146591 -1.042458
v -0.443998 0.802170 -0.457012
v -0.580224 0.782303 -0.642807
v -0.472984 0.312478 -1.023469
v -0.613782 0.693995 -0.817597
v -0.571701 0.625345 -0.972029
v -0.289757 0.804795 -0.452392
v -0.380947 0.497606 -1.056979
v -0.204430 0.798652 -0.528482
v -0.323235 0.726235 -0.800933
v -0.372022 0.619794 -1.005421
v -0.125728 0.788091 -0.649364
v -0.044498 0.000000 -0.094169
v -0.050468 0.195155 -0.134975
v -0.044709 0.522401 -0.095613
v -0.074977 0.742006 -0.302488
v -0.617729 0.441345 -1.004122
v 0.294697 0.777697 -0.563447
v 0.372443 0.758446 -0.777356
v 0.163616 0.315741 -1.096339
v 0.354763 0.670729 -0.952768
v 0.270586 0.611419 -1.078444
v 0.148244 0.780322 -0.514833
v 0.064841 0.493027 -1.102095
v 0.044696 0.774180 -0.563289
v 0.081293 0.703234 -0.852961
v 0.070106 0.602454 -1.055624
v -0.065107 0.763853 -0.654971
v 0.012815 -0.006093 -0.122380
v 0.006757 0.193874 -0.163786
v 0.012695 0.513861 -0.123200
v -0.015995 0.719499 -0.319294
v 0.305320 0.432782 -1.120058
v -0.149614 0.149857 -1.022599
v -0.443763 0.777697 -0.455404
v -0.579531 0.758446 -0.638074
v -0.470841 0.315741 -1.003513
v -0.612845 0.670729 -0.811199
v -0.568201 0.611419 -0.955723
v -0.289522 0.780322 -0.450785
v -0.377855 0.493027 -1.037325
v -0.204195 0.774180 -0.526874
v -0.322244 0.703234 -0.793920
v -0.369586 0.602454 -0.991294
v -0.125260 0.763853 -0.646170
v -0.047338 -0.006093 -0.113579
v -0.053396 0.193874 -0.154985
v -0.047458 0.513861 -0.114399
v -0.076148 0.719499 -0.310493
v -0.613401 0.432782 -0.985642
v 0.440508 0.559078 0.164438
v 0.606458 0.545232 0.201370
v 0.831858 0.217784 0.015988
v 0.734518 0.483685 0.172194
v 0.826383 0.435839 0.097950
v 0.391632 0.560908 0.061588
v 0.827198 0.346810 -0.056141
v 0.417734 0.556627 -0.018638
v 0.637070 0.506155 -0.019182
v 0.789713 0.431971 -0.046877
v 0.476067 0.549266 -0.107675
v 0.076829 0.000000 0.002133
v 0.106173 0.136015 -0.005938
v 0.077868 0.364091 0.001847
v 0.226630 0.517147 -0.039069
v 0.861722 0.307599 0.119530
v 0.749625 0.102168 -0.206180
v 0.294454 0.559078 -0.366585
v 0.418175 0.545232 -0.483189
v 0.717723 0.210278 -0.389859
v 0.543142 0.483685 -0.523607
v 0.660054 0.435839 -0.506786
v 0.305050 0.560908 -0.253206
v 0.739556 0.346810 -0.374786
v 0.368508 0.556627 -0.197614
v 0.557271 0.506155 -0.309314
v 0.702606 0.431971 -0.363577
v 0.464169 0.549266 -0.150931
v 0.064932 0.000000 -0.041123
v 0.094275 0.136015 -0.049194
v 0.065971 0.364091 -0.041409
v 0.214733 0.517147 -0.082325
v 0.679386 0.307599 -0.543403
v 0.439352 0.542022 0.164756
v 0.603055 0.528605 0.202306
v 0.817737 0.220058 0.020460
v 0.729917 0.467470 0.173460
v 0.814327 0.426133 0.100422
v 0.390476 0.543852 0.061906
v 0.813000 0.343619 -0.052400
v 0.416578 0.539571 -0.018320
v 0.632037 0.490124 -0.017772
v 0.779445 0.419885 -0.044332
v 0.473770 0.532373 -0.107044
v 0.090787 -0.004247 -0.001706
v 0.120562 0.135122 -0.009896
v 0.091377 0.358139 -0.001869
v 0.232386 0.501460 -0.040652
v 0.847951 0.301631 0.122088
v 0.735344 0.104444 -0.202252
v 0.293298 0.542022 -0.366267
v 0.414771 0.528605 -0.482253
v 0.703302 0.212552 -0.386481
v 0.538541 0.467470 -0.522342
v 0.648430 0.426133 -0.502744
v 0.303894 0.543852 -0.252888
v 0.725443 0.343619 -0.370740
v 0.367352 0.539571 -0.197296
v 0.552225 0.490124 -0.307953
v 0.692481 0.419885 -0.360512
v 0.461873 0.532373 -0.150299
v 0.078890 -0.004247 -0.044962
v 0.108665 0.135122 -0.053152
v 0.079480 0.358139 -0.045124
v 0.220489 0.501460 -0.083908
v 0.666245 0.301631 -0.538558
v -0.532603 0.717350 -0.192447
v -0.732930 0.702786 -0.234819
v -1.053151 0.443197 0.005942
v -0.886785 0.638049 -0.198057
v -0.969478 0.604639 -0.115211
v -0.472435 0.719274 -0.069202
v -0.974532 0.567448 0.072102
v -0.502852 0.714771 0.027747
v -0.792580 0.661684 -0.045400
v -0.923968 0.601097 0.058884
v -0.571974 0.707029 0.135717
v -0.092555 0.000000 -0.001593
v -0.127791 0.143065 0.008499
v -0.093802 0.382962 -0.001236
v -0.272441 0.673245 0.049928
v -1.041823 0.524010 -0.132299
v -1.017185 0.327205 0.291333
v -0.349967 0.717350 0.445224
v -0.497487 0.702786 0.587224
v -0.896613 0.443197 0.552492
v -0.647476 0.638049 0.637486
v -0.761490 0.604639 0.610979
v -0.364167 0.719274 0.308814
v -0.864940 0.567448 0.454743
v -0.441296 0.714771 0.242668
v -0.667645 0.661684 0.454504
v -0.815045 0.601097 0.439188
v -0.557096 0.707029 0.187661
v -0.077677 0.000000 0.050350
v -0.112914 0.143065 0.060442
v -0.078925 0.382962 0.050707
v -0.257564 0.673245 0.101871
v -0.813818 0.524010 0.663776
v -0.531214 0.699409 -0.192844
v -0.728843 0.685297 -0.235990
v -1.037610 0.435727 0.000780
v -0.881260 0.620993 -0.199640
v -0.956430 0.592544 -0.117928
v -0.471047 0.701334 -0.069600
v -0.961812 0.555190 0.068657
v -0.501464 0.696831 0.027349
v -0.786537 0.644822 -0.047163
v -0.913378 0.586796 0.056188
v -0.569215 0.689261 0.134927
v -0.109316 -0.004467 0.003207
v -0.145070 0.142125 0.013448
v -0.110024 0.376702 0.003410
v -0.279353 0.656746 0.051908
v -1.030968 0.509745 -0.133922
v -1.001445 0.319730 0.286825
v -0.348578 0.699409 0.444827
v -0.493401 0.685297 0.586053
v -0.880696 0.435727 0.548644
v -0.641951 0.620993 0.635904
v -0.748981 0.592544 0.606376
v -0.362778 0.701334 0.308417
v -0.852324 0.555190 0.450932
v -0.439908 0.696831 0.242270
v -0.661585 0.644822 0.452800
v -0.804633 0.586796 0.435869
v -0.554338 0.689261 0.186871
v -0.094439 -0.004467 0.055150
v -0.130193 0.142125 0.065391
v -0.095147 0.376702 0.055353
v -0.264476 0.656746 0.103851
v -0.803750 0.509745 0.659406
v -0.331655 0.588055 0.459028
v -0.427548 0.573491 0.639944
v -0.284262 0.229072 0.960905
v -0.434569 0.508755 0.797975
v -0.377694 0.458429 0.928369
v -0.196608 0.589980 0.435120
v -0.199013 0.364785 0.978531
v -0.111781 0.585477 0.491055
v -0.181204 0.532389 0.745937
v -0.197798 0.454360 0.932042
v -0.027016 0.577735 0.587233
v -0.027016 0.000000 0.088538
v -0.027016 0.143065 0.125192
v -0.027016 0.382962 0.089836
v -0.027016 0.543951 0.275657
v -0.414042 0.323541 0.962514
v 0.000000 0.107463 0.936371
v 0.331655 0.588055 0.459028
v 0.427548 0.573491 0.639944
v 0.284262 0.229072 0.960905
v 0.434569 0.508755 0.797975
v 0.377694 0.458429 0.928369
v 0.196608 0.589980 0.435119
v 0.199013 0.364785 0.978531
v 0.111781 0.585477 0.491055
v 0.181204 0.532389 0.745937
v 0.197798 0.454360 0.932042
v 0.027016 0.577735 0.587233
v 0.027016 0.000000 0.088538
v 0.027016 0.143065 0.125192
v 0.027016 0.382962 0.089836
v 0.027016 0.543951 0.275657
v 0.414042 0.323541 0.962514
v -0.331655 0.570115 0.457583
v -0.427548 0.556002 0.635693
v -0.284946 0.231464 0.943079
v -0.434569 0.491699 0.792227
v -0.376713 0.448219 0.913579
v -0.196608 0.572040 0.433675
v -0.198822 0.361429 0.960850
v -0.111781 0.567537 0.489611
v -0.181235 0.515528 0.739642
v -0.197473 0.441647 0.919305
v -0.027016 0.559966 0.584364
v -0.027016 -0.004467 0.105973
v -0.027016 0.142125 0.143166
v -0.027016 0.376702 0.106710
v -0.027016 0.527451 0.282848
v -0.412613 0.317265 0.945706
v 0.000000 0.109857 0.918533
v 0.331655 0.570115 0.457583
v 0.427548 0.556002 0.635693
v 0.284946 0.231464 0.943079
v 0.434569 0.491699 0.792227
v 0.376713 0.448219 0.913579
v 0.196608 0.572040 0.433675
v 0.198822 0.361429 0.960850
v 0.111781 0.567537 0.489611
v 0.181235 0.515528 0.739642
v 0.197473 0.441647 0.919305
v 0.027016 0.559966 0.584364
v 0.027016 -0.004467 0.105973
v 0.027016 0.142125 0.143166
v 0.027016 0.376702 0.106710
v 0.027016 0.527451 0.282848
v 0.412613 0.317265 0.945706
vn 0.1435 0.1307 0.9810
vn -0.0141 0.9953 -0.0961
vn -0.1331 0.3935 -0.9096
vn -0.0578 0.2934 -0.9542
vn -0.0807 0.8908 -0.4472
vn 0.0189 0.9915 0.1290
vn 0.1048 0.6895 0.7166
vn 0.1437 -0.1207 0.9822
vn -0.0656 0.8914 -0.4484
vn 0.1416 0.2068 0.9681
vn -0.2180 0.2934 -0.9308
vn -0.0508 0.8908 -0.4516
vn -0.0548 0.9257 -0.3742
vn 0.0141 -0.9954 0.0950
vn 0.1331 -0.3928 0.9099
vn 0.0551 -0.2868 0.9564
vn 0.0900 -0.8937 0.4395
vn -0.0188 -0.9916 -0.1283
vn 0.0143 -0.9954 0.0950
vn -0.1042 -0.6939 -0.7125
vn -0.1436 0.1271 -0.9814
vn 0.0646 -0.8949 0.4415
vn -0.1417 -0.2048 -0.9685
vn 0.0137 -0.9954 0.0950
vn 0.2212 -0.2868 0.9321
vn 0.0397 -0.8937 0.4468
vn 0.0135 -0.9954 0.0951
vn 0.0549 -0.9253 0.3753
vn 0.3154 0.0652 0.9467
vn 0.9409 0.0617 0.3329
vn 0.9944 0.0095 -0.1052
vn -0.3572 -0.2740 -0.8929
vn -0.6460 0.0656 0.7605
vn -0.4259 0.0552 0.9031
vn 0.4793 -0.8752 0.0648
vn 0.7883 0.3668 0.4940
vn 0.8738 0.4700 -0.1246
vn 0.9895 -0.0000 -0.1448
vn 0.9830 0.1782 0.0446
vn -0.2446 -0.9251 -0.2903
vn -0.0310 0.0652 0.9974
vn -0.8061 0.0617 0.5885
vn -0.9829 0.0095 0.1841
vn 0.0865 -0.2740 -0.9578
vn 0.8368 0.0656 0.5435
vn 0.6668 0.0552 0.7432
vn -0.4407 -0.8752 0.1994
vn -0.6137 0.3668 0.6991
vn -0.8729 0.4700 0.1310
vn 0.0429 -0.9550 0.2935
vn -0.9895 0.0000 0.1448
vn -0.9290 0.1782 0.3243
vn 0.1511 -0.9252 -0.3482
vn -0.1436 -0.1266 -0.9815
vn -0.9542 0.1392 0.2647
vn 0.0885 0.9958 -0.0243
vn 0.8782 0.4128 -0.2415
vn 0.9351 0.3091 -0.1736
vn 0.4144 0.9009 -0.1290
vn -0.1188 0.9924 0.0327
vn -0.6791 0.7099 0.1868
vn -0.9563 -0.1277 0.2630
vn 0.4173 0.9015 -0.1148
vn -0.9409 0.2183 0.2588
vn 0.8923 0.3091 -0.3290
vn 0.4221 0.9009 -0.1011
vn 0.3471 0.9330 -0.0955
vn -0.0874 -0.9959 0.0242
vn -0.8785 -0.4121 0.2416
vn -0.9377 -0.3022 0.1713
vn -0.4059 -0.9036 0.1368
vn 0.1182 -0.9925 -0.0325
vn -0.0874 -0.9959 0.0244
vn 0.6749 -0.7142 -0.1856
vn 0.9554 0.1345 -0.2628
vn -0.4107 -0.9047 0.1130
vn 0.9414 -0.2163 -0.2589
vn -0.0875 -0.9959 0.0239
vn -0.8934 -0.3022 0.3324
vn -0.4188 -0.9036 0.0900
vn -0.0876 -0.9959 0.0237
vn -0.3481 -0.9326 0.0957
vn -0.9006 0.0690 0.4292
vn -0.2148 0.0653 0.9745
vn 0.2265 0.0101 0.9740
vn 0.8385 -0.2888 -0.4621
vn -0.8339 0.0695 -0.5476
vn -0.9484 0.0585 -0.3117
vn -0.0052 -0.8865 0.4627
vn -0.3903 0.3853 0.8362
vn 0.2279 0.4911 0.8408
vn 0.2652 0.0000 0.9642
vn 0.0763 0.1884 0.9791
vn 0.2457 -0.9324 -0.2650
vn -0.9934 0.0690 0.0917
vn -0.6829 0.0654 -0.7276
vn -0.3034 0.0101 -0.9528
vn 0.9569 -0.2888 -0.0317
vn -0.4365 0.0695 0.8970
vn -0.6556 0.0585 0.7528
vn -0.2516 -0.8529 -0.4575
vn -0.7630 0.3853 -0.5190
vn -0.2534 0.1517 -0.9554
vn -0.2714 -0.9596 0.0747
vn -0.2652 0.0000 -0.9642
vn -0.4351 0.1884 -0.8804
vn 0.3466 -0.9324 0.1021
vn 0.9548 -0.1348 -0.2649
vn 0.8843 -0.3923 -0.2533
vn -0.0771 0.9968 0.0221
vn -0.5205 0.8407 0.1491
vn -0.6777 0.7246 0.1256
vn -0.3437 0.9327 0.1088
vn 0.1036 0.9942 -0.0297
vn 0.8097 0.5391 -0.2319
vn 0.9511 -0.1458 -0.2724
vn -0.3701 0.9238 0.0983
vn 0.9313 0.2482 -0.2667
vn -0.6414 0.7246 0.2522
vn -0.3872 0.9163 0.1018
vn -0.2858 0.9547 0.0834
vn 0.0762 -0.9969 -0.0220
vn 0.5137 -0.8453 -0.1471
vn 0.6777 -0.7246 -0.1255
vn 0.3352 -0.9353 -0.1137
vn -0.1031 -0.9942 0.0295
vn 0.0762 -0.9968 -0.0221
vn -0.8138 -0.5324 0.2331
vn -0.9499 0.1536 0.2721
vn 0.3667 -0.9252 -0.0974
vn -0.9318 -0.2459 0.2669
vn 0.0763 -0.9969 -0.0217
vn 0.6414 -0.7246 -0.2523
vn 0.3838 -0.9186 -0.0943
vn 0.0764 -0.9968 -0.0216
vn 0.2863 -0.9545 -0.0836
vn 0.8953 0.0790 -0.4383
vn 0.2044 0.0748 -0.9760
vn -0.2368 0.0115 -0.9715
vn -0.7826 -0.3196 0.5343
vn 0.8389 0.0795 0.5384
vn 0.9511 0.0669 0.3015
vn -0.4825 -0.8311 -0.2765
vn 0.2685 0.3177 -0.9094
vn 0.0489 0.4574 -0.8879
vn -0.2753 -0.0000 -0.9613
vn 0.0206 0.1806 -0.9833
vn -0.6602 -0.6566 0.3647
vn 0.9916 0.0790 -0.1021
vn 0.6901 0.0748 0.7199
vn 0.3134 0.0115 0.9495
vn -0.9428 -0.3278 0.0600
vn 0.4267 0.0795 -0.9009
vn 0.6473 0.0669 -0.7593
vn -0.2630 -0.8311 0.4900
vn 0.7465 0.3563 0.5620
vn 0.5115 0.4574 0.7274
vn 0.2386 -0.9687 -0.0683
vn 0.2753 -0.0000 0.9613
vn 0.5380 0.1806 0.8234
vn -0.7532 -0.6566 0.0401
vn -0.8824 0.3970 0.2527
vn 0.0000 0.1579 -0.9875
vn 0.0000 0.9968 0.0802
vn 0.0000 0.4607 0.8876
vn -0.0794 0.3488 0.9338
vn 0.0129 0.9217 0.3876
vn 0.0000 0.9942 -0.1078
vn -0.0000 0.7558 -0.6548
vn -0.0000 -0.1458 -0.9893
vn 0.0000 0.9222 0.3867
vn -0.0000 0.2482 -0.9687
vn 0.0794 0.3488 0.9338
vn -0.0129 0.9217 0.3876
vn 0.0000 0.9476 0.3193
vn -0.0001 -0.9969 -0.0793
vn 0.0000 -0.4599 -0.8880
vn 0.0824 -0.3412 -0.9364
vn -0.0217 -0.9239 -0.3819
vn -0.0000 -0.9942 0.1072
vn -0.0003 -0.9968 -0.0794
vn 0.0000 -0.7597 0.6502
vn 0.0000 0.1536 0.9881
vn -0.0000 -0.9249 -0.3803
vn 0.0000 -0.2459 0.9693
vn 0.0001 -0.9969 -0.0793
vn -0.0824 -0.3412 -0.9364
vn 0.0217 -0.9239 -0.3819
vn 0.0003 -0.9968 -0.0794
vn 0.0000 -0.9473 -0.3203
vn -0.1749 0.0790 -0.9814
vn -0.8820 0.0748 -0.4652
vn -0.9991 0.0115 -0.0399
vn 0.2204 -0.3265 0.9191
vn 0.7486 0.0795 -0.6583
vn 0.5517 0.0669 -0.8313
vn -0.3987 -0.9099 -0.1145
vn -0.6871 0.4313 -0.5847
vn -0.8402 0.5423 -0.0031
vn -1.0000 0.0000 0.0000
vn -0.9590 0.2145 -0.1850
vn 0.1689 -0.9472 0.2725
vn 0.1749 0.0790 -0.9814
vn 0.8820 0.0748 -0.4652
vn 0.9991 0.0115 -0.0399
vn -0.2204 -0.3265 0.9191
vn -0.7486 0.0795 -0.6583
vn -0.5517 0.0669 -0.8313
vn 0.3987 -0.9099 -0.1145
vn 0.6871 0.4313 -0.5847
vn 0.8402 0.5423 -0.0031
vn 0.0000 -0.9687 -0.2482
vn 1.0000 0.0000 0.0000
vn 0.9590 0.2145 -0.1850
vn -0.1689 -0.9472 0.2725
vn 0.0000 -0.1529 0.9882
usemtl Green
s off
f 40//1 57//1 53//1 50//1 36//1
f 2//2 8//2 6//2 1//2
f 7//3 24//3 27//3 10//3
f 7//4 10//4 5//4 16//4
f 5//5 10//5 9//5
f 28//6 32//6 15//6 11//6
f 2//2 11//2 8//2
f 32//7 31//7 14//7 15//7
f 31//8 30//8 13//8 14//8
f 26//9 9//9 10//9 27//9
f 30//10 29//10 12//10 13//10
f 19//2 18//2 23//2 25//2
f 24//11 33//11 22//11 27//11
f 22//12 26//12 27//12
f 19//2 25//2 28//2
f 26//13 21//13 19//13 28//13 11//13 2//13 4//13 9//13
f 35//14 34//14 39//14 41//14
f 40//15 43//15 60//15 57//15
f 40//16 49//16 38//16 43//16
f 38//17 42//17 43//17
f 61//18 44//18 48//18 65//18
f 35//19 41//19 44//19
f 65//20 48//20 47//20 64//20
f 64//21 47//21 46//21 63//21
f 59//22 60//22 43//22 42//22
f 63//23 46//23 45//23 62//23
f 52//24 58//24 56//24 51//24
f 57//25 60//25 55//25 66//25
f 55//26 60//26 59//26
f 52//27 61//27 58//27
f 59//28 42//28 37//28 35//28 44//28 61//28 52//28 54//28
f 1//29 6//29 39//29 34//29
f 2//30 1//30 34//30 35//30
f 4//31 2//31 35//31 37//31
f 9//32 4//32 37//32 42//32
f 8//33 11//33 44//33 41//33
f 6//34 8//34 41//34 39//34
f 17//35 3//35 36//35 50//35
f 5//36 9//36 42//36 38//36
f 3//37 7//37 40//37 36//37
f 11//38 15//38 48//38 44//38
f 13//38 12//38 45//38 46//38
f 14//38 13//38 46//38 47//38
f 15//38 14//38 47//38 48//38
f 16//39 5//39 38//39 49//39
f 7//40 16//40 49//40 40//40
f 23//41 18//41 51//41 56//41
f 18//42 19//42 52//42 51//42
f 19//43 21//43 54//43 52//43
f 21//44 26//44 59//44 54//44
f 28//45 25//45 58//45 61//45
f 25//46 23//46 56//46 58//46
f 20//47 17//47 50//47 53//47
f 26//48 22//48 55//48 59//48
f 24//49 20//49 53//49 57//49
f 12//50 29//50 62//50 45//50
f 32//51 28//51 61//51 65//51
f 29//51 30//51 63//51 62//51
f 30//51 31//51 64//51 63//51
f 31//51 32//51 65//51 64//51
f 22//52 33//52 66//52 55//52
f 33//53 24//53 57//53 66//53
f 17//54 20//54 24//54 7//54 3//54
f 106//55 123//55 119//55 116//55 102//55
f 68//56 74//56 72//56 67//56
f 73//57 90//57 93//57 76//57
f 73//58 76//58 71//58 82//58
f 71//59 76//59 75//59
f 94//60 98//60 81//60 77//60
f 68//56 77//56 74//56
f 98//61 97//61 80//61 81//61
f 97//62 96//62 79//62 80//62
f 92//63 75//63 76//63 93//63
f 96//64 95//64 78//64 79//64
f 85//56 84//56 89//56 91//56
f 90//65 99//65 88//65 93//65
f 88//66 92//66 93//66
f 85//56 91//56 94//56
f 92//67 87//67 85//67 94//67 77//67 68//67 70//67 75//67
f 101//68 100//68 105//68 107//68
f 106//69 109//69 126//69 123//69
f 106//70 115//70 104//70 109//70
f 104//71 108//71 109//71
f 127//72 110//72 114//72 131//72
f 101//73 107//73 110//73
f 131//74 114//74 113//74 130//74
f 130//75 113//75 112//75 129//75
f 125//76 126//76 109//76 108//76
f 129//77 112//77 111//77 128//77
f 118//78 124//78 122//78 117//78
f 123//79 126//79 121//79 132//79
f 121//80 126//80 125//80
f 118//81 127//81 124//81
f 125//82 108//82 103//82 101//82 110//82 127//82 118//82 120//82
f 67//83 72//83 105//83 100//83
f 68//84 67//84 100//84 101//84
f 70//85 68//85 101//85 103//85
f 75//86 70//86 103//86 108//86
f 74//87 77//87 110//87 107//87
f 72//88 74//88 107//88 105//88
f 83//89 69//89 102//89 116//89
f 71//90 75//90 108//90 104//90
f 69//91 73//91 106//91 102//91
f 77//92 81//92 114//92 110//92
f 79//92 78//92 111//92 112//92
f 80//92 79//92 112//92 113//92
f 81//92 80//92 113//92 114//92
f 82//93 71//93 104//93 115//93
f 73//94 82//94 115//94 106//94
f 89//95 84//95 117//95 122//95
f 84//96 85//96 118//96 117//96
f 85//97 87//97 120//97 118//97
f 87//98 92//98 125//98 120//98
f 94//99 91//99 124//99 127//99
f 91//100 89//100 122//100 124//100
f 86//101 83//101 116//101 119//101
f 92//102 88//102 121//102 125//102
f 90//103 86//103 119//103 123//103
f 78//104 95//104 128//104 111//104
f 98//105 94//105 127//105 131//105
f 95//105 96//105 129//105 128//105
f 96//105 97//105 130//105 129//105
f 97//105 98//105 131//105 130//105
f 88//106 99//106 132//106 121//106
f 99//107 90//107 123//107 132//107
f 83//108 86//108 90//108 73//108 69//108
f 172//109 189//109 185//109 182//109 168//109
f 134//110 140//110 138//110 133//110
f 139//111 156//111 159//111 142//111
f 139//112 142//112 137//112 148//112
f 137//113 142//113 141//113
f 160//114 164//114 147//114 143//114
f 134//110 143//110 140//110
f 164//115 163//115 146//115 147//115
f 163//116 162//116 145//116 146//116
f 158//117 141//117 142//117 159//117
f 162//118 161//118 144//118 145//118
f 151//110 150//110 155//110 157//110
f 156//119 165//119 154//119 159//119
f 154//120 158//120 159//120
f 151//110 157//110 160//110
f 158//121 153//121 151//121 160//121 143//121 134//121 136//121 141//121
f 167//122 166//122 171//122 173//122
f 172//123 175//123 192//123 189//123
f 172//124 181//124 170//124 175//124
f 170//125 174//125 175//125
f 193//126 176//126 180//126 197//126
f 167//127 173//127 176//127
f 197//128 180//128 179//128 196//128
f 196//129 179//129 178//129 195//129
f 191//130 192//130 175//130 174//130
f 195//131 178//131 177//131 194//131
f 184//132 190//132 188//132 183//132
f 189//133 192//133 187//133 198//133
f 187//134 192//134 191//134
f 184//135 193//135 190//135
f 191//136 174//136 169//136 167//136 176//136 193//136 184//136 186//136
f 133//137 138//137 171//137 166//137
f 134//138 133//138 166//138 167//138
f 136//139 134//139 167//139 169//139
f 141//140 136//140 169//140 174//140
f 140//141 143//141 176//141 173//141
f 138//142 140//142 173//142 171//142
f 149//143 135//143 168//143 182//143
f 137//144 141//144 174//144 170//144
f 135//145 139//145 172//145 168//145
f 143//146 147//146 180//146 176//146
f 145//146 144//146 177//146 178//146
f 146//146 145//146 178//146 179//146
f 147//146 146//146 179//146 180//146
f 148//147 137//147 170//147 181//147
f 139//148 148//148 181//148 172//148
f 155//149 150//149 183//149 188//149
f 150//150 151//150 184//150 183//150
f 151//151 153//151 186//151 184//151
f 153//152 158//152 191//152 186//152
f 160//153 157//153 190//153 193//153
f 157//154 155//154 188//154 190//154
f 152//155 149//155 182//155 185//155
f 158//156 154//156 187//156 191//156
f 156//157 152//157 185//157 189//157
f 144//158 161//158 194//158 177//158
f 164//159 160//159 193//159 197//159
f 161//159 162//159 195//159 194//159
f 162//159 163//159 196//159 195//159
f 163//159 164//159 197//159 196//159
f 154//160 165//160 198//160 187//160
f 165//161 156//161 189//161 198//161
f 149//162 152//162 156//162 139//162 135//162
f 238//163 255//163 251//163 248//163 234//163
f 200//164 206//164 204//164 199//164
f 205//165 222//165 225//165 208//165
f 205//166 208//166 203//166 214//166
f 203//167 208//167 207//167
f 226//168 230//168 213//168 209//168
f 200//164 209//164 206//164
f 230//169 229//169 212//169 213//169
f 229//170 228//170 211//170 212//170
f 224//171 207//171 208//171 225//171
f 228//172 227//172 210//172 211//172
f 217//164 216//164 221//164 223//164
f 222//173 231//173 220//173 225//173
f 220//174 224//174 225//174
f 217//164 223//164 226//164
f 224//175 219//175 217//175 226//175 209//175 200//175 202//175 207//175
f 233//176 232//176 237//176 239//176
f 238//177 241//177 258//177 255//177
f 238//178 247//178 236//178 241//178
f 236//179 240//179 241//179
f 259//180 242//180 246//180 263//180
f 233//181 239//181 242//181
f 263//182 246//182 245//182 262//182
f 262//183 245//183 244//183 261//183
f 257//184 258//184 241//184 240//184
f 261//185 244//185 243//185 260//185
f 250//186 256//186 254//186 249//186
f 255//187 258//187 253//187 264//187
f 253//188 258//188 257//188
f 250//189 259//189 256//189
f 257//190 240//190 235//190 233//190 242//190 259//190 250//190 252//190
f 199//191 204//191 237//191 232//191
f 200//192 199//192 232//192 233//192
f 202//193 200//193 233//193 235//193
f 207//194 202//194 235//194 240//194
f 206//195 209//195 242//195 239//195
f 204//196 206//196 239//196 237//196
f 215//197 201//197 234//197 248//197
f 203//198 207//198 240//198 236//198
f 201//199 205//199 238//199 234//199
f 209//200 213//200 246//200 242//200
f 211//200 210//200 243//200 244//200
f 212//200 211//200 244//200 245//200
f 213//200 212//200 245//200 246//200
f 214//201 203//201 236//201 247//201
f 205//202 214//202 247//202 238//202
f 221//203 216//203 249//203 254//203
f 216//204 217//204 250//204 249//204
f 217//205 219//205 252//205 250//205
f 219//206 224//206 257//206 252//206
f 226//207 223//207 256//207 259//207
f 223//208 221//208 254//208 256//208
f 218//209 215//209 248//209 251//209
f 224//210 220//210 253//210 257//210
f 222//211 218//211 251//211 255//211
f 210//212 227//212 260//212 243//212
f 230//213 226//213 259//213 263//213
f 227//213 228//213 261//213 260//213
f 228//213 229//213 262//213 261//213
f 229//213 230//213 263//213 262//213
f 220//214 231//214 264//214 253//214
f 231//215 222//215 255//215 264//215
f 215//216 218//216 222//216 205//216 201//216
