# Blender v2.79 (sub 0) OBJ File: 'Grass.blend'
# www.blender.org
mtllib Grass.mtl
o Grass_Plane.005
v 0.073138 0.666307 0.015454
v 0.049776 -0.015862 0.018910
v 0.073138 0.666307 -0.015454
v 0.049776 -0.015862 -0.018910
v 0.049775 0.996921 0.000000
v -0.159212 0.479759 -0.009667
v -0.178443 -0.015862 -0.023376
v -0.137780 0.479759 -0.031938
v -0.152217 -0.015862 -0.050627
v -0.165330 0.689435 -0.037002
v -0.073182 0.666307 -0.001125
v -0.067546 -0.015862 -0.024060
v -0.044570 0.666307 0.010564
v -0.032534 -0.015862 -0.009756
v -0.050040 0.996921 -0.016908
v -0.061732 0.666307 -0.102999
v -0.044530 -0.015862 -0.119180
v -0.044077 0.666307 -0.077629
v -0.022927 -0.015862 -0.088137
v -0.033729 0.996921 -0.103659
v 0.060598 0.479759 -0.123759
v 0.083395 -0.015862 -0.117591
v 0.048246 0.479759 -0.095427
v 0.068280 -0.015862 -0.082922
v 0.075838 0.689435 -0.100256
v -0.014487 0.666307 0.057917
v -0.007457 -0.015862 0.080464
v -0.045023 0.666307 0.062700
v -0.044822 -0.015862 0.086316
v -0.026140 0.996921 0.083390
v 0.132867 0.479759 0.050473
v 0.152555 -0.015862 0.063516
v 0.112210 0.479759 0.073465
v 0.127279 -0.015862 0.091650
v 0.139917 0.689435 0.077583
v 0.045005 0.666307 0.128533
v 0.062180 -0.015862 0.112323
v 0.062703 0.666307 0.153874
v 0.083835 -0.015862 0.143330
v 0.073007 0.996921 0.127827
v -0.174100 0.666307 0.052046
v -0.154907 -0.015862 0.038285
v -0.159960 0.666307 0.079530
v -0.137604 -0.015862 0.071916
v -0.146256 0.996921 0.055100
v -0.095423 0.479759 0.135541
v -0.076230 -0.015862 0.121779
v -0.081282 0.479759 0.163025
v -0.058927 -0.015862 0.155410
v -0.067578 0.689435 0.138594
v 0.147462 0.666307 -0.054080
v 0.159185 -0.015862 -0.033578
v 0.118674 0.666307 -0.042830
v 0.123958 -0.015862 -0.019812
v 0.141571 0.996921 -0.026695
v -0.148098 0.666307 -0.164192
v -0.126433 -0.015862 -0.154793
v -0.164417 0.666307 -0.137943
v -0.146401 -0.015862 -0.122673
v -0.136417 0.996921 -0.138733
v 0.054453 0.666102 0.015454
v 0.031101 -0.015217 0.018910
v 0.054453 0.666102 -0.015454
v 0.031100 -0.015217 -0.018910
v 0.031136 0.995591 0.000000
v -0.177759 0.479492 -0.009954
v -0.196952 -0.014640 -0.023662
v -0.156313 0.479000 -0.032225
v -0.170726 -0.014640 -0.050914
v -0.183662 0.686573 -0.037286
v -0.055357 0.665404 -0.001828
v -0.049767 -0.014237 -0.024760
v -0.026730 0.665815 0.009861
v -0.014756 -0.014237 -0.010456
v -0.032475 0.993607 -0.017600
v -0.043121 0.665955 -0.103207
v -0.025933 -0.015079 -0.119389
v -0.025464 0.666103 -0.077838
v -0.004329 -0.015079 -0.088345
v -0.015184 0.995309 -0.103866
v 0.079255 0.479540 -0.123628
v 0.102028 -0.014895 -0.117460
v 0.066898 0.479301 -0.095296
v 0.086913 -0.014895 -0.082791
v 0.094358 0.687163 -0.100126
v 0.000007 0.665181 0.059407
v 0.006851 -0.012665 0.081934
v -0.030567 0.664552 0.064186
v -0.030515 -0.012665 0.087786
v -0.012463 0.990615 0.084795
v 0.151431 0.479502 0.050742
v 0.171084 -0.014677 0.063784
v 0.130763 0.479038 0.073734
v 0.145808 -0.014677 0.091918
v 0.158279 0.686658 0.077848
v 0.063615 0.665954 0.128324
v 0.080777 -0.015078 0.112114
v 0.081315 0.666103 0.153664
v 0.102432 -0.015078 0.143121
v 0.091552 0.995307 0.127618
v -0.155456 0.666004 0.051892
v -0.136274 -0.015138 0.038130
v -0.141314 0.666116 0.079376
v -0.118972 -0.015138 0.071761
v -0.127668 0.995430 0.054946
v -0.076783 0.479259 0.135386
v -0.057610 -0.014866 0.121625
v -0.062637 0.479539 0.162870
v -0.040307 -0.014866 0.155256
v -0.049077 0.687095 0.138441
v 0.165228 0.665794 -0.053348
v 0.176886 -0.014181 -0.032849
v 0.136424 0.665370 -0.042099
v 0.141659 -0.014181 -0.019083
v 0.159046 0.993496 -0.025975
v -0.129471 0.666109 -0.164006
v -0.107820 -0.015105 -0.154607
v -0.145791 0.665976 -0.137757
v -0.127788 -0.015105 -0.122487
v -0.117853 0.995361 -0.138547
vn 0.9994 -0.0342 -0.0000
vn 0.9975 0.0705 -0.0000
vn 0.7197 -0.0471 0.6926
vn 0.7161 0.1107 0.6891
vn -0.3780 -0.0342 0.9252
vn -0.3773 0.0705 0.9234
vn -0.8203 -0.0342 0.5709
vn -0.8188 0.0705 0.5698
vn -0.9157 -0.0471 -0.3992
vn -0.9110 0.1107 -0.3972
vn -0.1546 -0.0342 -0.9874
vn -0.1544 0.0705 -0.9855
vn -0.7431 -0.0471 -0.6676
vn -0.7393 0.1107 -0.6642
vn -0.8194 -0.0342 0.5722
vn -0.8178 0.0705 0.5712
vn -0.8887 -0.0342 0.4572
vn -0.8870 0.0705 0.4564
vn -0.8882 -0.0471 0.4570
vn -0.8837 0.1107 0.4547
vn -0.3638 -0.0342 -0.9309
vn -0.3631 0.0705 -0.9291
vn -0.8488 -0.0342 -0.5277
vn -0.8471 0.0705 -0.5267
vn -0.9994 0.0343 0.0000
vn -0.9975 -0.0706 0.0000
vn -0.7194 0.0472 -0.6930
vn -0.7171 -0.1113 -0.6881
vn 0.3777 0.0343 -0.9253
vn 0.3779 -0.0707 -0.9231
vn 0.8203 0.0343 -0.5710
vn 0.8189 -0.0706 -0.5696
vn 0.9156 0.0472 0.3994
vn 0.9113 -0.1112 0.3965
vn 0.1542 0.0344 0.9874
vn 0.1555 -0.0709 0.9853
vn 0.7427 0.0472 0.6679
vn 0.7402 -0.1112 0.6631
vn 0.8193 0.0343 -0.5723
vn 0.8180 -0.0706 -0.5709
vn 0.8887 0.0343 -0.4573
vn 0.8871 -0.0706 -0.4562
vn 0.8881 0.0472 -0.4572
vn 0.8841 -0.1112 -0.4539
vn 0.3635 0.0343 0.9310
vn 0.3638 -0.0707 0.9288
vn 0.8487 0.0343 0.5277
vn 0.8473 -0.0706 0.5264
vn 0.0001 0.0051 1.0000
vn -0.0345 -0.9994 0.0000
vn 0.0001 0.0051 -1.0000
vn -0.0019 0.0466 0.9989
vn -0.0019 0.0466 -0.9989
vn -0.0162 -0.0271 0.9995
vn -0.0648 -0.9959 -0.0624
vn 0.0159 0.0373 -0.9992
vn -0.0263 0.1293 0.9913
vn 0.0176 -0.0219 -0.9996
vn -0.0400 0.0333 -0.9986
vn 0.0814 -0.9766 -0.1993
vn 0.0403 -0.0291 0.9988
vn -0.0446 -0.0447 -0.9980
vn 0.0482 0.0839 0.9953
vn -0.0115 0.0234 -0.9997
vn 0.0417 -0.9987 -0.0290
vn 0.0114 -0.0151 0.9998
vn -0.0113 -0.0010 -0.9999
vn 0.0150 0.0782 0.9968
vn 0.0073 -0.0121 -0.9999
vn 0.0517 -0.9984 0.0225
vn -0.0074 0.0250 0.9997
vn 0.0144 0.1109 -0.9937
vn -0.0053 0.0238 0.9997
vn 0.1045 -0.0319 -0.9940
vn 0.1017 -0.7537 0.6493
vn -0.1039 0.0345 0.9940
vn 0.1231 0.0812 -0.9891
vn -0.1179 -0.0557 0.9915
vn 0.0151 -0.0257 -0.9996
vn 0.0629 -0.9964 0.0565
vn -0.0149 0.0363 0.9992
vn 0.0249 0.1281 -0.9914
vn -0.0161 -0.0176 0.9997
vn -0.0115 0.0235 -0.9997
vn 0.0418 -0.9987 -0.0292
vn 0.0115 -0.0151 0.9998
vn -0.0113 -0.0012 -0.9999
vn -0.0085 0.0199 -0.9998
vn 0.0387 -0.9991 -0.0199
vn 0.0084 -0.0109 0.9999
vn -0.0078 0.0099 -0.9999
vn 0.0116 0.0734 0.9972
vn -0.0086 0.0275 -0.9996
vn 0.0532 -0.9982 -0.0274
vn 0.0086 -0.0150 0.9999
vn -0.0071 0.0156 -0.9999
vn 0.0162 0.1153 0.9932
vn 0.0421 -0.0293 -0.9987
vn 0.0836 -0.9732 0.2140
vn -0.0418 0.0334 0.9986
vn 0.0503 0.0837 -0.9952
vn -0.0468 -0.0456 0.9979
vn 0.0102 -0.0135 -0.9999
vn 0.0404 -0.9989 0.0251
vn -0.0103 0.0221 0.9997
vn 0.0136 0.0765 -0.9970
vn -0.0098 0.0032 0.9999
usemtl Green
s off
f 1//1 2//1 4//1 3//1
f 1//2 3//2 5//2
f 6//3 7//3 9//3 8//3
f 6//4 8//4 10//4
f 11//5 12//5 14//5 13//5
f 11//6 13//6 15//6
f 16//7 17//7 19//7 18//7
f 16//8 18//8 20//8
f 21//9 22//9 24//9 23//9
f 21//10 23//10 25//10
f 26//11 27//11 29//11 28//11
f 26//12 28//12 30//12
f 31//13 32//13 34//13 33//13
f 31//14 33//14 35//14
f 36//15 37//15 39//15 38//15
f 36//16 38//16 40//16
f 41//17 42//17 44//17 43//17
f 41//18 43//18 45//18
f 46//19 47//19 49//19 48//19
f 46//20 48//20 50//20
f 51//21 52//21 54//21 53//21
f 51//22 53//22 55//22
f 56//23 57//23 59//23 58//23
f 56//24 58//24 60//24
f 61//25 63//25 64//25 62//25
f 61//26 65//26 63//26
f 66//27 68//27 69//27 67//27
f 66//28 70//28 68//28
f 71//29 73//29 74//29 72//29
f 71//30 75//30 73//30
f 76//31 78//31 79//31 77//31
f 76//32 80//32 78//32
f 81//33 83//33 84//33 82//33
f 81//34 85//34 83//34
f 86//35 88//35 89//35 87//35
f 86//36 90//36 88//36
f 91//37 93//37 94//37 92//37
f 91//38 95//38 93//38
f 96//39 98//39 99//39 97//39
f 96//40 100//40 98//40
f 101//41 103//41 104//41 102//41
f 101//42 105//42 103//42
f 106//43 108//43 109//43 107//43
f 106//44 110//44 108//44
f 111//45 113//45 114//45 112//45
f 111//46 115//46 113//46
f 116//47 118//47 119//47 117//47
f 116//48 120//48 118//48
f 2//49 1//49 61//49 62//49
f 4//50 2//50 62//50 64//50
f 3//51 4//51 64//51 63//51
f 1//52 5//52 65//52 61//52
f 5//53 3//53 63//53 65//53
f 7//54 6//54 66//54 67//54
f 9//55 7//55 67//55 69//55
f 8//56 9//56 69//56 68//56
f 6//57 10//57 70//57 66//57
f 10//58 8//58 68//58 70//58
f 12//59 11//59 71//59 72//59
f 14//60 12//60 72//60 74//60
f 13//61 14//61 74//61 73//61
f 11//62 15//62 75//62 71//62
f 15//63 13//63 73//63 75//63
f 17//64 16//64 76//64 77//64
f 19//65 17//65 77//65 79//65
f 18//66 19//66 79//66 78//66
f 16//67 20//67 80//67 76//67
f 20//68 18//68 78//68 80//68
f 22//69 21//69 81//69 82//69
f 24//70 22//70 82//70 84//70
f 23//71 24//71 84//71 83//71
f 21//72 25//72 85//72 81//72
f 25//73 23//73 83//73 85//73
f 27//74 26//74 86//74 87//74
f 29//75 27//75 87//75 89//75
f 28//76 29//76 89//76 88//76
f 26//77 30//77 90//77 86//77
f 30//78 28//78 88//78 90//78
f 32//79 31//79 91//79 92//79
f 34//80 32//80 92//80 94//80
f 33//81 34//81 94//81 93//81
f 31//82 35//82 95//82 91//82
f 35//83 33//83 93//83 95//83
f 37//84 36//84 96//84 97//84
f 39//85 37//85 97//85 99//85
f 38//86 39//86 99//86 98//86
f 36//87 40//87 100//87 96//87
f 40//68 38//68 98//68 100//68
f 42//88 41//88 101//88 102//88
f 44//89 42//89 102//89 104//89
f 43//90 44//90 104//90 103//90
f 41//91 45//91 105//91 101//91
f 45//92 43//92 103//92 105//92
f 47//93 46//93 106//93 107//93
f 49//94 47//94 107//94 109//94
f 48//95 49//95 109//95 108//95
f 46//96 50//96 110//96 106//96
f 50//97 48//97 108//97 110//97
f 52//98 51//98 111//98 112//98
f 54//99 52//99 112//99 114//99
f 53//100 54//100 114//100 113//100
f 51//101 55//101 115//101 111//101
f 55//102 53//102 113//102 115//102
f 57//103 56//103 116//103 117//103
f 59//104 57//104 117//104 119//104
f 58//105 59//105 119//105 118//105
f 56//106 60//106 120//106 116//106
f 60//107 58//107 118//107 120//107
