# Blender v2.79 (sub 0) OBJ File: 'Lilypad.blend'
# www.blender.org
mtllib Lilypad.mtl
o Lilypad_Cylinder.016
v 0.024232 -0.011545 0.002833
v 0.043079 -0.011545 -0.594561
v 0.461307 -0.011545 -0.495702
v 0.598598 -0.002869 -0.101129
v 0.569571 -0.011545 0.317685
v 0.199217 -0.002869 0.508403
v -0.218064 -0.011545 0.594561
v -0.545340 -0.011545 0.320378
v -0.598598 -0.011545 -0.095744
v -0.391304 -0.002869 -0.493010
v 0.024232 -0.026891 0.002833
v 0.043079 -0.026891 -0.594561
v 0.461307 -0.026891 -0.495702
v 0.598598 -0.018215 -0.101129
v 0.569571 -0.026891 0.317685
v 0.199217 -0.018215 0.508403
v -0.218064 -0.026891 0.594561
v -0.545340 -0.026891 0.320378
v -0.598598 -0.026891 -0.095744
v -0.391304 -0.018215 -0.493010
v 0.114554 0.138087 -0.222281
v 0.044321 0.137003 -0.254448
v 0.120370 0.041005 -0.160614
v -0.006243 0.039051 -0.218602
v 0.023608 0.001973 -0.036236
v -0.029315 0.001973 -0.070935
v 0.073628 0.187619 -0.227366
v -0.121171 0.138087 -0.221887
v -0.180989 0.137003 -0.173007
v -0.063248 0.041005 -0.199941
v -0.171085 0.039051 -0.111822
v 0.005782 0.001973 -0.058281
v -0.048683 0.001973 -0.026056
v -0.143766 0.187619 -0.187386
v -0.225570 0.138087 -0.021996
v -0.212094 0.137003 0.054069
v -0.178150 0.041005 -0.061845
v -0.153856 0.039051 0.075280
v -0.020815 0.001973 -0.052973
v -0.019265 0.001973 0.010293
v -0.206481 0.187619 0.014562
v -0.098794 0.138087 0.168248
v -0.025423 0.137003 0.192419
v -0.111420 0.041005 0.107607
v 0.020849 0.039051 0.151181
v -0.029064 0.001973 -0.026744
v 0.027385 0.001973 0.001865
v -0.057556 0.187619 0.168758
v 0.108193 0.138087 0.164180
v 0.169475 0.137003 0.117149
v 0.050967 0.041005 0.140477
v 0.161443 0.039051 0.055690
v -0.013707 0.001973 -0.003225
v 0.041717 0.001973 -0.033772
v 0.131831 0.187619 0.130385
v 0.216145 0.138087 0.005270
v 0.218071 0.137003 -0.071956
v 0.161745 0.041005 0.034889
v 0.165217 0.039051 -0.104329
v 0.009321 0.001973 -0.005108
v 0.020388 0.001973 -0.067417
v 0.204711 0.187619 -0.034355
v 0.034893 0.156836 0.049968
v 0.079717 0.156836 -0.003700
v 0.012627 0.064403 0.082089
v 0.107560 0.064403 -0.031576
v 0.002663 0.006531 0.012622
v 0.045430 0.006531 -0.025480
v 0.052468 0.190831 0.018917
v 0.070429 0.156836 -0.073903
v 0.013110 0.156836 -0.113951
v 0.104734 0.064403 -0.053418
v -0.016665 0.064403 -0.138236
v 0.035062 0.006531 -0.042912
v -0.003171 0.006531 -0.072884
v 0.038285 0.190831 -0.088288
v -0.054995 0.156836 -0.099423
v -0.090858 0.156836 -0.039397
v -0.036625 0.064403 -0.134044
v -0.112581 0.064403 -0.006911
v -0.021870 0.006531 -0.071036
v -0.048232 0.006531 -0.021859
v -0.066757 0.190831 -0.065879
v -0.077141 0.156836 0.019906
v -0.018477 0.156836 0.057956
v -0.110757 0.064403 0.001293
v 0.013491 0.064403 0.081881
v -0.043810 0.006531 -0.011283
v -0.003191 0.006531 0.015063
v -0.043797 0.190831 0.033343
v 0.052224 0.121925 0.004950
v 0.058512 0.121925 -0.047003
v 0.042581 0.057786 0.024941
v 0.053917 0.057786 -0.068718
v 0.016777 0.009433 -0.005374
v 0.028113 0.009433 -0.046716
v 0.031580 0.147368 -0.023906
v 0.024089 0.121925 -0.087303
v -0.028212 0.121925 -0.089105
v 0.044835 0.057786 -0.079412
v -0.049452 0.057786 -0.082661
v 0.014503 0.009433 -0.053439
v -0.021711 0.009433 -0.056688
v -0.002887 0.147368 -0.064256
v -0.065059 0.121925 -0.052246
v -0.063132 0.121925 0.000051
v -0.058667 0.057786 -0.073501
v -0.055191 0.057786 0.020778
v -0.032699 0.009433 -0.047912
v -0.029224 0.009433 -0.006297
v -0.040150 0.147368 -0.026980
v -0.030367 0.121925 0.031702
v 0.021965 0.121925 0.031702
v -0.051372 0.057786 0.024530
v 0.042970 0.057786 0.024530
v -0.022140 0.009433 -0.001457
v 0.014095 0.009433 -0.001457
v -0.004201 0.147368 0.007739
v 0.120788 0.134180 -0.235759
v 0.050551 0.133064 -0.267918
v 0.124474 0.028822 -0.169012
v -0.002131 0.026884 -0.227019
v 0.025489 -0.012898 -0.039568
v -0.027434 -0.012898 -0.074267
v 0.079787 0.191314 -0.240938
v -0.130525 0.134180 -0.233420
v -0.190337 0.133064 -0.184534
v -0.068979 0.028822 -0.207324
v -0.176830 0.026884 -0.119222
v 0.003620 -0.012898 -0.061438
v -0.050845 -0.012898 -0.029213
v -0.153236 0.191314 -0.198894
v -0.240201 0.134180 -0.019460
v -0.226717 0.133064 0.056604
v -0.187391 0.028822 -0.060446
v -0.163118 0.026884 0.076684
v -0.024626 -0.012898 -0.052626
v -0.023076 -0.012898 0.010639
v -0.221147 0.191314 0.017213
v -0.103492 0.134180 0.182334
v -0.030120 0.133064 0.206497
v -0.114566 0.028822 0.116409
v 0.017696 0.026884 0.160002
v -0.030564 -0.012898 -0.023224
v 0.025884 -0.012898 0.005385
v -0.062170 0.191314 0.182929
v 0.117191 0.134180 0.175994
v 0.178467 0.133064 0.128955
v 0.056470 0.028822 0.148032
v 0.166959 0.026884 0.063262
v -0.011643 -0.012898 -0.000004
v 0.043781 -0.012898 -0.030551
v 0.140946 0.191314 0.142177
v 0.230989 0.134180 0.005695
v 0.232906 0.133064 -0.071530
v 0.171080 0.028822 0.035356
v 0.174573 0.026884 -0.103862
v 0.013124 -0.012898 -0.004689
v 0.024191 -0.012898 -0.066998
v 0.219611 0.191314 -0.034035
v 0.046641 0.158062 0.059779
v 0.091464 0.158063 0.006112
v 0.023721 0.059831 0.091671
v 0.118658 0.059846 -0.021992
v 0.011417 -0.003270 0.020564
v 0.054184 -0.003270 -0.017538
v 0.064049 0.193679 0.028589
v 0.079198 0.158012 -0.086454
v 0.021878 0.158009 -0.126501
v 0.113216 0.059956 -0.065420
v -0.008184 0.059951 -0.150238
v 0.042009 -0.003173 -0.052573
v 0.003776 -0.003173 -0.082546
v 0.046917 0.193765 -0.100643
v -0.068140 0.157970 -0.107277
v -0.104004 0.157967 -0.047250
v -0.049261 0.059880 -0.141505
v -0.125206 0.059840 -0.014366
v -0.032243 -0.003058 -0.077055
v -0.058605 -0.003058 -0.027878
v -0.079660 0.193973 -0.073588
v -0.085472 0.158020 0.032750
v -0.026807 0.158022 0.070800
v -0.118755 0.059959 0.013624
v 0.005494 0.059953 0.094211
v -0.050297 -0.003147 -0.001281
v -0.009678 -0.003147 0.025065
v -0.051986 0.193873 0.045970
v 0.067258 0.124460 0.006770
v 0.073547 0.124460 -0.045183
v 0.057136 0.053354 0.027004
v 0.068469 0.053342 -0.066654
v 0.030098 0.002132 -0.003136
v 0.041434 0.002132 -0.044478
v 0.042677 0.157896 -0.022563
v 0.024611 0.124460 -0.102438
v -0.027691 0.124460 -0.104240
v 0.045439 0.053424 -0.094122
v -0.048847 0.053419 -0.097369
v 0.015176 0.002160 -0.066946
v -0.021038 0.002160 -0.070194
v -0.002502 0.157896 -0.075427
v -0.080193 0.124460 -0.051688
v -0.078266 0.124460 0.000609
v -0.073363 0.053383 -0.072867
v -0.069883 0.053367 0.021412
v -0.046209 0.002168 -0.047221
v -0.042733 0.002168 -0.005606
v -0.051320 0.157896 -0.026568
v -0.030368 0.124460 0.046846
v 0.021965 0.124460 0.046846
v -0.051373 0.053428 0.039253
v 0.042970 0.053421 0.039251
v -0.022141 0.002164 0.012069
v 0.014095 0.002164 0.012069
v -0.004201 0.157896 0.018917
vn 0.0201 0.9998 0.0006
vn -0.0180 0.9997 -0.0157
vn -0.0115 0.9997 0.0199
vn 0.0000 1.0000 0.0000
vn -0.0227 0.9997 -0.0093
vn -0.0032 0.9998 0.0202
vn -0.0201 -0.9998 -0.0006
vn 0.0180 -0.9997 0.0157
vn 0.0115 -0.9997 -0.0199
vn 0.0000 -1.0000 0.0000
vn 0.0227 -0.9997 0.0093
vn 0.0032 -0.9998 -0.0202
vn -0.9919 0.0000 0.1270
vn 0.9450 0.0000 -0.3271
vn 0.2300 0.0000 -0.9732
vn -0.8866 0.0000 -0.4626
vn 0.2022 0.0000 0.9793
vn 0.9445 0.0000 -0.3286
vn -0.2276 0.0000 -0.9737
vn -0.6422 0.0000 0.7665
vn -0.5000 0.0000 0.8660
vn 0.9976 0.0000 0.0691
vn -0.3710 0.4820 0.7938
vn -0.1225 0.9685 0.2170
vn -0.4011 -0.2407 0.8839
vn 0.5492 0.4820 0.6827
vn 0.1408 0.9685 0.2056
vn 0.6168 -0.2407 0.7494
vn 0.8639 0.4820 -0.1462
vn 0.2482 0.9685 -0.0226
vn 0.9551 -0.2407 -0.1726
vn 0.2806 0.4820 -0.8300
vn 0.0977 0.9685 -0.2292
vn 0.3005 -0.2407 -0.9229
vn -0.5281 0.4820 -0.6992
vn -0.1344 0.9685 -0.2098
vn -0.5936 -0.2407 -0.7679
vn -0.8757 0.4820 -0.0286
vn -0.2477 0.9685 -0.0273
vn -0.9704 -0.2407 -0.0208
vn -0.7670 -0.0378 -0.6406
vn -0.5701 0.6383 -0.5173
vn -0.7542 -0.1855 -0.6299
vn -0.5725 -0.0309 0.8194
vn -0.4525 0.6320 0.6292
vn -0.5622 -0.1911 0.8046
vn 0.8583 -0.0215 0.5128
vn 0.6755 0.6245 0.3920
vn 0.8403 -0.2046 0.5020
vn 0.5439 -0.0289 -0.8386
vn 0.4225 0.6303 -0.6514
vn 0.5334 -0.1981 -0.8223
vn -0.9866 0.1111 -0.1194
vn -0.8676 0.4755 -0.1457
vn -0.7227 -0.6856 -0.0875
vn -0.0342 0.1111 0.9932
vn -0.0438 0.4737 0.8796
vn -0.0251 -0.6856 0.7275
vn 0.9931 0.1111 -0.0366
vn 0.8798 0.4732 -0.0450
vn 0.7275 -0.6856 -0.0268
vn 0.0000 0.1111 -0.9938
vn 0.0000 0.4734 -0.8808
vn 0.0000 -0.6856 -0.7280
vn 0.3697 -0.4880 -0.7907
vn 0.1259 -0.9665 -0.2237
vn 0.4043 0.2094 -0.8903
vn -0.5469 -0.4880 -0.6803
vn -0.1453 -0.9665 -0.2116
vn -0.6211 0.2094 -0.7552
vn -0.8606 -0.4880 0.1454
vn -0.2556 -0.9665 0.0236
vn -0.9623 0.2094 0.1737
vn -0.2797 -0.4880 0.8268
vn -0.1003 -0.9665 0.2363
vn -0.3030 0.2094 0.9297
vn 0.5259 -0.4880 0.6966
vn 0.1388 -0.9665 0.2159
vn 0.5978 0.2094 0.7738
vn 0.8724 -0.4880 0.0287
vn 0.2552 -0.9665 0.0277
vn 0.9776 0.2094 0.0212
vn 0.7672 0.0290 0.6408
vn 0.5768 -0.6272 0.5233
vn 0.7545 0.1831 0.6302
vn 0.5726 0.0228 -0.8195
vn 0.4577 -0.6208 -0.6365
vn 0.5625 0.1883 -0.8051
vn -0.8584 0.0137 -0.5128
vn -0.6826 -0.6140 -0.3962
vn -0.8409 0.2011 -0.5024
vn -0.5440 0.0210 0.8388
vn -0.4273 -0.6192 0.6588
vn -0.5337 0.1951 0.8229
vn 0.9871 -0.1065 0.1195
vn 0.8701 -0.4707 0.1461
vn 0.7619 0.6411 0.0922
vn 0.0342 -0.1063 -0.9937
vn 0.0439 -0.4688 -0.8822
vn 0.0264 0.6411 -0.7670
vn -0.9936 -0.1064 0.0366
vn -0.8823 -0.4685 0.0451
vn -0.7670 0.6411 0.0283
vn 0.0000 -0.1063 0.9943
vn -0.0000 -0.4685 0.8835
vn 0.0000 0.6411 0.7675
vn 0.9345 0.2209 0.2791
vn -0.8155 0.2096 -0.5395
vn -0.5311 -0.2487 0.8100
vn 0.8015 -0.0797 0.5927
vn -0.9726 -0.1328 -0.1906
vn 0.7327 0.5946 0.3310
vn -0.7439 0.5718 -0.3460
vn 0.6622 0.2209 -0.7160
vn -0.8436 0.2096 0.4944
vn 0.4932 -0.2486 0.8336
vn 0.8852 -0.0797 -0.4584
vn -0.5996 -0.1328 0.7892
vn 0.6199 0.5946 -0.5120
vn -0.6383 0.5718 0.5154
vn -0.3018 0.2209 -0.9274
vn 0.0199 0.2096 0.9776
vn 0.9683 -0.2487 -0.0237
vn 0.0319 -0.0797 -0.9963
vn 0.3963 -0.1328 0.9085
vn -0.1443 0.5946 -0.7909
vn 0.1384 0.5718 0.8086
vn -0.9597 0.2209 -0.1736
vn 0.8703 0.2096 0.4457
vn 0.4379 -0.2487 -0.8640
vn -0.8623 -0.0796 -0.5001
vn 0.9878 -0.1328 0.0814
vn -0.7649 0.5946 -0.2476
vn 0.7777 0.5718 0.2612
vn -0.6838 0.2209 0.6954
vn 0.8583 0.2096 -0.4684
vn -0.4675 -0.2486 -0.8483
vn -0.8988 -0.0797 0.4311
vn 0.6234 -0.1328 -0.7705
vn -0.6353 0.5946 0.4928
vn 0.6537 0.5718 -0.4957
vn 0.1112 0.2209 0.9689
vn 0.1750 0.2096 -0.9620
vn -0.9537 -0.2487 -0.1694
vn -0.2294 -0.0796 0.9701
vn -0.2076 -0.1328 -0.9692
vn -0.0159 0.5946 0.8038
vn 0.0253 0.5718 -0.8200
vn -0.5658 0.3798 0.7319
vn 0.6301 0.3806 -0.6768
vn -0.4260 -0.7680 -0.4782
vn -0.7521 -0.4359 0.4943
vn 0.3749 -0.4624 -0.8035
vn -0.5268 0.6982 0.4848
vn 0.3852 0.6954 -0.6066
vn 0.7780 0.3869 0.4950
vn -0.7348 0.3735 -0.5661
vn -0.3901 -0.7747 0.4976
vn 0.5313 -0.4845 0.6949
vn -0.8316 -0.4807 -0.2781
vn 0.5332 0.6919 0.4867
vn -0.6349 0.6995 -0.3282
vn 0.4350 0.3800 -0.8163
vn -0.5093 0.3797 0.7723
vn 0.5506 -0.7809 0.2951
vn 0.6427 -0.4696 -0.6053
vn -0.2282 -0.4508 0.8630
vn 0.4506 0.6918 -0.5642
vn -0.2816 0.6945 0.6621
vn -0.7995 0.3739 -0.4701
vn 0.7502 0.3864 0.5366
vn 0.3430 -0.7764 -0.5288
vn -0.5653 -0.4805 -0.6705
vn 0.8405 -0.4874 0.2368
vn -0.5427 0.6977 -0.4677
vn 0.6533 0.6911 0.3090
vn -0.1054 0.2976 0.9488
vn 0.1430 0.2917 -0.9458
vn -0.4604 -0.8787 -0.1262
vn -0.2942 -0.3771 0.8782
vn -0.0245 -0.3946 -0.9185
vn -0.3496 0.5089 0.7866
vn -0.1518 0.5089 -0.8473
vn 0.9551 0.2959 0.0179
vn -0.9543 0.2940 -0.0541
vn -0.0423 -0.8806 0.4721
vn 0.8811 -0.4219 0.2138
vn -0.8943 -0.4265 0.1355
vn 0.8138 0.5089 0.2807
vn -0.8312 0.5089 0.2240
vn -0.0565 0.2939 -0.9542
vn 0.0195 0.2957 0.9551
vn 0.4717 -0.8809 -0.0394
vn 0.1234 -0.4012 -0.9076
vn 0.2010 -0.3827 0.9017
vn 0.2221 0.5089 -0.8317
vn 0.2827 0.5089 0.8131
vn -0.9553 0.2949 0.0180
vn 0.9553 0.2949 0.0181
vn -0.0000 -0.8809 -0.4734
vn -0.8871 -0.4268 -0.1757
vn 0.8894 -0.4227 -0.1741
vn -0.8230 0.5089 -0.2526
vn 0.8230 0.5089 -0.2525
usemtl Green
s off
f 2//1 10//1 1//1
f 4//2 3//2 1//2
f 5//3 4//3 1//3
f 3//4 2//4 1//4
f 7//5 6//5 1//5
f 8//4 7//4 1//4
f 9//4 8//4 1//4
f 10//6 9//6 1//6
f 12//7 11//7 20//7
f 14//8 11//8 13//8
f 15//9 11//9 14//9
f 13//10 11//10 12//10
f 17//11 11//11 16//11
f 18//10 11//10 17//10
f 19//10 11//10 18//10
f 20//12 11//12 19//12
f 9//13 19//13 18//13 8//13
f 6//14 16//14 11//14 1//14
f 3//15 13//15 12//15 2//15
f 10//16 20//16 19//16 9//16
f 7//17 17//17 16//17 6//17
f 4//18 14//18 13//18 3//18
f 2//19 12//19 20//19 10//19
f 8//20 18//20 17//20 7//20
f 1//21 11//21 15//21 5//21
f 5//22 15//22 14//22 4//22
usemtl Pink
f 21//23 22//23 24//23 23//23
f 23//24 24//24 26//24 25//24
f 22//25 21//25 27//25
f 28//26 29//26 31//26 30//26
f 30//27 31//27 33//27 32//27
f 29//28 28//28 34//28
f 35//29 36//29 38//29 37//29
f 37//30 38//30 40//30 39//30
f 36//31 35//31 41//31
f 42//32 43//32 45//32 44//32
f 44//33 45//33 47//33 46//33
f 43//34 42//34 48//34
f 49//35 50//35 52//35 51//35
f 51//36 52//36 54//36 53//36
f 50//37 49//37 55//37
f 56//38 57//38 59//38 58//38
f 58//39 59//39 61//39 60//39
f 57//40 56//40 62//40
f 63//41 64//41 66//41 65//41
f 65//42 66//42 68//42 67//42
f 64//43 63//43 69//43
f 70//44 71//44 73//44 72//44
f 72//45 73//45 75//45 74//45
f 71//46 70//46 76//46
f 77//47 78//47 80//47 79//47
f 79//48 80//48 82//48 81//48
f 78//49 77//49 83//49
f 84//50 85//50 87//50 86//50
f 86//51 87//51 89//51 88//51
f 85//52 84//52 90//52
f 91//53 92//53 94//53 93//53
f 93//54 94//54 96//54 95//54
f 92//55 91//55 97//55
f 98//56 99//56 101//56 100//56
f 100//57 101//57 103//57 102//57
f 99//58 98//58 104//58
f 105//59 106//59 108//59 107//59
f 107//60 108//60 110//60 109//60
f 106//61 105//61 111//61
f 112//62 113//62 115//62 114//62
f 114//63 115//63 117//63 116//63
f 113//64 112//64 118//64
f 119//65 121//65 122//65 120//65
f 121//66 123//66 124//66 122//66
f 120//67 125//67 119//67
f 126//68 128//68 129//68 127//68
f 128//69 130//69 131//69 129//69
f 127//70 132//70 126//70
f 133//71 135//71 136//71 134//71
f 135//72 137//72 138//72 136//72
f 134//73 139//73 133//73
f 140//74 142//74 143//74 141//74
f 142//75 144//75 145//75 143//75
f 141//76 146//76 140//76
f 147//77 149//77 150//77 148//77
f 149//78 151//78 152//78 150//78
f 148//79 153//79 147//79
f 154//80 156//80 157//80 155//80
f 156//81 158//81 159//81 157//81
f 155//82 160//82 154//82
f 161//83 163//83 164//83 162//83
f 163//84 165//84 166//84 164//84
f 162//85 167//85 161//85
f 168//86 170//86 171//86 169//86
f 170//87 172//87 173//87 171//87
f 169//88 174//88 168//88
f 175//89 177//89 178//89 176//89
f 177//90 179//90 180//90 178//90
f 176//91 181//91 175//91
f 182//92 184//92 185//92 183//92
f 184//93 186//93 187//93 185//93
f 183//94 188//94 182//94
f 189//95 191//95 192//95 190//95
f 191//96 193//96 194//96 192//96
f 190//97 195//97 189//97
f 196//98 198//98 199//98 197//98
f 198//99 200//99 201//99 199//99
f 197//100 202//100 196//100
f 203//101 205//101 206//101 204//101
f 205//102 207//102 208//102 206//102
f 204//103 209//103 203//103
f 210//104 212//104 213//104 211//104
f 212//105 214//105 215//105 213//105
f 211//106 216//106 210//106
f 21//107 23//107 121//107 119//107
f 24//108 22//108 120//108 122//108
f 25//109 26//109 124//109 123//109
f 23//110 25//110 123//110 121//110
f 26//111 24//111 122//111 124//111
f 27//112 21//112 119//112 125//112
f 22//113 27//113 125//113 120//113
f 28//114 30//114 128//114 126//114
f 31//115 29//115 127//115 129//115
f 32//116 33//116 131//116 130//116
f 30//117 32//117 130//117 128//117
f 33//118 31//118 129//118 131//118
f 34//119 28//119 126//119 132//119
f 29//120 34//120 132//120 127//120
f 35//121 37//121 135//121 133//121
f 38//122 36//122 134//122 136//122
f 39//123 40//123 138//123 137//123
f 37//124 39//124 137//124 135//124
f 40//125 38//125 136//125 138//125
f 41//126 35//126 133//126 139//126
f 36//127 41//127 139//127 134//127
f 42//128 44//128 142//128 140//128
f 45//129 43//129 141//129 143//129
f 46//130 47//130 145//130 144//130
f 44//131 46//131 144//131 142//131
f 47//132 45//132 143//132 145//132
f 48//133 42//133 140//133 146//133
f 43//134 48//134 146//134 141//134
f 49//135 51//135 149//135 147//135
f 52//136 50//136 148//136 150//136
f 53//137 54//137 152//137 151//137
f 51//138 53//138 151//138 149//138
f 54//139 52//139 150//139 152//139
f 55//140 49//140 147//140 153//140
f 50//141 55//141 153//141 148//141
f 56//142 58//142 156//142 154//142
f 59//143 57//143 155//143 157//143
f 60//144 61//144 159//144 158//144
f 58//145 60//145 158//145 156//145
f 61//146 59//146 157//146 159//146
f 62//147 56//147 154//147 160//147
f 57//148 62//148 160//148 155//148
f 63//149 65//149 163//149 161//149
f 66//150 64//150 162//150 164//150
f 67//151 68//151 166//151 165//151
f 65//152 67//152 165//152 163//152
f 68//153 66//153 164//153 166//153
f 69//154 63//154 161//154 167//154
f 64//155 69//155 167//155 162//155
f 70//156 72//156 170//156 168//156
f 73//157 71//157 169//157 171//157
f 74//158 75//158 173//158 172//158
f 72//159 74//159 172//159 170//159
f 75//160 73//160 171//160 173//160
f 76//161 70//161 168//161 174//161
f 71//162 76//162 174//162 169//162
f 77//163 79//163 177//163 175//163
f 80//164 78//164 176//164 178//164
f 81//165 82//165 180//165 179//165
f 79//166 81//166 179//166 177//166
f 82//167 80//167 178//167 180//167
f 83//168 77//168 175//168 181//168
f 78//169 83//169 181//169 176//169
f 84//170 86//170 184//170 182//170
f 87//171 85//171 183//171 185//171
f 88//172 89//172 187//172 186//172
f 86//173 88//173 186//173 184//173
f 89//174 87//174 185//174 187//174
f 90//175 84//175 182//175 188//175
f 85//176 90//176 188//176 183//176
f 91//177 93//177 191//177 189//177
f 94//178 92//178 190//178 192//178
f 95//179 96//179 194//179 193//179
f 93//180 95//180 193//180 191//180
f 96//181 94//181 192//181 194//181
f 97//182 91//182 189//182 195//182
f 92//183 97//183 195//183 190//183
f 98//184 100//184 198//184 196//184
f 101//185 99//185 197//185 199//185
f 102//186 103//186 201//186 200//186
f 100//187 102//187 200//187 198//187
f 103//188 101//188 199//188 201//188
f 104//189 98//189 196//189 202//189
f 99//190 104//190 202//190 197//190
f 105//191 107//191 205//191 203//191
f 108//192 106//192 204//192 206//192
f 109//193 110//193 208//193 207//193
f 107//194 109//194 207//194 205//194
f 110//195 108//195 206//195 208//195
f 111//196 105//196 203//196 209//196
f 106//197 111//197 209//197 204//197
f 112//198 114//198 212//198 210//198
f 115//199 113//199 211//199 213//199
f 116//200 117//200 215//200 214//200
f 114//201 116//201 214//201 212//201
f 117//202 115//202 213//202 215//202
f 118//203 112//203 210//203 216//203
f 113//204 118//204 216//204 211//204
