# Blender v2.79 (sub 0) OBJ File: 'Rock_Moss_4.blend'
# www.blender.org
mtllib Rock_Moss_4.mtl
o Rock_Moss_4_Cube.023
v -0.302785 -0.205689 -0.572949
v 0.185011 -0.148458 -0.419920
v -0.308197 0.162863 -0.466687
v 0.150255 0.127170 -0.255465
v 0.083519 -0.102699 -0.554881
v 0.062498 0.154930 -0.417901
v 0.079992 0.123076 -0.509828
v -0.237994 0.106456 -0.541100
v -0.263927 -0.156757 -0.625258
v -0.296295 -0.270511 -0.475213
v 0.010394 -0.209784 -0.420365
v 0.224044 -0.217132 -0.218347
v 0.120635 0.440569 -0.088557
v -0.397184 0.453644 -0.180484
v -0.011557 0.510511 -0.172134
v -0.428604 -0.231746 -0.287528
v 0.224044 -0.258511 -0.218347
v 0.005197 -0.250778 -0.285195
v -0.428604 -0.273126 -0.287528
v 0.163687 0.246195 -0.190849
v -0.352813 0.210077 -0.338092
v 0.021895 0.305853 -0.312693
v -0.302785 -0.205689 0.572949
v 0.185010 -0.148458 0.419920
v -0.322698 0.278716 0.461472
v 0.152638 0.204243 0.304707
v 0.083519 -0.102699 0.554881
v 0.050830 0.276998 0.443267
v 0.061650 0.276998 0.541523
v -0.257126 0.252941 0.554656
v -0.263927 -0.156757 0.625258
v -0.296295 -0.270511 0.475213
v 0.010394 -0.209784 0.420365
v 0.212061 -0.210279 0.235636
v 0.122431 0.408033 0.077021
v -0.393270 0.398852 0.182119
v -0.007040 0.452126 0.182119
v -0.428604 -0.231746 0.287528
v 0.212061 -0.251659 0.235636
v 0.005197 -0.250778 0.285195
v -0.428604 -0.273126 0.287528
v 0.163687 0.246195 0.190849
v -0.357984 0.280075 0.321795
v 0.021895 0.305853 0.312693
v 0.122431 0.408033 0.000030
v -0.393270 0.398852 -0.000000
v -0.007040 0.452126 -0.000000
v -0.428604 -0.231746 -0.000000
v 0.224044 -0.258511 0.000000
v 0.005197 -0.250778 0.000000
v -0.428604 -0.273126 -0.000000
v 0.174894 0.216533 0.129087
v 0.186878 0.252217 0.000000
v 0.187425 0.252368 -0.125369
v -0.439487 0.234958 -0.214638
v -0.432381 0.276906 0.202503
v -0.433550 0.256032 -0.000000
v 0.304083 -0.207832 -0.146806
v 0.304083 -0.249211 -0.146806
v 0.296336 -0.217132 0.000000
v 0.296336 -0.258511 0.000000
v 0.288712 -0.207832 0.186079
v 0.288712 -0.249211 0.186079
v 0.270918 0.174267 0.081171
v 0.270489 0.214940 -0.007305
v 0.256200 0.210112 -0.108207
vn 0.2890 -0.8193 -0.4951
vn 0.9516 0.1716 -0.2550
vn 0.8296 0.3380 -0.4444
vn -0.7707 0.2412 -0.5897
vn 0.2474 -0.8114 -0.5296
vn 0.1204 0.2485 -0.9611
vn 0.2373 -0.7911 -0.5638
vn -0.7333 0.2179 -0.6440
vn 0.9806 -0.0235 0.1948
vn 0.1924 -0.8880 -0.4177
vn -0.9855 -0.0238 -0.1679
vn -0.8173 0.0000 -0.5762
vn 0.9818 0.0000 -0.1901
vn 0.6603 0.4787 -0.5786
vn -0.0720 0.5437 -0.8362
vn 0.1175 -0.9895 -0.0836
vn -1.0000 0.0000 0.0000
vn 0.5190 0.2490 0.8177
vn -0.0353 -0.9994 0.0000
vn -0.9749 0.2186 0.0430
vn 0.5323 0.1735 -0.8286
vn 0.0514 -0.9987 0.0000
vn 0.2890 -0.8193 0.4951
vn 0.9856 0.1206 0.1188
vn 0.8261 0.2324 0.5133
vn -0.8022 0.3394 0.4913
vn 0.2474 -0.8114 0.5296
vn 0.1113 0.1072 0.9880
vn 0.2373 -0.7911 0.5638
vn -0.8158 0.1039 0.5690
vn 0.9926 0.0533 -0.1093
vn 0.1952 -0.8888 0.4146
vn -0.9903 -0.0443 0.1320
vn -0.8173 0.0000 0.5762
vn 0.9894 0.0000 0.1452
vn 0.6474 0.5587 0.5184
vn -0.0643 0.7048 0.7065
vn 0.1175 -0.9895 0.0836
vn 0.0721 -0.9971 -0.0239
vn -0.0187 -0.9997 0.0127
vn -0.9581 0.2863 -0.0126
vn 0.9606 0.2747 0.0424
vn 0.8604 0.3732 -0.3471
vn 0.9349 0.3515 0.0482
vn 0.9366 0.3320 0.1120
vn -1.0000 -0.0085 0.0027
vn -0.9998 -0.0175 0.0126
vn -0.8230 0.0759 0.5630
vn -0.8087 0.0719 -0.5839
vn 0.9986 0.0000 0.0527
vn 0.9959 0.0873 -0.0247
vn 0.9992 0.0000 0.0409
vn 0.9978 0.0580 0.0328
vn 0.6664 0.0000 -0.7456
vn 0.5429 0.0000 0.8398
vn 0.0296 -0.9988 0.0396
vn -0.0245 0.7582 -0.6515
vn 0.0412 0.8914 -0.4513
vn 0.7707 0.3931 -0.5015
vn 0.2956 0.9042 0.3082
vn -0.1377 0.9421 0.3057
vn -0.0274 0.9927 0.1175
vn -0.0254 0.9893 0.1433
vn 0.6105 0.7715 0.1788
vn 0.3224 0.9466 0.0000
vn -0.1366 0.9906 0.0000
vn 0.4636 0.8281 0.3152
vn 0.4646 0.8843 -0.0465
usemtl Rock
s off
f 11//1 5//1 2//1
f 12//2 2//2 4//2 20//2 54//2
f 4//3 2//3 5//3 6//3
f 14//4 21//4 55//4
f 10//5 1//5 5//5 11//5
f 7//6 5//6 9//6 8//6
f 5//7 1//7 9//7
f 1//8 3//8 8//8 9//8
f 6//9 5//9 7//9
f 11//10 2//10 17//10 18//10
f 10//11 21//11 3//11 1//11
f 16//12 10//12 19//12
f 2//13 12//13 17//13
f 13//14 20//14 22//14 15//14
f 15//15 22//15 21//15 14//15
f 19//16 10//16 11//16 18//16
f 16//17 19//17 51//17 48//17
f 52//18 34//18 62//18 64//18
f 18//19 17//19 49//19 50//19
f 14//20 55//20 57//20 46//20
f 12//21 54//21 66//21 58//21
f 19//22 18//22 50//22 51//22
f 33//23 24//23 27//23
f 34//24 52//24 42//24 26//24 24//24
f 26//25 28//25 27//25 24//25
f 36//26 56//26 43//26
f 32//27 33//27 27//27 23//27
f 29//28 30//28 31//28 27//28
f 27//29 31//29 23//29
f 23//30 31//30 30//30 25//30
f 28//31 29//31 27//31
f 33//32 40//32 39//32 24//32
f 32//33 23//33 25//33 43//33
f 38//34 41//34 32//34
f 24//35 39//35 34//35
f 35//36 37//36 44//36 42//36
f 37//37 36//37 43//37 44//37
f 41//38 40//38 33//38 32//38
f 38//17 48//17 51//17 41//17
f 49//39 17//39 59//39 61//39
f 40//40 50//40 49//40 39//40
f 36//41 46//41 57//41 56//41
f 41//22 51//22 50//22 40//22
f 42//42 52//42 35//42
f 54//43 20//43 13//43
f 53//44 54//44 13//44 45//44
f 52//45 53//45 45//45 35//45
f 56//46 57//46 48//46 38//46
f 57//47 55//47 16//47 48//47
f 43//48 56//48 38//48 32//48
f 55//49 21//49 10//49 16//49
f 59//50 58//50 60//50 61//50
f 58//51 66//51 65//51 60//51
f 63//52 61//52 60//52 62//52
f 62//53 60//53 65//53 64//53
f 17//54 12//54 58//54 59//54
f 34//55 39//55 63//55 62//55
f 39//56 49//56 61//56 63//56
usemtl Green
f 22//57 6//57 3//57 21//57
f 3//58 6//58 7//58 8//58
f 20//59 4//59 6//59 22//59
f 13//60 15//60 47//60 45//60
f 15//61 14//61 46//61 47//61
f 44//62 43//62 25//62 28//62
f 25//63 30//63 29//63 28//63
f 42//64 44//64 28//64 26//64
f 35//65 45//65 47//65 37//65
f 37//66 47//66 46//66 36//66
f 53//67 52//67 64//67 65//67
f 54//68 53//68 65//68 66//68
