# Blender v2.79 (sub 0) OBJ File: 'Willow_Dead_3.blend'
# www.blender.org
mtllib Willow_Dead_3.mtl
o Willow_Dead_3_Cube.111
v 0.025075 0.413494 -0.609955
v -0.099996 0.456889 -0.560093
v -0.040112 0.540949 -0.466284
v 0.084959 0.497554 -0.516146
v -0.003822 -0.045789 0.011004
v -0.045369 0.851464 -1.064313
v 0.128780 -0.020700 0.054526
v -0.047346 -0.020740 0.143609
v -0.136437 -0.020509 -0.032510
v 0.039688 -0.020469 -0.121593
v 0.047192 -0.054957 -0.144449
v -0.159276 -0.054956 -0.040013
v -0.054840 -0.054958 0.166455
v 0.151629 -0.054959 0.062019
v 0.037197 1.150520 -1.308537
v 0.003492 0.793566 -1.186314
v 0.035138 0.830946 -1.107861
v -0.077015 0.814084 -1.142767
v -0.076625 1.148063 -1.353569
v -0.038398 1.129426 -1.269964
v -0.090291 0.605795 -0.913128
v 0.061096 0.639013 -0.870584
v 0.015864 0.558498 -0.960764
v 0.030896 1.227373 -0.555088
v 0.001893 1.850822 -1.164977
v -0.075110 1.603597 -1.304917
v 0.010159 1.629762 -1.336275
v -0.026266 1.579477 -1.214016
v 0.059003 1.605642 -1.245374
v 0.006487 1.741845 -0.492934
v -0.035642 1.612156 -0.449693
v 0.032998 1.600782 -0.469772
v -0.033713 1.619803 -0.523791
v 0.034926 1.608429 -0.543870
v -0.099783 0.748854 -0.798356
v -0.040637 0.836118 -0.853852
v -0.036959 0.688672 -0.703783
v 0.022187 0.775936 -0.759278
v -0.039758 1.213978 -0.527504
v 0.012542 1.255413 -0.619552
v -0.058112 1.242018 -0.591968
v -0.001030 1.169157 -1.392142
v 0.028359 0.919563 -0.672842
v -0.036612 0.869774 -0.637383
v -0.015938 0.959357 -0.743731
v -0.080910 0.909569 -0.708272
v 0.100374 0.230051 -0.098788
v -0.040408 0.254637 -0.038321
v -0.110496 0.207364 -0.156561
v 0.030285 0.182779 -0.217028
v 0.034792 -0.048080 -0.106660
v 0.087159 0.444061 -0.575080
v 0.021470 0.485307 -0.836050
v -0.082152 -0.054956 -0.143848
v -0.121487 -0.048081 -0.027611
v -0.094944 0.526748 -0.784693
v -0.158674 -0.054957 0.089330
v -0.042437 -0.048082 0.128668
v -0.039250 0.605041 -0.659022
v 0.074503 -0.054959 0.165854
v 0.113842 -0.048081 0.049619
v 0.075139 0.563009 -0.740171
v 0.128242 -0.020576 -0.055842
v -0.057886 0.183405 -0.216520
v -0.110389 0.236995 -0.082158
v 0.047246 0.254314 -0.039160
v 0.111329 0.063702 0.012804
v -0.042216 0.069797 0.087780
v -0.119607 0.058267 -0.060123
v 0.033939 0.052172 -0.135099
v -0.070624 -0.020429 -0.121044
v -0.135947 -0.020636 0.077783
v 0.063014 -0.020776 0.143135
v 0.151029 -0.054958 -0.067323
v 0.044963 -0.050920 -0.137660
v -0.152492 -0.050927 -0.037785
v -0.052614 -0.050987 0.159668
v 0.144842 -0.050979 0.059793
v -0.000521 0.968058 -1.313535
v -0.072508 0.959903 -1.270110
v -0.041234 0.958012 -1.191441
v 0.030753 0.966168 -1.234865
v -0.081228 0.837693 -1.093423
v 0.034806 0.705832 -0.807924
v 0.039534 0.806916 -1.158745
v -0.049853 0.562654 -0.959112
v -0.047695 1.163341 -1.393814
v -0.077100 1.133399 -1.302065
v 0.036293 1.165040 -1.359925
v 0.009645 1.135386 -1.268407
v -0.034272 1.343863 -1.283087
v -0.080462 1.366612 -1.372164
v 0.048579 1.368760 -1.316249
v 0.002389 1.391509 -1.405325
v -0.106563 0.672877 -0.850360
v 0.002704 0.850761 -1.065704
v 0.066350 0.586295 -0.927963
v -0.044765 0.794691 -1.183384
v -0.084745 0.699688 -1.010714
v 0.046528 0.727635 -0.971707
v 0.009468 0.654205 -1.054164
v -0.046579 0.810570 -0.935983
v -0.044605 1.622774 -1.343751
v -0.072087 1.584931 -1.251196
v 0.055817 1.624179 -1.298233
v 0.028661 1.586594 -1.207401
v 0.013066 1.808128 -1.238366
v 0.049699 1.790038 -1.170191
v -0.050886 1.788505 -1.214848
v -0.014253 1.770415 -1.146672
v 0.032131 1.704788 -0.469382
v 0.032358 1.702498 -0.529840
v -0.022807 1.715416 -0.457952
v -0.022580 1.713126 -0.518409
v 0.026712 1.438690 -0.497280
v 0.024788 1.459460 -0.564087
v -0.038973 1.441774 -0.471697
v -0.040897 1.462545 -0.538504
v -0.001134 1.604448 -0.441192
v -0.052507 1.618933 -0.481738
v 0.050452 1.601872 -0.511856
v 0.001758 1.615918 -0.552340
v 0.034971 1.032456 -0.621005
v -0.038728 0.999675 -0.591328
v -0.001228 1.065607 -0.687142
v -0.081539 0.808087 -0.849630
v -0.078674 0.877439 -0.664526
v 0.001185 0.827287 -0.820556
v 0.002846 1.213113 -0.524662
v 0.010618 0.884505 -0.636827
v 0.036695 1.245295 -0.594734
v -0.024686 1.255173 -0.621359
v -0.069287 1.225202 -0.553358
v -0.074927 1.032826 -0.657465
v -0.055828 0.944196 -0.743160
v -0.087534 0.696392 -0.737313
v 0.018783 0.952122 -0.717715
v 0.012696 0.717814 -0.707770
v 0.020838 0.847715 -0.716850
v -0.035370 0.780649 -0.672569
v -0.029703 0.896312 -0.796806
v -0.085911 0.829246 -0.752524
v 0.100784 0.200117 -0.172860
v -0.053306 0.414791 -0.608913
v -0.100447 0.509153 -0.500286
v 0.036520 0.540882 -0.468200
v 0.092666 0.400588 -0.276392
v -0.040260 0.442211 -0.225930
v -0.105246 0.361875 -0.322869
v 0.027680 0.320252 -0.373331
v 0.111517 -0.049864 -0.047337
v 0.078551 0.513021 -0.800702
v -0.062165 -0.049863 -0.104335
v -0.051298 0.487379 -0.834588
v 0.054518 -0.049865 0.126343
v 0.033007 0.621495 -0.693068
v -0.119162 -0.049864 0.069345
v -0.103351 0.590236 -0.729394
v 0.111054 0.056373 -0.079897
v -0.062216 0.052377 -0.134581
v -0.119264 0.065515 0.032567
v 0.053870 0.069673 0.087274
v -0.078730 -0.050908 -0.137077
v -0.151922 -0.050960 0.085900
v 0.071088 -0.050998 0.159103
v 0.144261 -0.050948 -0.063911
v 0.032315 0.969042 -1.285392
v -0.043535 0.964563 -1.311154
v -0.075665 0.956808 -1.220255
v 0.003375 0.961727 -1.193149
v 0.045963 1.386293 -1.368740
v -0.050351 1.384814 -1.411351
v 0.018934 1.350690 -1.277737
v -0.078314 1.348947 -1.318997
v -0.095014 0.762869 -0.941512
v 0.009796 0.787579 -0.906380
v 0.052647 0.679166 -1.024698
v -0.047999 0.658972 -1.052153
v -0.049936 1.726834 -1.196328
v 0.024644 1.728028 -1.163632
v -0.029627 1.754827 -1.264633
v 0.044808 1.755906 -1.231171
v -0.036523 1.690677 -0.485109
v 0.004272 1.684010 -0.537974
v 0.003213 1.682647 -0.451301
v 0.042817 1.676175 -0.504193
v -0.057939 1.453320 -0.498925
v -0.006952 1.465805 -0.567776
v -0.004066 1.434650 -0.467566
v 0.040588 1.448693 -0.537300
v -0.078786 1.008575 -0.617677
v 0.010706 1.007258 -0.588932
v -0.043594 1.056983 -0.688137
v 0.031763 1.057747 -0.662193
v -0.066705 0.875126 -0.794350
v -0.078430 0.787982 -0.701780
v 0.005882 0.888582 -0.768202
v 0.009106 0.802231 -0.674417
v 0.093972 0.349673 -0.337123
v -0.055596 0.321321 -0.372689
v -0.105418 0.412107 -0.261429
v 0.041883 0.441825 -0.227280
vn 0.5403 -0.7788 -0.3186
vn -0.0174 -0.9300 -0.3672
vn -0.0263 -0.9522 -0.3043
vn 0.5445 -0.7965 -0.2629
vn -0.7647 -0.5944 -0.2488
vn -0.9998 0.0131 -0.0162
vn -0.9983 -0.0539 -0.0226
vn -0.7690 -0.6059 -0.2037
vn -0.5531 0.7733 0.3100
vn 0.0105 0.9249 0.3800
vn -0.0249 0.9445 0.3275
vn -0.5324 0.7996 0.2778
vn 0.7521 0.6171 0.2312
vn 0.9988 0.0468 -0.0116
vn 0.9970 0.0753 -0.0184
vn 0.8072 0.5679 0.1608
vn 0.0142 -0.9995 0.0281
vn -0.0281 -0.9995 0.0142
vn -0.0142 -0.9995 -0.0281
vn 0.0281 -0.9995 -0.0142
vn 0.1213 0.9342 0.3355
vn -0.0030 0.7603 0.6496
vn -0.5718 0.6240 0.5326
vn -0.6369 0.7240 0.2649
vn 0.7094 0.4680 0.5270
vn 0.8839 0.4677 -0.0039
vn 0.9786 0.2055 -0.0112
vn 0.7338 0.4128 0.5396
vn -0.5268 0.4680 0.7096
vn 0.0040 0.4682 0.8836
vn 0.0044 0.5252 0.8509
vn -0.5286 0.4697 0.7071
vn -0.7101 0.4663 -0.5275
vn -0.8845 0.4666 0.0043
vn -0.9802 0.1979 -0.0029
vn -0.7979 -0.0306 -0.6020
vn 0.5276 0.4665 -0.7100
vn -0.0042 0.4663 -0.8846
vn -0.0053 -0.1827 -0.9832
vn 0.5878 -0.1111 -0.8013
vn -0.0980 -0.9883 0.1167
vn 0.0097 -0.9883 0.1521
vn -0.0024 0.8590 -0.5120
vn 0.3045 0.8599 -0.4098
vn 0.1167 -0.9883 0.0980
vn 0.1521 -0.9883 -0.0098
vn -0.5098 0.8603 0.0025
vn -0.4108 0.8592 -0.3051
vn 0.0980 -0.9883 -0.1167
vn -0.0098 -0.9883 -0.1521
vn 0.0024 0.8629 0.5054
vn -0.3021 0.8621 0.4069
vn -0.1168 -0.9883 -0.0980
vn -0.1521 -0.9883 0.0097
vn 0.5076 0.8616 -0.0023
vn 0.4060 0.8626 0.3016
vn 0.9996 -0.0267 0.0019
vn 0.9976 -0.0496 -0.0491
vn 0.8118 -0.0158 0.5838
vn 0.7870 0.2129 0.5791
vn -0.0721 -0.6902 -0.7201
vn -0.0313 -0.5950 -0.8031
vn 0.6138 -0.4622 -0.6400
vn 0.6510 -0.5120 -0.5604
vn 0.9923 0.1226 0.0149
vn 0.9962 0.0754 0.0428
vn 0.7545 0.4771 0.4506
vn 0.8603 0.4653 0.2084
vn -0.9947 -0.0330 -0.0974
vn -0.9973 -0.0277 -0.0684
vn -0.7681 -0.3940 -0.5048
vn -0.8252 -0.3920 -0.4067
vn -0.9985 -0.0341 -0.0418
vn -0.9999 -0.0106 0.0127
vn -0.7884 -0.0619 -0.6121
vn -0.7502 -0.2743 -0.6016
vn -0.0411 0.4076 0.9122
vn -0.0748 0.0544 0.9957
vn -0.6301 0.0584 0.7743
vn -0.5947 0.3384 0.7293
vn -0.9902 -0.1147 -0.0801
vn -0.9880 -0.0557 -0.1437
vn -0.8433 -0.3637 -0.3957
vn -0.8222 -0.4768 -0.3107
vn 0.9923 0.1200 -0.0316
vn 0.9909 0.1329 -0.0197
vn 0.9305 0.3485 0.1130
vn 0.9211 0.3454 0.1798
vn -0.0501 -0.8584 -0.5105
vn -0.0716 -0.6957 -0.7148
vn 0.6569 -0.4995 -0.5648
vn 0.6137 -0.6630 -0.4287
vn 0.9738 -0.0603 0.2194
vn 0.7295 -0.1580 0.6655
vn 0.8046 -0.1617 0.5714
vn 0.9996 -0.0113 0.0260
vn 0.7879 0.5498 -0.2775
vn -0.4238 0.7156 -0.5553
vn -0.8336 0.2204 0.5064
vn 0.3251 0.0706 0.9430
vn -0.8164 0.1753 -0.5503
vn -0.9986 0.0097 0.0516
vn -0.9870 0.0777 0.1407
vn -0.7747 0.3696 -0.5130
vn 0.6431 0.1934 -0.7410
vn 0.0857 0.2726 -0.9583
vn -0.0059 0.4956 -0.8685
vn 0.6582 0.3669 -0.6574
vn -0.6324 -0.1983 0.7489
vn -0.0698 -0.2804 0.9573
vn -0.0145 -0.3167 0.9484
vn -0.6715 -0.1937 0.7153
vn 0.8156 -0.1972 0.5440
vn 0.9977 -0.0238 -0.0631
vn 0.9913 0.1016 -0.0843
vn 0.7695 -0.1910 0.6095
vn 0.8738 0.4860 -0.0151
vn -0.0449 0.6149 -0.7873
vn -0.7673 0.6408 -0.0272
vn 0.2705 0.5438 0.7944
vn -0.1682 0.1150 0.9790
vn -0.8954 0.1747 0.4095
vn -0.8602 -0.0369 0.5086
vn -0.2051 -0.1341 0.9695
vn 0.9421 0.0298 0.3341
vn 0.5885 0.0319 0.8078
vn 0.6622 -0.1380 0.7365
vn 0.9338 -0.1053 0.3421
vn -0.9227 0.1559 -0.3526
vn -0.5545 0.1471 -0.8191
vn -0.6357 0.1078 -0.7644
vn -0.9165 0.0746 -0.3931
vn 0.2297 0.1680 -0.9587
vn 0.9275 0.1025 -0.3595
vn 0.8840 0.0121 -0.4674
vn 0.2043 0.1032 -0.9734
vn -0.9787 0.0351 0.2022
vn -0.9618 0.2551 -0.0989
vn -0.9832 0.1820 -0.0149
vn -0.9852 0.0864 0.1479
vn -0.4567 0.6390 -0.6190
vn 0.6065 0.4875 -0.6280
vn 0.4685 0.8260 -0.3135
vn -0.6269 0.7436 -0.2324
vn 0.2354 -0.3317 0.9135
vn -0.5663 -0.2523 0.7846
vn -0.6572 0.2592 0.7077
vn 0.1690 0.3245 0.9307
vn 0.9702 0.1239 -0.2083
vn 0.9846 -0.0500 0.1673
vn 0.9688 0.1518 0.1957
vn 0.9636 0.2604 -0.0606
vn -0.1118 -0.2436 0.9634
vn -0.7596 -0.1337 0.6366
vn -0.6249 -0.2112 0.7516
vn -0.0331 -0.2921 0.9558
vn 0.0986 0.2464 -0.9641
vn 0.8086 0.1272 -0.5745
vn 0.6790 0.2173 -0.7012
vn -0.0032 0.3275 -0.9449
vn -0.9456 0.1317 -0.2974
vn -0.6704 0.2295 -0.7056
vn -0.7335 0.2672 -0.6249
vn -0.9855 0.1022 -0.1354
vn 0.0315 -0.3735 -0.9271
vn 0.0857 -0.0689 -0.9939
vn 0.6430 -0.0568 -0.7638
vn 0.6172 -0.2878 -0.7323
vn 0.9878 -0.0124 -0.1551
vn 0.9018 -0.1900 0.3882
vn 0.9669 -0.1613 0.1976
vn 0.9719 0.0172 -0.2347
vn 0.0517 -0.3477 0.9362
vn -0.5630 -0.2814 0.7771
vn -0.5619 -0.3149 0.7649
vn 0.1655 -0.3857 0.9077
vn -0.1293 0.4628 -0.8770
vn 0.6152 0.3044 -0.7272
vn 0.6108 0.4203 -0.6710
vn -0.3224 0.6228 -0.7129
vn -0.9997 0.0242 -0.0031
vn -0.8369 0.2764 -0.4724
vn -0.9290 0.2642 -0.2590
vn -0.9958 -0.0155 0.0904
vn 0.7501 0.3965 0.5292
vn 0.9981 0.0600 -0.0126
vn 0.9993 0.0359 -0.0088
vn 0.7609 0.4770 0.4398
vn -0.5376 0.4832 0.6910
vn 0.0074 0.5643 0.8255
vn 0.0121 0.7077 0.7064
vn -0.5525 0.5966 0.5821
vn -0.7671 -0.3180 -0.5572
vn -0.9987 0.0505 -0.0084
vn -0.9998 0.0189 -0.0116
vn -0.7671 -0.4662 -0.4407
vn 0.5465 -0.4303 -0.7185
vn -0.0071 -0.5308 -0.8475
vn -0.0119 -0.7502 -0.6611
vn 0.5447 -0.6168 -0.5682
usemtl Wood
s off
f 1//1 52//1 199//1 150//1
f 1//2 150//2 200//2 144//2
f 1//3 144//3 154//3 53//3
f 1//4 53//4 152//4 52//4
f 2//5 144//5 200//5 149//5
f 2//6 149//6 201//6 145//6
f 2//7 145//7 158//7 56//7
f 2//8 56//8 154//8 144//8
f 3//9 145//9 201//9 148//9
f 3//10 148//10 202//10 146//10
f 3//11 146//11 156//11 59//11
f 3//12 59//12 158//12 145//12
f 4//13 146//13 202//13 147//13
f 4//14 147//14 199//14 52//14
f 4//15 52//15 152//15 62//15
f 4//16 62//16 156//16 146//16
f 5//17 55//17 153//17 51//17
f 5//18 51//18 151//18 61//18
f 5//19 61//19 155//19 58//19
f 5//20 58//20 157//20 55//20
f 6//21 102//21 176//21 96//21
f 6//22 96//22 170//22 81//22
f 6//23 81//23 169//23 83//23
f 6//24 83//24 175//24 102//24
f 7//25 73//25 165//25 78//25
f 7//26 78//26 166//26 63//26
f 7//27 63//27 159//27 67//27
f 7//28 67//28 162//28 73//28
f 8//29 72//29 164//29 77//29
f 8//30 77//30 165//30 73//30
f 8//31 73//31 162//31 68//31
f 8//32 68//32 161//32 72//32
f 9//33 71//33 163//33 76//33
f 9//34 76//34 164//34 72//34
f 9//35 72//35 161//35 69//35
f 9//36 69//36 160//36 71//36
f 10//37 63//37 166//37 75//37
f 10//38 75//38 163//38 71//38
f 10//39 71//39 160//39 70//39
f 10//40 70//40 159//40 63//40
f 11//41 74//41 151//41 51//41
f 11//42 51//42 153//42 54//42
f 11//43 54//43 163//43 75//43
f 11//44 75//44 166//44 74//44
f 12//45 54//45 153//45 55//45
f 12//46 55//46 157//46 57//46
f 12//47 57//47 164//47 76//47
f 12//48 76//48 163//48 54//48
f 13//49 57//49 157//49 58//49
f 13//50 58//50 155//50 60//50
f 13//51 60//51 165//51 77//51
f 13//52 77//52 164//52 57//52
f 14//53 60//53 155//53 61//53
f 14//54 61//54 151//54 74//54
f 14//55 74//55 166//55 78//55
f 14//56 78//56 165//56 60//56
f 15//57 82//57 167//57 89//57
f 15//58 89//58 171//58 93//58
f 15//59 93//59 173//59 90//59
f 15//60 90//60 170//60 82//60
f 16//61 101//61 178//61 98//61
f 16//62 98//62 168//62 79//62
f 16//63 79//63 167//63 85//63
f 16//64 85//64 177//64 101//64
f 17//65 100//65 177//65 85//65
f 17//66 85//66 167//66 82//66
f 17//67 82//67 170//67 96//67
f 17//68 96//68 176//68 100//68
f 18//69 99//69 175//69 83//69
f 18//70 83//70 169//70 80//70
f 18//71 80//71 168//71 98//71
f 18//72 98//72 178//72 99//72
f 19//73 80//73 169//73 88//73
f 19//74 88//74 174//74 92//74
f 19//75 92//75 172//75 87//75
f 19//76 87//76 168//76 80//76
f 20//77 81//77 170//77 90//77
f 20//78 90//78 173//78 91//78
f 20//79 91//79 174//79 88//79
f 20//80 88//80 169//80 81//80
f 21//81 56//81 158//81 95//81
f 21//82 95//82 175//82 99//82
f 21//83 99//83 178//83 86//83
f 21//84 86//84 154//84 56//84
f 22//85 62//85 152//85 97//85
f 22//86 97//86 177//86 100//86
f 22//87 100//87 176//87 84//87
f 22//88 84//88 156//88 62//88
f 23//89 53//89 154//89 86//89
f 23//90 86//90 178//90 101//90
f 23//91 101//91 177//91 97//91
f 23//92 97//92 152//92 53//92
f 24//93 131//93 190//93 115//93
f 24//94 115//94 189//94 129//94
f 24//95 129//95 192//95 123//95
f 24//96 123//96 194//96 131//96
f 25//97 108//97 182//97 107//97
f 25//98 107//98 181//98 109//98
f 25//99 109//99 179//99 110//99
f 25//100 110//100 180//100 108//100
f 26//101 103//101 172//101 92//101
f 26//102 92//102 174//102 104//102
f 26//103 104//103 179//103 109//103
f 26//104 109//104 181//104 103//104
f 27//105 105//105 171//105 94//105
f 27//106 94//106 172//106 103//106
f 27//107 103//107 181//107 107//107
f 27//108 107//108 182//108 105//108
f 28//109 104//109 174//109 91//109
f 28//110 91//110 173//110 106//110
f 28//111 106//111 180//111 110//111
f 28//112 110//112 179//112 104//112
f 29//113 106//113 173//113 93//113
f 29//114 93//114 171//114 105//114
f 29//115 105//115 182//115 108//115
f 29//116 108//116 180//116 106//116
f 30//117 111//117 186//117 112//117
f 30//118 112//118 184//118 114//118
f 30//119 114//119 183//119 113//119
f 30//120 113//120 185//120 111//120
f 31//121 119//121 185//121 113//121
f 31//122 113//122 183//122 120//122
f 31//123 120//123 187//123 117//123
f 31//124 117//124 189//124 119//124
f 32//125 121//125 186//125 111//125
f 32//126 111//126 185//126 119//126
f 32//127 119//127 189//127 115//127
f 32//128 115//128 190//128 121//128
f 33//129 120//129 183//129 114//129
f 33//130 114//130 184//130 122//130
f 33//131 122//131 188//131 118//131
f 33//132 118//132 187//132 120//132
f 34//133 122//133 184//133 112//133
f 34//134 112//134 186//134 121//134
f 34//135 121//135 190//135 116//135
f 34//136 116//136 188//136 122//136
f 35//137 136//137 196//137 142//137
f 35//138 142//138 195//138 126//138
f 35//139 126//139 175//139 95//139
f 35//140 95//140 158//140 136//140
f 36//141 126//141 195//141 141//141
f 36//142 141//142 197//142 128//142
f 36//143 128//143 176//143 102//143
f 36//144 102//144 175//144 126//144
f 37//145 138//145 198//145 140//145
f 37//146 140//146 196//146 136//146
f 37//147 136//147 158//147 59//147
f 37//148 59//148 156//148 138//148
f 38//149 128//149 197//149 139//149
f 38//150 139//150 198//150 138//150
f 38//151 138//151 156//151 84//151
f 38//152 84//152 176//152 128//152
f 39//153 129//153 189//153 117//153
f 39//154 117//154 187//154 133//154
f 39//155 133//155 191//155 124//155
f 39//156 124//156 192//156 129//156
f 40//157 132//157 188//157 116//157
f 40//158 116//158 190//158 131//158
f 40//159 131//159 194//159 125//159
f 40//160 125//160 193//160 132//160
f 41//161 133//161 187//161 118//161
f 41//162 118//162 188//162 132//162
f 41//163 132//163 193//163 134//163
f 41//164 134//164 191//164 133//164
f 42//165 79//165 168//165 87//165
f 42//166 87//166 172//166 94//166
f 42//167 94//167 171//167 89//167
f 42//168 89//168 167//168 79//168
f 43//169 137//169 194//169 123//169
f 43//170 123//170 192//170 130//170
f 43//171 130//171 198//171 139//171
f 43//172 139//172 197//172 137//172
f 44//173 130//173 192//173 124//173
f 44//174 124//174 191//174 127//174
f 44//175 127//175 196//175 140//175
f 44//176 140//176 198//176 130//176
f 45//177 135//177 193//177 125//177
f 45//178 125//178 194//178 137//178
f 45//179 137//179 197//179 141//179
f 45//180 141//180 195//180 135//180
f 46//181 127//181 191//181 134//181
f 46//182 134//182 193//182 135//182
f 46//183 135//183 195//183 142//183
f 46//184 142//184 196//184 127//184
f 47//185 66//185 162//185 67//185
f 47//186 67//186 159//186 143//186
f 47//187 143//187 199//187 147//187
f 47//188 147//188 202//188 66//188
f 48//189 65//189 161//189 68//189
f 48//190 68//190 162//190 66//190
f 48//191 66//191 202//191 148//191
f 48//192 148//192 201//192 65//192
f 49//193 64//193 160//193 69//193
f 49//194 69//194 161//194 65//194
f 49//195 65//195 201//195 149//195
f 49//196 149//196 200//196 64//196
f 50//197 143//197 159//197 70//197
f 50//198 70//198 160//198 64//198
f 50//199 64//199 200//199 150//199
f 50//200 150//200 199//200 143//200
