# Blender v2.79 (sub 0) OBJ File: 'Arrow.blend'
# www.blender.org
mtllib Arrow.mtl
o Arrow_Cylinder.001
v 0.003461 -0.008033 0.035540
v -0.128496 -0.083565 -0.042227
v -0.005571 0.007747 0.035540
v -0.137528 -0.067785 -0.042227
v 0.003461 -0.008033 0.390436
v -0.055644 -0.041864 0.318799
v -0.005571 0.007747 0.390436
v -0.064676 -0.026085 0.318799
v -0.005571 0.007747 0.289624
v -0.005571 0.007747 0.251666
v -0.005571 0.007747 0.213709
v -0.005571 0.007747 0.175752
v -0.005571 0.007747 0.137795
v -0.005571 0.007747 0.099838
v -0.113707 -0.054150 0.059162
v -0.057044 -0.021716 0.108391
v -0.109542 -0.051766 0.095679
v -0.092644 -0.042094 0.196607
v -0.051633 -0.018619 0.241983
v -0.083963 -0.037125 0.238002
v 0.003461 -0.008033 0.099838
v 0.003461 -0.008033 0.137795
v 0.003461 -0.008033 0.175752
v 0.003461 -0.008033 0.213709
v 0.003461 -0.008033 0.251666
v 0.003461 -0.008033 0.289624
v -0.074931 -0.052904 0.238002
v -0.042601 -0.034399 0.241983
v -0.083612 -0.057873 0.196607
v -0.100510 -0.067545 0.095679
v -0.048012 -0.037495 0.108391
v -0.104675 -0.069930 0.059162
v 0.005226 0.007014 0.035540
v 0.136617 -0.069499 -0.042227
v -0.003923 -0.008698 0.035540
v 0.127468 -0.085210 -0.042227
v 0.005226 0.007014 0.390436
v 0.064077 -0.027257 0.318799
v -0.003923 -0.008698 0.390436
v 0.054928 -0.042968 0.318799
v -0.003923 -0.008698 0.289624
v -0.003923 -0.008698 0.251666
v -0.003923 -0.008698 0.213709
v -0.003923 -0.008698 0.175752
v -0.003923 -0.008698 0.137795
v -0.003923 -0.008698 0.099838
v 0.103749 -0.071398 0.059162
v 0.047329 -0.038543 0.108391
v 0.099601 -0.068983 0.095679
v 0.082776 -0.059185 0.196607
v 0.041941 -0.035406 0.241983
v 0.074133 -0.054152 0.238002
v 0.005226 0.007014 0.099838
v 0.005226 0.007014 0.137795
v 0.005226 0.007014 0.175752
v 0.005226 0.007014 0.213709
v 0.005226 0.007014 0.251666
v 0.005226 0.007014 0.289624
v 0.083282 -0.038440 0.238002
v 0.051091 -0.019694 0.241983
v 0.091925 -0.043473 0.196607
v 0.108751 -0.053271 0.095679
v 0.056478 -0.022831 0.108391
v 0.112899 -0.055687 0.059162
v -0.008687 0.001019 0.035540
v -0.008121 0.153064 -0.042227
v 0.009494 0.000952 0.035540
v 0.010060 0.152996 -0.042227
v -0.008687 0.001019 0.390436
v -0.008434 0.069121 0.318799
v 0.009494 0.000952 0.390436
v 0.009748 0.069053 0.318799
v 0.009494 0.000952 0.289624
v 0.009494 0.000952 0.251666
v 0.009494 0.000952 0.213709
v 0.009494 0.000952 0.175752
v 0.009494 0.000952 0.137795
v 0.009494 0.000952 0.099838
v 0.009958 0.125549 0.059162
v 0.009715 0.060260 0.108391
v 0.009940 0.120749 0.095679
v 0.009868 0.101279 0.196607
v 0.009692 0.054025 0.241983
v 0.009830 0.091277 0.238002
v -0.008687 0.001019 0.099838
v -0.008687 0.001019 0.137795
v -0.008687 0.001019 0.175752
v -0.008687 0.001019 0.213709
v -0.008687 0.001019 0.251666
v -0.008687 0.001019 0.289624
v -0.008351 0.091344 0.238002
v -0.008490 0.054093 0.241983
v -0.008314 0.101347 0.196607
v -0.008241 0.120817 0.095679
v -0.008466 0.060327 0.108391
v -0.008223 0.125617 0.059162
v 0.022856 -0.000000 2.268556
v 0.022856 -0.000000 -0.005741
v 0.011428 0.019794 2.268556
v 0.011428 0.019794 -0.005741
v -0.011428 0.019794 2.268556
v -0.011428 0.019794 -0.005741
v -0.022856 0.000000 2.268556
v -0.022856 0.000000 -0.005741
v -0.011428 -0.019794 2.268556
v -0.011428 -0.019794 -0.005741
v 0.011428 -0.019794 2.268556
v 0.011428 -0.019794 -0.005741
v 0.022856 -0.000000 2.307990
v 0.011428 0.066155 2.307990
v -0.011428 0.066155 2.307990
v -0.022856 -0.000000 2.307990
v -0.011428 -0.066155 2.307990
v 0.011428 -0.066155 2.307990
v 0.007107 -0.000000 2.691597
v 0.003553 0.006948 2.691597
v -0.003553 0.006948 2.691597
v -0.007106 0.000000 2.691597
v -0.003553 -0.006948 2.691597
v 0.003553 -0.006948 2.691597
vn 0.8660 0.5000 -0.0000
vn 0.0000 1.0000 0.0000
vn -0.8660 0.5000 0.0000
vn -0.8660 -0.5000 0.0000
vn -0.0000 0.0000 -1.0000
vn -0.0000 -1.0000 0.0000
vn 0.8660 -0.5000 -0.0000
vn -0.9556 0.2541 -0.1494
vn 0.9786 0.2005 0.0456
vn 0.9556 -0.2541 -0.1494
vn -0.9556 -0.2541 -0.1494
vn 0.9556 0.2541 -0.1494
vn 0.9786 -0.2005 0.0456
vn -0.9786 -0.2005 0.0456
vn -0.9786 0.2005 0.0456
vn 0.0000 0.6479 -0.7617
vn 0.0000 -0.6479 -0.7617
vn -0.0000 0.0000 1.0000
vn -0.0000 0.9883 0.1525
vn -0.0000 -0.9883 0.1525
vn 0.3952 0.2262 -0.8903
vn -0.4968 0.8679 0.0000
vn -0.6290 -0.3600 0.6890
vn 0.4968 -0.8679 -0.0000
vn 0.8679 0.4968 0.0000
vn -0.8377 -0.4795 0.2613
vn -0.8368 -0.4790 0.2652
vn 0.0922 0.0528 -0.9943
vn -0.6011 -0.3441 0.7213
vn -0.8522 -0.4878 0.1894
vn 0.1785 0.1022 -0.9786
vn -0.5225 -0.2991 0.7985
vn -0.3935 0.2292 -0.8903
vn -0.5032 -0.8642 -0.0000
vn 0.6263 -0.3647 0.6890
vn 0.5032 0.8642 0.0000
vn -0.8642 0.5032 0.0000
vn 0.8341 -0.4857 0.2613
vn 0.8332 -0.4852 0.2652
vn -0.0918 0.0535 -0.9943
vn 0.5985 -0.3485 0.7213
vn 0.8485 -0.4941 0.1894
vn -0.1777 0.1035 -0.9786
vn 0.5203 -0.3030 0.7985
vn -0.0017 -0.4554 -0.8903
vn 1.0000 -0.0037 -0.0000
vn 0.0027 0.7248 0.6890
vn -1.0000 0.0037 -0.0000
vn -0.0037 -1.0000 0.0000
vn 0.0036 0.9652 0.2613
vn 0.0036 0.9642 0.2652
vn -0.0004 -0.1063 -0.9943
vn 0.0026 0.6926 0.7213
vn 0.0037 0.9819 0.1894
vn -0.0008 -0.2057 -0.9786
vn 0.0022 0.6020 0.7985
usemtl LightWood
s off
f 97//1 98//1 100//1 99//1
f 99//2 100//2 102//2 101//2
f 101//3 102//3 104//3 103//3
f 103//4 104//4 106//4 105//4
f 100//5 98//5 108//5 106//5 104//5 102//5
f 105//6 106//6 108//6 107//6
f 107//7 108//7 98//7 97//7
usemtl Steel
f 101//8 103//8 112//8 111//8
f 109//9 110//9 116//9 115//9
f 107//10 97//10 109//10 114//10
f 103//11 105//11 113//11 112//11
f 97//12 99//12 110//12 109//12
f 114//13 109//13 115//13 120//13
f 112//14 113//14 119//14 118//14
f 111//15 112//15 118//15 117//15
usemtl LightSteel
f 99//16 101//16 111//16 110//16
f 105//17 107//17 114//17 113//17
f 115//18 116//18 117//18 118//18 119//18 120//18
f 110//19 111//19 117//19 116//19
f 113//20 114//20 120//20 119//20
usemtl Red
f 1//21 2//21 4//21 3//21
f 9//22 20//22 8//22 7//22
f 7//23 8//23 6//23 5//23
f 21//24 32//24 2//24 1//24
f 9//25 7//25 5//25 26//25
f 15//26 4//26 2//26 32//26
f 8//27 20//27 27//27 6//27
f 20//28 19//28 28//28 27//28
f 19//29 18//29 29//29 28//29
f 18//30 17//30 30//30 29//30
f 17//31 16//31 31//31 30//31
f 16//32 15//32 32//32 31//32
f 3//25 14//25 21//25 1//25
f 14//25 13//25 22//25 21//25
f 13//25 12//25 23//25 22//25
f 12//25 11//25 24//25 23//25
f 11//25 10//25 25//25 24//25
f 10//25 9//25 26//25 25//25
f 5//24 6//24 27//24 26//24
f 26//24 27//24 28//24 25//24
f 25//24 28//24 29//24 24//24
f 24//24 29//24 30//24 23//24
f 23//24 30//24 31//24 22//24
f 22//24 31//24 32//24 21//24
f 3//22 4//22 15//22 14//22
f 14//22 15//22 16//22 13//22
f 13//22 16//22 17//22 12//22
f 12//22 17//22 18//22 11//22
f 11//22 18//22 19//22 10//22
f 10//22 19//22 20//22 9//22
f 33//33 34//33 36//33 35//33
f 41//34 52//34 40//34 39//34
f 39//35 40//35 38//35 37//35
f 53//36 64//36 34//36 33//36
f 41//37 39//37 37//37 58//37
f 47//38 36//38 34//38 64//38
f 40//39 52//39 59//39 38//39
f 52//40 51//40 60//40 59//40
f 51//41 50//41 61//41 60//41
f 50//42 49//42 62//42 61//42
f 49//43 48//43 63//43 62//43
f 48//44 47//44 64//44 63//44
f 35//37 46//37 53//37 33//37
f 46//37 45//37 54//37 53//37
f 45//37 44//37 55//37 54//37
f 44//37 43//37 56//37 55//37
f 43//37 42//37 57//37 56//37
f 42//37 41//37 58//37 57//37
f 37//36 38//36 59//36 58//36
f 58//36 59//36 60//36 57//36
f 57//36 60//36 61//36 56//36
f 56//36 61//36 62//36 55//36
f 55//36 62//36 63//36 54//36
f 54//36 63//36 64//36 53//36
f 35//34 36//34 47//34 46//34
f 46//34 47//34 48//34 45//34
f 45//34 48//34 49//34 44//34
f 44//34 49//34 50//34 43//34
f 43//34 50//34 51//34 42//34
f 42//34 51//34 52//34 41//34
f 65//45 66//45 68//45 67//45
f 73//46 84//46 72//46 71//46
f 71//47 72//47 70//47 69//47
f 85//48 96//48 66//48 65//48
f 73//49 71//49 69//49 90//49
f 79//50 68//50 66//50 96//50
f 72//51 84//51 91//51 70//51
f 84//52 83//52 92//52 91//52
f 83//53 82//53 93//53 92//53
f 82//54 81//54 94//54 93//54
f 81//55 80//55 95//55 94//55
f 80//56 79//56 96//56 95//56
f 67//49 78//49 85//49 65//49
f 78//49 77//49 86//49 85//49
f 77//49 76//49 87//49 86//49
f 76//49 75//49 88//49 87//49
f 75//49 74//49 89//49 88//49
f 74//49 73//49 90//49 89//49
f 69//48 70//48 91//48 90//48
f 90//48 91//48 92//48 89//48
f 89//48 92//48 93//48 88//48
f 88//48 93//48 94//48 87//48
f 87//48 94//48 95//48 86//48
f 86//48 95//48 96//48 85//48
f 67//46 68//46 79//46 78//46
f 78//46 79//46 80//46 77//46
f 77//46 80//46 81//46 76//46
f 76//46 81//46 82//46 75//46
f 75//46 82//46 83//46 74//46
f 74//46 83//46 84//46 73//46
