# Blender v2.79 (sub 0) OBJ File: 'Bush_2.blend'
# www.blender.org
mtllib Bush_2.mtl
o Bush_2_Cube.042
v -0.439841 0.434561 -0.397019
v -0.513054 0.445090 0.222069
v 0.512878 0.458356 0.308091
v 0.497222 0.445796 -0.257879
v -0.389856 0.773476 -0.372809
v 0.054756 0.799174 -0.602466
v -0.030923 0.478752 0.574159
v 0.096625 0.445802 -0.620965
v 0.117749 0.991335 -0.113525
v -0.132074 1.016442 0.014726
v 0.369430 0.743940 -0.236149
v -0.483866 0.768638 0.185376
v 0.418286 0.778527 0.256259
v -0.020339 0.798108 0.482463
v 0.032025 -0.081681 -0.000531
v 0.106846 0.253282 -0.619794
v -0.020337 0.271190 0.621582
v 0.546401 0.269945 -0.253636
v 0.538467 0.267688 0.335194
v -0.533233 0.281582 0.254334
v -0.435620 0.252910 -0.367127
v -0.443989 0.110845 -0.352551
v 0.541793 0.107287 0.343615
v -0.015313 0.103601 0.641931
v -0.555061 0.110720 0.272165
v 0.562873 0.107072 -0.247429
v 0.110364 0.103370 -0.638831
v -0.049584 0.575964 0.509583
v 0.469949 0.553943 0.284949
v -0.506446 0.536424 0.211872
v 0.455982 0.580418 -0.261323
v 0.087698 0.567222 -0.629275
v -0.367021 0.561402 -0.352880
v 0.346705 0.455023 -0.540433
v -0.345808 0.549002 -0.325325
v -0.490250 0.540316 0.203515
v 0.453240 0.555143 0.276041
v 0.434926 0.563336 -0.238199
v 0.083159 0.556523 -0.595233
v -0.035552 0.573277 0.494804
v 0.269421 0.780282 -0.504660
v -0.279048 0.966501 -0.231436
v -0.318437 0.957127 0.106153
v 0.279249 0.952191 0.120476
v 0.254433 0.922057 -0.178842
v 0.052624 0.969241 -0.391813
v -0.025684 0.940572 0.256167
v 0.011954 1.028883 -0.057673
v -0.154954 0.576949 -0.546665
v -0.522228 0.514732 -0.097567
v 0.424446 0.740364 0.032147
v -0.344583 0.565534 0.450812
v 0.228162 0.787335 0.381077
v 0.319976 0.106257 0.540915
v -0.671510 0.112234 -0.086515
v -0.359671 0.102672 0.585493
v 0.673004 0.105818 0.087103
v 0.358501 0.106789 -0.512441
v -0.183849 0.103766 -0.569981
v 0.100588 -0.048266 -0.523833
v -0.006495 -0.048650 0.521819
v 0.503045 -0.064743 -0.221458
v 0.449652 -0.032053 0.277346
v -0.473715 -0.047957 0.235264
v 0.362651 0.261568 -0.529625
v -0.535483 0.423025 -0.091956
v -0.341651 0.470110 0.483258
v 0.583783 0.448350 0.050075
v 0.285775 0.463939 0.471101
v -0.173563 0.439029 -0.575506
v 0.111599 0.300611 -0.663947
v -0.028140 0.329078 0.663947
v 0.619179 0.307636 -0.302502
v 0.578936 0.313109 0.351961
v -0.588376 0.311873 0.270566
v -0.453800 0.285515 -0.399901
v -0.607035 0.256009 -0.085408
v -0.360201 0.265791 0.566075
v 0.610116 0.274827 0.070766
v 0.318778 0.264214 0.537267
v -0.179978 0.229214 -0.578332
v -0.380373 -0.047681 -0.311087
v -0.446489 0.230285 -0.362474
v -0.500497 0.247725 0.243532
v 0.502843 0.241161 0.320585
v 0.493334 0.243669 -0.216694
v -0.015313 0.241542 0.548898
v 0.099787 0.227194 -0.589010
v 0.318508 0.569263 -0.533753
v -0.156297 0.785197 -0.499337
v -0.530515 0.755842 -0.125535
v 0.511555 0.574526 0.035478
v -0.294643 0.789289 0.430984
v 0.250978 0.580121 0.424495
v -0.050313 0.625086 0.569712
v 0.507691 0.604308 0.308215
v -0.528232 0.586760 0.217244
v 0.495233 0.602045 -0.289391
v 0.083289 0.623858 -0.642204
v -0.445581 0.573241 -0.427699
v 0.314742 0.556437 -0.506996
v -0.516081 0.520918 -0.096761
v 0.475086 0.561809 0.035960
v -0.319515 0.564875 0.434810
v -0.144537 0.562175 -0.499736
v 0.243294 0.570557 0.408500
v -0.108658 0.975162 -0.333399
v -0.346082 0.884312 -0.091094
v -0.194392 0.897892 0.266173
v 0.151779 0.975581 0.225469
v 0.301726 0.866064 0.000681
v 0.155642 0.875276 -0.336166
v 0.332855 0.003620 -0.448358
v -0.164285 -0.003675 -0.499422
v 0.274314 -0.000624 0.475005
v 0.608228 -0.024226 0.060976
v -0.295636 0.000984 0.470784
v -0.549638 -0.006726 -0.059095
v 0.367157 0.312439 -0.558968
v -0.673004 0.285623 -0.108040
v -0.377210 0.329547 0.565492
v 0.647759 0.311377 0.063415
v 0.338054 0.319641 0.562582
v -0.193229 0.281632 -0.636957
v -0.543726 0.251870 -0.068738
v -0.332008 0.237107 0.538010
v 0.626677 0.236395 0.080215
v 0.302241 0.239259 0.516582
v -0.165295 0.229202 -0.514173
v 0.354850 0.232394 -0.502342
v 0.310721 0.616300 -0.549856
v -0.190632 0.608446 -0.631497
v -0.536884 0.565401 -0.106594
v 0.555817 0.595800 0.038299
v -0.385687 0.615207 0.513154
v 0.285697 0.618732 0.488435
vn -0.6033 0.2267 -0.7646
vn -0.7946 0.4474 -0.4105
vn -0.7768 0.5247 -0.3482
vn -0.4835 0.6286 -0.6092
vn -0.7792 0.6221 0.0770
vn -0.7251 0.5130 0.4594
vn -0.7818 0.3636 0.5065
vn -0.9735 0.2202 0.0616
vn 0.5384 0.5273 0.6573
vn 0.8703 0.4442 0.2129
vn 0.7584 0.6373 0.1369
vn 0.4834 0.5570 0.6754
vn 0.8122 0.5653 -0.1441
vn 0.7102 0.4768 -0.5180
vn 0.8058 0.4424 -0.3937
vn 0.7896 0.5887 -0.1729
vn -0.9137 0.1788 -0.3649
vn -0.6748 0.7165 -0.1770
vn -0.3912 0.6690 -0.6320
vn -0.5236 0.4758 -0.7068
vn -0.2309 0.4300 -0.8728
vn -0.2938 0.7084 -0.6418
vn 0.4730 0.7834 -0.4031
vn 0.3921 0.2985 -0.8701
vn -0.2424 0.5148 0.8224
vn 0.2587 0.5416 0.7998
vn 0.2591 0.5967 0.7595
vn -0.2188 0.5598 0.7992
vn 0.3261 0.2358 -0.9155
vn -0.1325 0.3252 -0.9363
vn -0.2506 0.3994 -0.8819
vn 0.3084 0.3163 -0.8972
vn 0.2645 0.9642 0.0183
vn 0.6117 0.7805 -0.1293
vn 0.5240 0.7885 -0.3219
vn 0.0895 0.9823 -0.1644
vn -0.1491 0.9081 0.3912
vn -0.0574 0.9628 0.2640
vn -0.1356 0.9828 -0.1257
vn -0.5121 0.8582 -0.0359
vn 0.7649 0.5339 -0.3604
vn 0.5968 0.7454 -0.2969
vn 0.7800 0.6184 -0.0959
vn 0.7271 0.6741 -0.1299
vn -0.7833 0.4390 0.4401
vn -0.4655 0.7719 0.4329
vn -0.6730 0.7392 -0.0261
vn -0.9863 0.1451 0.0781
vn 0.8185 0.5734 0.0358
vn 0.7846 0.6011 -0.1519
vn 0.4604 0.7066 0.5373
vn 0.5225 0.5332 0.6654
vn 0.2727 0.4927 0.8264
vn 0.1514 0.7630 0.6284
vn -0.1463 0.8482 0.5090
vn -0.1674 0.4790 0.8617
vn -0.0593 -0.9896 -0.1314
vn 0.0670 -0.9874 -0.1430
vn 0.0910 -0.9930 0.0748
vn 0.0991 -0.9881 0.1179
vn -0.0757 -0.9898 0.1210
vn -0.1256 -0.9918 -0.0220
vn 0.2397 -0.7332 -0.6364
vn -0.0170 -0.9644 -0.2638
vn -0.0281 -0.7185 -0.6950
vn 0.3084 -0.5885 -0.7474
vn -0.0367 -0.8700 0.4916
vn 0.0760 -0.8648 0.4964
vn 0.2066 -0.5170 0.8306
vn -0.2015 -0.3547 0.9130
vn 0.7597 -0.6030 -0.2433
vn 0.4919 -0.8331 -0.2531
vn 0.4898 -0.7769 -0.3957
vn 0.5353 -0.8424 -0.0610
vn 0.4460 -0.7675 0.4605
vn 0.8931 -0.2894 0.3445
vn 0.7032 -0.6899 0.1719
vn 0.5432 -0.5765 0.6104
vn -0.3713 -0.9235 0.0970
vn -0.5852 -0.7546 0.2968
vn -0.6794 -0.5931 0.4321
vn -0.4444 -0.8811 0.1616
vn -0.2397 -0.9261 -0.2914
vn -0.4010 -0.9040 -0.1484
vn -0.4365 -0.8508 -0.2925
vn -0.4770 -0.7193 -0.5051
vn -0.7875 0.3951 -0.4731
vn -0.5513 0.1884 -0.8127
vn -0.5533 -0.4643 -0.6916
vn -0.6751 -0.5681 -0.4707
vn 0.8443 0.3208 0.4293
vn 0.6561 0.2648 0.7067
vn 0.5336 -0.6120 0.5837
vn 0.7097 -0.5600 0.4274
vn 0.1831 0.4008 0.8977
vn -0.0935 0.4639 0.8809
vn -0.1719 -0.6950 0.6982
vn 0.2341 -0.5887 0.7737
vn -0.7902 0.3752 0.4846
vn -0.8147 0.5448 0.1985
vn -0.7884 -0.5837 0.1940
vn -0.6243 -0.6230 0.4712
vn 0.8058 0.3041 -0.5081
vn 0.8567 0.4005 -0.3249
vn 0.8858 -0.3655 -0.2859
vn 0.6977 -0.4094 -0.5879
vn -0.2280 0.3861 -0.8938
vn 0.3754 0.2367 -0.8961
vn 0.3736 -0.5676 -0.7337
vn -0.1793 -0.5773 -0.7966
vn 0.1171 -0.9142 0.3881
vn 0.1398 -0.8261 0.5459
vn -0.0857 -0.7896 0.6076
vn 0.0081 -0.9930 0.1182
vn 0.2156 -0.9761 -0.0264
vn 0.6382 -0.7643 0.0925
vn 0.3164 -0.7828 0.5358
vn 0.0690 -0.9642 0.2562
vn 0.1022 -0.9939 0.0412
vn -0.6122 -0.6697 0.4205
vn -0.9397 -0.3369 0.0592
vn 0.4200 -0.9069 0.0325
vn 0.5310 -0.8168 -0.2255
vn 0.6911 -0.5875 -0.4210
vn 0.4312 -0.8969 -0.0976
vn 0.4310 -0.8984 -0.0839
vn -0.1400 -0.9474 -0.2879
vn -0.1074 -0.7599 -0.6411
vn 0.3687 -0.2102 -0.9055
vn 0.1393 -0.9298 -0.3407
vn -0.0388 -0.9833 -0.1780
vn -0.3775 -0.8928 -0.2459
vn -0.0741 -0.9746 -0.2115
vn -0.1755 -0.9465 -0.2708
usemtl Green
s off
f 1//1 70//1 124//1 76//1
f 1//2 76//2 120//2 66//2
f 1//3 66//3 102//3 35//3
f 1//4 35//4 105//4 70//4
f 2//5 66//5 120//5 75//5
f 2//6 75//6 121//6 67//6
f 2//7 67//7 104//7 36//7
f 2//8 36//8 102//8 66//8
f 3//9 69//9 123//9 74//9
f 3//10 74//10 122//10 68//10
f 3//11 68//11 103//11 37//11
f 3//12 37//12 106//12 69//12
f 4//13 68//13 122//13 73//13
f 4//14 73//14 119//14 34//14
f 4//15 34//15 101//15 38//15
f 4//16 38//16 103//16 68//16
f 5//17 100//17 133//17 91//17
f 5//18 91//18 108//18 42//18
f 5//19 42//19 107//19 90//19
f 5//20 90//20 132//20 100//20
f 6//21 99//21 132//21 90//21
f 6//22 90//22 107//22 46//22
f 6//23 46//23 112//23 41//23
f 6//24 41//24 131//24 99//24
f 7//25 67//25 121//25 72//25
f 7//26 72//26 123//26 69//26
f 7//27 69//27 106//27 40//27
f 7//28 40//28 104//28 67//28
f 8//29 34//29 119//29 71//29
f 8//30 71//30 124//30 70//30
f 8//31 70//31 105//31 39//31
f 8//32 39//32 101//32 34//32
f 9//33 48//33 110//33 44//33
f 9//34 44//34 111//34 45//34
f 9//35 45//35 112//35 46//35
f 9//36 46//36 107//36 48//36
f 10//37 43//37 109//37 47//37
f 10//38 47//38 110//38 48//38
f 10//39 48//39 107//39 42//39
f 10//40 42//40 108//40 43//40
f 11//41 98//41 131//41 41//41
f 11//42 41//42 112//42 45//42
f 11//43 45//43 111//43 51//43
f 11//44 51//44 134//44 98//44
f 12//45 97//45 135//45 93//45
f 12//46 93//46 109//46 43//46
f 12//47 43//47 108//47 91//47
f 12//48 91//48 133//48 97//48
f 13//49 96//49 134//49 51//49
f 13//50 51//50 111//50 44//50
f 13//51 44//51 110//51 53//51
f 13//52 53//52 136//52 96//52
f 14//53 95//53 136//53 53//53
f 14//54 53//54 110//54 47//54
f 14//55 47//55 109//55 93//55
f 14//56 93//56 135//56 95//56
f 15//57 82//57 114//57 60//57
f 15//58 60//58 113//58 62//58
f 15//59 62//59 116//59 63//59
f 15//60 63//60 115//60 61//60
f 15//61 61//61 117//61 64//61
f 15//62 64//62 118//62 82//62
f 16//63 65//63 130//63 88//63
f 16//64 88//64 129//64 81//64
f 16//65 81//65 124//65 71//65
f 16//66 71//66 119//66 65//66
f 17//67 78//67 126//67 87//67
f 17//68 87//68 128//68 80//68
f 17//69 80//69 123//69 72//69
f 17//70 72//70 121//70 78//70
f 18//71 79//71 127//71 86//71
f 18//72 86//72 130//72 65//72
f 18//73 65//73 119//73 73//73
f 18//74 73//74 122//74 79//74
f 19//75 80//75 128//75 85//75
f 19//76 85//76 127//76 79//76
f 19//77 79//77 122//77 74//77
f 19//78 74//78 123//78 80//78
f 20//79 77//79 125//79 84//79
f 20//80 84//80 126//80 78//80
f 20//81 78//81 121//81 75//81
f 20//82 75//82 120//82 77//82
f 21//83 81//83 129//83 83//83
f 21//84 83//84 125//84 77//84
f 21//85 77//85 120//85 76//85
f 21//86 76//86 124//86 81//86
f 22//87 55//87 125//87 83//87
f 22//88 83//88 129//88 59//88
f 22//89 59//89 114//89 82//89
f 22//90 82//90 118//90 55//90
f 23//91 57//91 127//91 85//91
f 23//92 85//92 128//92 54//92
f 23//93 54//93 115//93 63//93
f 23//94 63//94 116//94 57//94
f 24//95 54//95 128//95 87//95
f 24//96 87//96 126//96 56//96
f 24//97 56//97 117//97 61//97
f 24//98 61//98 115//98 54//98
f 25//99 56//99 126//99 84//99
f 25//100 84//100 125//100 55//100
f 25//101 55//101 118//101 64//101
f 25//102 64//102 117//102 56//102
f 26//103 58//103 130//103 86//103
f 26//104 86//104 127//104 57//104
f 26//105 57//105 116//105 62//105
f 26//106 62//106 113//106 58//106
f 27//107 59//107 129//107 88//107
f 27//108 88//108 130//108 58//108
f 27//109 58//109 113//109 60//109
f 27//110 60//110 114//110 59//110
f 28//111 40//111 106//111 94//111
f 28//112 94//112 136//112 95//112
f 28//113 95//113 135//113 52//113
f 28//114 52//114 104//114 40//114
f 29//115 37//115 103//115 92//115
f 29//116 92//116 134//116 96//116
f 29//117 96//117 136//117 94//117
f 29//118 94//118 106//118 37//118
f 30//119 36//119 104//119 52//119
f 30//120 52//120 135//120 97//120
f 30//121 97//121 133//121 50//121
f 30//122 50//122 102//122 36//122
f 31//123 38//123 101//123 89//123
f 31//124 89//124 131//124 98//124
f 31//125 98//125 134//125 92//125
f 31//126 92//126 103//126 38//126
f 32//127 39//127 105//127 49//127
f 32//128 49//128 132//128 99//128
f 32//129 99//129 131//129 89//129
f 32//130 89//130 101//130 39//130
f 33//131 35//131 102//131 50//131
f 33//132 50//132 133//132 100//132
f 33//133 100//133 132//133 49//133
f 33//134 49//134 105//134 35//134
