# Blender v2.79 (sub 0) OBJ File: 'Cactus_3.blend'
# www.blender.org
mtllib Cactus_3.mtl
o Cactus_3_Cube.009
v -0.122941 0.187502 0.000000
v 0.000000 0.187502 -0.122941
v 0.122941 0.187502 0.000000
v 0.000000 0.187502 0.122941
v 0.000000 -0.010727 0.000000
v 0.000000 0.777751 -0.168476
v 0.154511 1.307071 0.000000
v 0.168476 0.777751 0.000000
v -0.168476 0.777751 0.000000
v 0.000000 0.777751 0.168476
v 0.000000 1.399903 0.000000
v -0.154511 1.307071 0.000000
v 0.000000 1.307071 0.154511
v 0.000000 1.307071 -0.154511
v 0.000000 0.011508 0.089277
v 0.089277 0.011508 0.000000
v 0.000000 0.011508 -0.089277
v -0.089277 0.011508 0.000000
v -0.015456 0.874929 -0.423431
v 0.048244 1.021946 -0.425167
v 0.056448 0.910831 -0.361132
v -0.087360 0.910831 -0.361132
v -0.015456 0.946734 -0.298833
v -0.015456 1.055105 -0.444277
v -0.079155 1.021946 -0.425167
v -0.015456 1.053752 -0.369977
v -0.015456 0.990140 -0.480358
v -0.015456 0.862430 -0.226040
v -0.084198 0.823768 -0.280087
v 0.053287 0.823768 -0.280087
v -0.015456 0.785107 -0.334134
v -0.015456 0.740268 -0.189384
v 0.050840 0.792567 -0.156345
v -0.081751 0.792567 -0.156345
v -0.015456 0.844865 -0.123306
v -0.015456 0.686876 0.463437
v -0.090078 0.858912 0.455078
v -0.099690 0.724456 0.388051
v 0.068778 0.724456 0.388051
v -0.015456 0.762036 0.312665
v -0.015456 0.899037 0.475080
v 0.059167 0.858912 0.455078
v -0.015456 0.892204 0.388293
v -0.015456 0.825620 0.521862
v -0.015456 0.658310 0.233503
v 0.065075 0.616921 0.299434
v -0.095986 0.616921 0.299434
v -0.015456 0.575532 0.365365
v -0.015456 0.512871 0.199271
v -0.093120 0.571691 0.156942
v 0.062208 0.571691 0.156942
v -0.015456 0.630511 0.114612
v -0.066958 -0.005168 0.000000
v -0.092206 0.187502 0.092206
v -0.151157 0.411944 0.000000
v -0.066958 0.011508 -0.066958
v 0.000000 -0.005168 -0.066958
v 0.000000 0.411944 -0.151157
v 0.066958 0.011508 -0.066958
v 0.066958 -0.005168 0.000000
v 0.151157 0.411944 0.000000
v 0.066958 0.011508 0.066958
v 0.000000 -0.005168 0.066958
v 0.000000 0.411944 0.151157
v -0.170921 1.128326 0.000000
v 0.000000 1.128326 -0.170921
v 0.170921 1.128326 0.000000
v 0.000000 1.128326 0.170921
v -0.126357 0.777751 -0.126357
v 0.126357 0.777751 -0.126357
v 0.126357 0.777751 0.126357
v -0.126357 0.777751 0.126357
v -0.102965 1.376695 0.000000
v 0.000000 1.376695 -0.102965
v 0.102965 1.376695 0.000000
v 0.000000 1.376695 0.102965
v 0.115883 1.307071 -0.115883
v 0.115883 1.307071 0.115883
v -0.115883 1.307071 0.115883
v -0.115883 1.307071 -0.115883
v -0.066958 0.011508 0.066958
v -0.092206 0.187502 -0.092206
v 0.092206 0.187502 -0.092206
v 0.092206 0.187502 0.092206
v 0.000000 0.066625 0.097693
v 0.097693 0.066625 0.000000
v 0.000000 0.066625 -0.097693
v -0.097693 0.066625 0.000000
v -0.080019 0.770473 -0.068722
v -0.015456 0.708517 -0.086885
v 0.049107 0.770473 -0.068722
v -0.015456 0.832428 -0.050559
v -0.086532 0.977588 -0.399604
v -0.015456 0.942098 -0.461186
v 0.055621 0.977588 -0.399604
v -0.015456 1.013077 -0.338022
v -0.069384 0.883904 -0.407856
v 0.034266 0.753343 -0.181124
v 0.034266 0.831791 -0.131566
v -0.069384 0.937758 -0.314408
v -0.057905 1.046815 -0.439499
v -0.015456 1.025620 -0.476278
v 0.026993 1.046815 -0.439499
v -0.015456 1.068010 -0.402721
v 0.032319 0.998091 -0.466560
v 0.032319 1.045800 -0.383774
v -0.063230 1.045800 -0.383774
v -0.063230 0.998091 -0.466560
v -0.067013 0.794772 -0.320622
v 0.038472 0.883904 -0.407856
v 0.038472 0.937758 -0.314408
v -0.067013 0.852764 -0.239552
v -0.015456 0.886069 -0.259232
v -0.085346 0.850088 -0.318408
v 0.054434 0.850088 -0.318408
v -0.015456 0.814106 -0.377584
v 0.036101 0.794772 -0.320622
v 0.036101 0.852764 -0.239552
v -0.065177 0.753343 -0.181124
v -0.065177 0.831791 -0.131566
v -0.015456 0.767353 -0.276821
v 0.052318 0.811414 -0.231092
v -0.083229 0.811414 -0.231092
v -0.015456 0.855475 -0.185363
v 0.060178 0.539663 0.056042
v -0.015456 0.468500 0.081659
v -0.091090 0.539663 0.056042
v -0.015456 0.610827 0.030425
v 0.067809 0.805236 0.428320
v -0.015456 0.768088 0.502838
v -0.098720 0.805236 0.428320
v -0.015456 0.842383 0.353801
v 0.047720 0.696270 0.444591
v -0.073704 0.527576 0.188689
v -0.073704 0.615806 0.125195
v 0.047720 0.752641 0.331511
v 0.034272 0.889006 0.470079
v -0.015456 0.866820 0.514584
v -0.065184 0.889006 0.470079
v -0.015456 0.911191 0.425575
v -0.071423 0.833943 0.505166
v -0.071423 0.883881 0.404989
v 0.040511 0.883881 0.404989
v 0.040511 0.833943 0.505166
v 0.044942 0.585879 0.348883
v -0.078631 0.696270 0.444591
v -0.078631 0.752641 0.331511
v 0.044942 0.647963 0.249985
v -0.015456 0.688299 0.270645
v 0.066419 0.650406 0.342384
v -0.097330 0.650406 0.342384
v -0.015456 0.612513 0.414124
v -0.075854 0.585879 0.348883
v -0.075854 0.647963 0.249985
v 0.042792 0.527576 0.188689
v 0.042792 0.615806 0.125195
v -0.015456 0.550722 0.299601
v -0.094851 0.599013 0.243015
v 0.063940 0.599013 0.243015
v -0.015456 0.647304 0.186428
v -0.049599 -0.000845 0.049599
v -0.113368 0.411944 0.113368
v -0.049599 -0.000845 -0.049599
v -0.113368 0.411944 -0.113368
v 0.049599 -0.000845 0.049599
v 0.113368 0.411944 0.113368
v 0.049599 -0.000845 -0.049599
v 0.113368 0.411944 -0.113368
v -0.128191 1.128326 0.128191
v -0.128191 1.128326 -0.128191
v 0.128191 1.128326 -0.128191
v 0.128191 1.128326 0.128191
v -0.080098 1.358644 0.080098
v -0.080098 1.358644 -0.080098
v 0.080098 1.358644 -0.080098
v 0.080098 1.358644 0.080098
v -0.073270 0.066625 0.073270
v -0.073270 0.066625 -0.073270
v 0.073270 0.066625 -0.073270
v 0.073270 0.066625 0.073270
v -0.063878 0.816939 -0.055100
v -0.063878 0.724006 -0.082344
v 0.032966 0.816939 -0.055100
v 0.032966 0.724006 -0.082344
v -0.068763 1.004205 -0.353417
v -0.068763 0.950971 -0.445790
v 0.037851 0.950971 -0.445790
v 0.037851 1.004205 -0.353417
v -0.048477 1.056856 -0.407173
v -0.048477 1.023879 -0.464394
v 0.017566 1.023879 -0.464394
v 0.017566 1.056856 -0.407173
v -0.067873 0.823102 -0.362790
v 0.036962 0.823102 -0.362790
v 0.036962 0.877074 -0.274026
v -0.067873 0.877074 -0.274026
v 0.035374 0.778368 -0.265388
v 0.035374 0.844460 -0.196795
v -0.066286 0.778368 -0.265388
v -0.066286 0.844460 -0.196795
v 0.041270 0.593036 0.036829
v 0.041270 0.486290 0.075255
v -0.072181 0.593036 0.036829
v -0.072181 0.486290 0.075255
v 0.046992 0.833096 0.372431
v 0.046992 0.777375 0.484209
v -0.077904 0.777375 0.484209
v -0.077904 0.833096 0.372431
v 0.023228 0.898462 0.431569
v 0.023228 0.863945 0.500811
v -0.054140 0.863945 0.500811
v -0.054140 0.898462 0.431569
v 0.045950 0.621986 0.396189
v -0.076862 0.621986 0.396189
v -0.076862 0.678826 0.288580
v 0.045950 0.678826 0.288580
v -0.075002 0.562794 0.285455
v -0.075002 0.635231 0.200575
v 0.044091 0.562794 0.285455
v 0.044091 0.635231 0.200575
vn -0.9306 -0.1944 0.3102
vn -0.9420 -0.1184 0.3140
vn -0.9420 -0.1184 -0.3140
vn -0.9306 -0.1944 -0.3102
vn -0.3102 -0.1944 -0.9306
vn -0.3140 -0.1184 -0.9420
vn 0.3140 -0.1184 -0.9420
vn 0.3102 -0.1944 -0.9306
vn 0.9306 -0.1944 -0.3102
vn 0.9420 -0.1184 -0.3140
vn 0.9420 -0.1184 0.3140
vn 0.9306 -0.1944 0.3102
vn 0.3102 -0.1944 0.9306
vn 0.3140 -0.1184 0.9420
vn -0.3140 -0.1184 0.9420
vn -0.3102 -0.1944 0.9306
vn -0.0986 -0.9902 -0.0986
vn 0.0986 -0.9902 -0.0986
vn 0.0986 -0.9902 0.0986
vn -0.0986 -0.9902 0.0986
vn 0.3159 -0.0449 -0.9477
vn -0.3159 -0.0449 -0.9477
vn -0.3162 -0.0066 -0.9487
vn 0.3162 -0.0066 -0.9487
vn 0.9451 0.0868 0.3150
vn 0.9451 0.0868 -0.3150
vn 0.7349 0.6144 -0.2872
vn 0.7349 0.6144 0.2872
vn 0.9477 -0.0449 0.3159
vn 0.9477 -0.0449 -0.3159
vn 0.9487 -0.0066 -0.3162
vn 0.9487 -0.0066 0.3162
vn -0.9477 -0.0449 -0.3159
vn -0.9477 -0.0449 0.3159
vn -0.9487 -0.0066 0.3162
vn -0.9487 -0.0066 -0.3162
vn -0.3159 -0.0449 0.9477
vn 0.3159 -0.0449 0.9477
vn 0.3162 -0.0066 0.9487
vn -0.3162 -0.0066 0.9487
vn 0.2420 0.9396 -0.2420
vn -0.2420 0.9396 -0.2420
vn -0.2420 0.9396 0.2420
vn 0.2420 0.9396 0.2420
vn -0.9451 0.0868 -0.3150
vn -0.9451 0.0868 0.3150
vn -0.7349 0.6144 0.2872
vn -0.7349 0.6144 -0.2872
vn -0.3150 0.0868 0.9451
vn 0.3150 0.0868 0.9451
vn 0.2872 0.6144 0.7349
vn -0.2872 0.6144 0.7349
vn 0.3150 0.0868 -0.9451
vn -0.3150 0.0868 -0.9451
vn -0.2872 0.6144 -0.7349
vn 0.2872 0.6144 -0.7349
vn 0.2069 -0.8305 0.5171
vn 0.3130 -0.1434 0.9389
vn -0.3130 -0.1434 0.9389
vn -0.2069 -0.8305 0.5171
vn 0.5171 -0.8305 -0.2069
vn 0.9389 -0.1434 -0.3130
vn 0.9389 -0.1434 0.3130
vn 0.5171 -0.8305 0.2069
vn -0.2069 -0.8305 -0.5171
vn -0.3130 -0.1434 -0.9389
vn 0.3130 -0.1434 -0.9389
vn 0.2069 -0.8305 -0.5171
vn -0.5171 -0.8305 0.2069
vn -0.9389 -0.1434 0.3130
vn -0.9389 -0.1434 -0.3130
vn -0.5171 -0.8305 -0.2069
vn 0.3132 -0.5711 -0.7588
vn -0.3132 -0.5711 -0.7588
vn -0.3162 -0.4648 -0.8270
vn 0.3162 -0.4648 -0.8270
vn 0.9399 0.2738 0.2038
vn 0.9399 -0.0391 -0.3391
vn 0.7349 0.3889 -0.5556
vn 0.7349 0.6757 -0.0579
vn 0.9482 0.1601 0.2742
vn 0.9470 -0.2057 -0.2468
vn 0.9486 -0.1491 -0.2791
vn 0.9486 0.1667 0.2689
vn -0.9470 -0.2057 -0.2468
vn -0.9482 0.1601 0.2742
vn -0.9486 0.1667 0.2689
vn -0.9486 -0.1491 -0.2791
vn -0.3146 0.5196 0.7943
vn 0.3146 0.5196 0.7943
vn 0.3162 0.4825 0.8168
vn -0.3162 0.4825 0.8168
vn 0.2420 0.6933 -0.6788
vn -0.2420 0.6933 -0.6788
vn -0.2420 0.9349 -0.2595
vn 0.2420 0.9349 -0.2595
vn -0.9399 -0.0391 -0.3391
vn -0.9399 0.2738 0.2038
vn -0.7349 0.6757 -0.0579
vn -0.7349 0.3889 -0.5556
vn -0.3133 0.5867 0.7468
vn 0.3133 0.5867 0.7468
vn 0.2872 0.8992 0.3300
vn -0.2872 0.8992 0.3300
vn 0.3133 -0.3520 -0.8820
vn -0.3133 -0.3520 -0.8820
vn -0.2872 0.1653 -0.9435
vn 0.2872 0.1653 -0.9435
vn -0.2361 0.9555 0.1768
vn 0.2361 0.9555 0.1768
vn 0.2910 0.7788 0.5556
vn -0.2910 0.7788 0.5556
vn -0.9155 -0.3914 -0.0931
vn -0.9187 0.3813 0.1028
vn -0.9413 0.2644 0.2099
vn -0.9355 -0.3028 -0.1822
vn 0.9187 0.3813 0.1028
vn 0.9155 -0.3914 -0.0931
vn 0.9355 -0.3028 -0.1822
vn 0.9413 0.2644 0.2099
vn 0.2550 -0.9257 -0.2793
vn -0.2550 -0.9257 -0.2793
vn -0.2876 -0.7972 -0.5309
vn 0.2876 -0.7972 -0.5309
vn 0.3016 -0.9129 -0.2751
vn -0.3016 -0.9129 -0.2751
vn -0.2749 -0.9205 -0.2776
vn 0.2749 -0.9205 -0.2776
vn 0.9432 0.3200 0.0895
vn 0.9423 -0.3263 -0.0747
vn 0.9285 -0.3615 -0.0846
vn 0.9307 0.3527 0.0966
vn -0.9423 -0.3263 -0.0747
vn -0.9432 0.3200 0.0895
vn -0.9307 0.3527 0.0966
vn -0.9285 -0.3615 -0.0846
vn -0.2961 0.9391 0.1743
vn 0.2961 0.9391 0.1743
vn 0.2618 0.9490 0.1758
vn -0.2618 0.9490 0.1758
vn -0.3132 -0.5243 0.7919
vn 0.3132 -0.5243 0.7919
vn 0.3162 -0.4141 0.8535
vn -0.3162 -0.4141 0.8535
vn -0.9399 0.2610 -0.2200
vn -0.9399 -0.0186 0.3408
vn -0.7349 0.4217 0.5311
vn -0.7349 0.6779 0.0171
vn -0.9482 0.1433 -0.2834
vn -0.9470 -0.1904 0.2587
vn -0.9486 -0.1320 0.2875
vn -0.9486 0.1502 -0.2785
vn 0.9470 -0.1904 0.2587
vn 0.9482 0.1433 -0.2834
vn 0.9486 0.1502 -0.2785
vn 0.9486 -0.1320 0.2875
vn 0.3146 0.4708 -0.8242
vn -0.3146 0.4708 -0.8242
vn -0.3162 0.4323 -0.8444
vn 0.3162 0.4323 -0.8444
vn -0.2420 0.7330 0.6358
vn 0.2420 0.7330 0.6358
vn 0.2420 0.9489 0.2026
vn -0.2420 0.9489 0.2026
vn 0.9399 -0.0186 0.3408
vn 0.9399 0.2610 -0.2200
vn 0.7349 0.6779 0.0171
vn 0.7349 0.4217 0.5311
vn 0.3133 0.5406 -0.7808
vn -0.3133 0.5406 -0.7808
vn -0.2872 0.8777 -0.3836
vn 0.2872 0.8777 -0.3836
vn -0.3133 -0.2981 0.9016
vn 0.3133 -0.2981 0.9016
vn 0.2872 0.2220 0.9318
vn -0.2872 0.2220 0.9318
vn 0.2361 0.9431 -0.2341
vn -0.2361 0.9431 -0.2341
vn -0.2910 0.7439 -0.6016
vn 0.2910 0.7439 -0.6016
vn 0.9155 -0.3850 0.1165
vn 0.9187 0.3744 -0.1257
vn 0.9413 0.2513 -0.2254
vn 0.9355 -0.2912 0.2002
vn -0.9187 0.3744 -0.1257
vn -0.9155 -0.3850 0.1165
vn -0.9355 -0.2912 0.2002
vn -0.9413 0.2513 -0.2254
vn -0.2550 -0.9072 0.3346
vn 0.2550 -0.9072 0.3346
vn 0.2876 -0.7637 0.5780
vn -0.2876 -0.7637 0.5780
vn -0.3016 -0.8946 0.3297
vn 0.3016 -0.8946 0.3297
vn 0.2749 -0.9021 0.3326
vn -0.2749 -0.9021 0.3326
vn -0.9432 0.3140 -0.1086
vn -0.9423 -0.3212 0.0942
vn -0.9285 -0.3557 0.1063
vn -0.9307 0.3462 -0.1177
vn 0.9423 -0.3212 0.0942
vn 0.9432 0.3140 -0.1086
vn 0.9307 0.3462 -0.1177
vn 0.9285 -0.3557 0.1063
vn 0.2961 0.9269 -0.2307
vn -0.2961 0.9269 -0.2307
vn -0.2618 0.9366 -0.2328
vn 0.2618 0.9366 -0.2328
usemtl Green
s off
f 1//1 88//1 177//1 54//1
f 1//2 54//2 162//2 55//2
f 1//3 55//3 164//3 82//3
f 1//4 82//4 178//4 88//4
f 2//5 87//5 178//5 82//5
f 2//6 82//6 164//6 58//6
f 2//7 58//7 168//7 83//7
f 2//8 83//8 179//8 87//8
f 3//9 86//9 179//9 83//9
f 3//10 83//10 168//10 61//10
f 3//11 61//11 166//11 84//11
f 3//12 84//12 180//12 86//12
f 4//13 85//13 180//13 84//13
f 4//14 84//14 166//14 64//14
f 4//15 64//15 162//15 54//15
f 4//16 54//16 177//16 85//16
f 5//17 53//17 163//17 57//17
f 5//18 57//18 167//18 60//18
f 5//19 60//19 165//19 63//19
f 5//20 63//20 161//20 53//20
f 6//21 70//21 168//21 58//21
f 6//22 58//22 164//22 69//22
f 6//23 69//23 170//23 66//23
f 6//24 66//24 171//24 70//24
f 7//25 78//25 172//25 67//25
f 7//26 67//26 171//26 77//26
f 7//27 77//27 175//27 75//27
f 7//28 75//28 176//28 78//28
f 8//29 71//29 166//29 61//29
f 8//30 61//30 168//30 70//30
f 8//31 70//31 171//31 67//31
f 8//32 67//32 172//32 71//32
f 9//33 69//33 164//33 55//33
f 9//34 55//34 162//34 72//34
f 9//35 72//35 169//35 65//35
f 9//36 65//36 170//36 69//36
f 10//37 72//37 162//37 64//37
f 10//38 64//38 166//38 71//38
f 10//39 71//39 172//39 68//39
f 10//40 68//40 169//40 72//40
f 11//41 75//41 175//41 74//41
f 11//42 74//42 174//42 73//42
f 11//43 73//43 173//43 76//43
f 11//44 76//44 176//44 75//44
f 12//45 80//45 170//45 65//45
f 12//46 65//46 169//46 79//46
f 12//47 79//47 173//47 73//47
f 12//48 73//48 174//48 80//48
f 13//49 79//49 169//49 68//49
f 13//50 68//50 172//50 78//50
f 13//51 78//51 176//51 76//51
f 13//52 76//52 173//52 79//52
f 14//53 77//53 171//53 66//53
f 14//54 66//54 170//54 80//54
f 14//55 80//55 174//55 74//55
f 14//56 74//56 175//56 77//56
f 15//57 63//57 165//57 62//57
f 15//58 62//58 180//58 85//58
f 15//59 85//59 177//59 81//59
f 15//60 81//60 161//60 63//60
f 16//61 60//61 167//61 59//61
f 16//62 59//62 179//62 86//62
f 16//63 86//63 180//63 62//63
f 16//64 62//64 165//64 60//64
f 17//65 57//65 163//65 56//65
f 17//66 56//66 178//66 87//66
f 17//67 87//67 179//67 59//67
f 17//68 59//68 167//68 57//68
f 18//69 53//69 161//69 81//69
f 18//70 81//70 177//70 88//70
f 18//71 88//71 178//71 56//71
f 18//72 56//72 163//72 53//72
f 19//73 110//73 194//73 116//73
f 19//74 116//74 193//74 97//74
f 19//75 97//75 186//75 94//75
f 19//76 94//76 187//76 110//76
f 20//77 106//77 188//77 95//77
f 20//78 95//78 187//78 105//78
f 20//79 105//79 191//79 103//79
f 20//80 103//80 192//80 106//80
f 21//81 111//81 195//81 115//81
f 21//82 115//82 194//82 110//82
f 21//83 110//83 187//83 95//83
f 21//84 95//84 188//84 111//84
f 22//85 97//85 193//85 114//85
f 22//86 114//86 196//86 100//86
f 22//87 100//87 185//87 93//87
f 22//88 93//88 186//88 97//88
f 23//89 100//89 196//89 113//89
f 23//90 113//90 195//90 111//90
f 23//91 111//91 188//91 96//91
f 23//92 96//92 185//92 100//92
f 24//93 103//93 191//93 102//93
f 24//94 102//94 190//94 101//94
f 24//95 101//95 189//95 104//95
f 24//96 104//96 192//96 103//96
f 25//97 108//97 186//97 93//97
f 25//98 93//98 185//98 107//98
f 25//99 107//99 189//99 101//99
f 25//100 101//100 190//100 108//100
f 26//101 107//101 185//101 96//101
f 26//102 96//102 188//102 106//102
f 26//103 106//103 192//103 104//103
f 26//104 104//104 189//104 107//104
f 27//105 105//105 187//105 94//105
f 27//106 94//106 186//106 108//106
f 27//107 108//107 190//107 102//107
f 27//108 102//108 191//108 105//108
f 28//109 112//109 200//109 124//109
f 28//110 124//110 198//110 118//110
f 28//111 118//111 195//111 113//111
f 28//112 113//112 196//112 112//112
f 29//113 109//113 199//113 123//113
f 29//114 123//114 200//114 112//114
f 29//115 112//115 196//115 114//115
f 29//116 114//116 193//116 109//116
f 30//117 118//117 198//117 122//117
f 30//118 122//118 197//118 117//118
f 30//119 117//119 194//119 115//119
f 30//120 115//120 195//120 118//120
f 31//121 117//121 197//121 121//121
f 31//122 121//122 199//122 109//122
f 31//123 109//123 193//123 116//123
f 31//124 116//124 194//124 117//124
f 32//125 98//125 184//125 90//125
f 32//126 90//126 182//126 119//126
f 32//127 119//127 199//127 121//127
f 32//128 121//128 197//128 98//128
f 33//129 99//129 183//129 91//129
f 33//130 91//130 184//130 98//130
f 33//131 98//131 197//131 122//131
f 33//132 122//132 198//132 99//132
f 34//133 119//133 182//133 89//133
f 34//134 89//134 181//134 120//134
f 34//135 120//135 200//135 123//135
f 34//136 123//136 199//136 119//136
f 35//137 120//137 181//137 92//137
f 35//138 92//138 183//138 99//138
f 35//139 99//139 198//139 124//139
f 35//140 124//140 200//140 120//140
f 36//141 146//141 214//141 152//141
f 36//142 152//142 213//142 133//142
f 36//143 133//143 206//143 130//143
f 36//144 130//144 207//144 146//144
f 37//145 142//145 208//145 131//145
f 37//146 131//146 207//146 141//146
f 37//147 141//147 211//147 139//147
f 37//148 139//148 212//148 142//148
f 38//149 147//149 215//149 151//149
f 38//150 151//150 214//150 146//150
f 38//151 146//151 207//151 131//151
f 38//152 131//152 208//152 147//152
f 39//153 133//153 213//153 150//153
f 39//154 150//154 216//154 136//154
f 39//155 136//155 205//155 129//155
f 39//156 129//156 206//156 133//156
f 40//157 136//157 216//157 149//157
f 40//158 149//158 215//158 147//158
f 40//159 147//159 208//159 132//159
f 40//160 132//160 205//160 136//160
f 41//161 139//161 211//161 138//161
f 41//162 138//162 210//162 137//162
f 41//163 137//163 209//163 140//163
f 41//164 140//164 212//164 139//164
f 42//165 144//165 206//165 129//165
f 42//166 129//166 205//166 143//166
f 42//167 143//167 209//167 137//167
f 42//168 137//168 210//168 144//168
f 43//169 143//169 205//169 132//169
f 43//170 132//170 208//170 142//170
f 43//171 142//171 212//171 140//171
f 43//172 140//172 209//172 143//172
f 44//173 141//173 207//173 130//173
f 44//174 130//174 206//174 144//174
f 44//175 144//175 210//175 138//175
f 44//176 138//176 211//176 141//176
f 45//177 148//177 220//177 160//177
f 45//178 160//178 218//178 154//178
f 45//179 154//179 215//179 149//179
f 45//180 149//180 216//180 148//180
f 46//181 145//181 219//181 159//181
f 46//182 159//182 220//182 148//182
f 46//183 148//183 216//183 150//183
f 46//184 150//184 213//184 145//184
f 47//185 154//185 218//185 158//185
f 47//186 158//186 217//186 153//186
f 47//187 153//187 214//187 151//187
f 47//188 151//188 215//188 154//188
f 48//189 153//189 217//189 157//189
f 48//190 157//190 219//190 145//190
f 48//191 145//191 213//191 152//191
f 48//192 152//192 214//192 153//192
f 49//193 134//193 204//193 126//193
f 49//194 126//194 202//194 155//194
f 49//195 155//195 219//195 157//195
f 49//196 157//196 217//196 134//196
f 50//197 135//197 203//197 127//197
f 50//198 127//198 204//198 134//198
f 50//199 134//199 217//199 158//199
f 50//200 158//200 218//200 135//200
f 51//201 155//201 202//201 125//201
f 51//202 125//202 201//202 156//202
f 51//203 156//203 220//203 159//203
f 51//204 159//204 219//204 155//204
f 52//205 156//205 201//205 128//205
f 52//206 128//206 203//206 135//206
f 52//207 135//207 218//207 160//207
f 52//208 160//208 220//208 156//208
