# Blender v2.79 (sub 0) OBJ File: 'Rock_Snow_7.blend'
# www.blender.org
mtllib Rock_Snow_7.mtl
o Rock_Snow_7_Cube.074
v -0.299917 0.441715 0.246215
v 0.181244 0.424579 0.154834
v -0.380029 0.452047 -0.248656
v 0.123077 0.297819 -0.232413
v 0.090952 0.420267 0.093848
v 0.029866 0.435259 -0.298383
v 0.004376 0.530762 -0.297440
v -0.290612 0.546030 -0.234804
v -0.243685 0.546688 0.169692
v -0.290827 0.354926 0.293840
v 0.016228 0.427042 0.238594
v 0.235541 0.234762 0.152256
v 0.119447 0.063600 -0.427353
v -0.443175 0.168892 -0.349262
v -0.067333 0.167138 -0.452952
v -0.412974 0.295000 0.276714
v 0.219539 0.243792 0.266245
v 0.014148 0.293296 0.291022
v -0.412933 0.296362 0.370268
v 0.128996 0.182642 -0.271718
v -0.393154 0.312402 -0.240793
v -0.019947 0.302456 -0.316108
v 0.119781 -0.227213 -0.424840
v -0.532077 -0.227213 -0.343319
v -0.066543 -0.227213 -0.447010
v -0.484026 -0.227213 0.286096
v 0.256146 -0.227213 0.226585
v 0.038190 -0.227213 0.247770
v -0.478574 -0.227213 0.327092
v 0.144281 0.121890 -0.241793
v 0.152020 -0.227213 -0.274514
v -0.483359 0.193279 -0.223955
v -0.553190 -0.227213 -0.196513
v 0.322356 -0.227213 0.176060
v 0.312766 0.192819 0.161779
v 0.250574 0.069700 -0.164367
v 0.245175 -0.227213 -0.201720
v -0.096205 -0.227213 0.645318
v 0.206759 -0.227213 0.428210
v -0.478216 -0.227213 0.414063
v -0.097442 0.167754 0.636012
v 0.192955 0.187383 0.415312
v -0.389771 0.239954 0.404681
v 0.272969 -0.227213 0.377685
v 0.263378 0.136411 0.363404
v -0.263328 0.295288 0.342508
v -0.280038 0.373399 0.287376
v -0.288819 0.457244 0.241367
v 0.084142 0.439955 0.088385
v 0.176017 0.440690 0.153087
v 0.119823 0.318230 -0.221022
v 0.029774 0.451008 -0.284754
v 0.000504 0.546701 -0.289627
v -0.284475 0.561451 -0.229116
v -0.239141 0.562086 0.161656
v -0.401784 0.309334 0.269211
v 0.016600 0.443069 0.234005
v -0.382637 0.326146 -0.230738
v -0.401745 0.310650 0.359591
v 0.121798 0.200788 -0.260613
v 0.112572 0.085785 -0.410968
v -0.430960 0.187504 -0.335526
v -0.022091 0.316537 -0.303498
v -0.067870 0.185810 -0.435699
v 0.010847 0.307687 0.283034
v 0.209268 0.259863 0.259097
v -0.257215 0.309612 0.332773
v 0.224728 0.251140 0.148976
v 0.136564 0.142097 -0.231703
v -0.469781 0.211064 -0.214471
v 0.299332 0.210620 0.158176
v 0.251621 0.156125 0.352960
v 0.239251 0.091678 -0.156905
v -0.096958 0.186405 0.616319
v 0.183586 0.205369 0.403107
v -0.379369 0.256156 0.392837
vn -0.1608 -0.5069 -0.8469
vn 0.9489 0.2008 -0.2434
vn -0.1549 0.0715 -0.9853
vn -0.1505 0.1273 -0.9804
vn -0.9461 -0.2992 -0.1243
vn -0.2234 -0.5117 -0.8296
vn 0.1337 -0.6498 0.7483
vn 0.3492 0.4226 0.8363
vn -0.7834 0.6104 0.1172
vn 0.9564 0.2566 -0.1391
vn 0.3084 0.4672 0.8287
vn -0.9832 0.0598 0.1724
vn 0.9557 0.2719 0.1126
vn 0.5047 0.1076 -0.8565
vn -0.6207 -0.5734 0.5347
vn -0.9910 0.1283 0.0391
vn 0.1237 -0.0120 -0.9922
vn -0.2393 0.0121 -0.9709
vn -0.9567 0.1765 -0.2313
vn 0.6138 0.0873 -0.7846
vn -0.8178 -0.4748 0.3254
vn 0.9851 0.0205 -0.1709
vn -0.9807 0.1514 0.1235
vn 0.9805 0.0120 -0.1962
vn 0.0000 -1.0000 0.0000
vn 0.9697 0.0326 0.2421
vn 0.5927 0.0331 0.8048
vn -0.5587 0.0744 0.8260
vn 0.6101 0.0460 0.7910
vn -0.9578 0.1404 0.2508
vn 0.1034 0.4714 0.8758
vn -0.8257 -0.5595 -0.0716
vn 0.2374 -0.5258 -0.8168
vn -0.2483 0.4459 0.8600
vn 0.8343 -0.5388 -0.1165
vn -0.3718 -0.2189 -0.9022
vn 0.4317 0.6496 0.6258
vn 0.4425 0.2374 0.8648
vn -0.9367 0.3329 0.1081
vn 0.6545 0.5227 -0.5462
vn -0.7904 0.6125 -0.0086
vn -0.1705 0.4000 -0.9005
vn -0.9657 -0.2199 0.1382
vn 0.7142 0.6089 0.3453
vn 0.8328 0.3650 -0.4162
vn 0.0956 0.5467 0.8318
vn 0.5557 0.7477 -0.3634
vn 0.0053 0.9998 -0.0189
vn 0.6657 0.7174 -0.2054
vn -0.7698 0.5333 -0.3507
vn 0.0521 0.9145 0.4012
vn 0.2381 0.9667 0.0935
vn -0.4642 0.8857 -0.0127
vn 0.5215 0.5910 -0.6155
vn -0.1597 0.6829 -0.7128
vn 0.1490 0.6082 0.7797
vn 0.7129 0.6077 0.3499
vn 0.0028 0.9014 0.4329
vn 0.9714 0.1562 -0.1791
vn -0.6510 0.7591 0.0006
vn 0.4775 0.8786 -0.0026
vn 0.2490 0.8842 0.3953
vn -0.6508 0.6785 -0.3407
vn -0.3388 0.6873 0.6426
vn 0.8532 0.4540 -0.2568
vn -0.1964 0.6624 -0.7230
vn -0.7914 0.6111 -0.0129
vn 0.1083 0.2713 0.9564
vn 0.9326 0.2775 -0.2309
vn 0.4328 0.6185 -0.6559
vn 0.3328 0.3573 0.8727
vn 0.9478 0.2925 -0.1271
vn 0.7814 0.5198 -0.3452
vn 0.7061 0.6108 0.3581
usemtl Rock
s off
f 18//1 46//1 67//1 65//1
f 12//2 30//2 20//2 4//2 2//2
f 22//3 21//3 3//3 6//3
f 3//4 8//4 7//4 6//4
f 20//5 30//5 69//5 60//5
f 17//6 18//6 65//6 66//6
f 21//7 22//7 63//7 58//7
f 5//8 9//8 1//8
f 1//9 9//9 8//9 3//9
f 6//10 7//10 5//10
f 11//11 18//11 17//11 2//11
f 10//12 1//12 3//12 21//12
f 2//13 17//13 12//13
f 20//14 22//14 6//14 4//14
f 22//15 20//15 60//15 63//15
f 16//16 26//16 29//16 19//16
f 13//17 23//17 25//17 15//17
f 15//18 25//18 24//18 14//18
f 14//19 24//19 33//19 32//19
f 31//20 30//20 36//20 37//20
f 30//21 12//21 68//21 69//21
f 30//22 31//22 23//22 13//22
f 32//23 33//23 26//23 16//23
f 35//24 34//24 37//24 36//24
f 26//25 33//25 24//25 25//25 23//25 31//25 37//25 34//25 27//25 28//25 29//25
f 34//26 35//26 45//26 44//26
f 41//27 38//27 39//27 42//27
f 43//28 40//28 38//28 41//28
f 42//29 39//29 44//29 45//29
f 28//25 27//25 39//25 38//25
f 27//25 34//25 44//25 39//25
f 19//30 29//30 40//30 43//30
f 29//25 28//25 38//25 40//25
f 10//31 46//31 18//31 11//31
f 12//32 17//32 66//32 68//32
f 46//33 10//33 47//33 67//33
f 1//34 10//34 47//34 48//34
f 10//35 21//35 58//35 47//35
f 5//36 1//36 48//36 49//36
usemtl Snow
f 41//37 42//37 75//37 74//37
f 11//38 2//38 50//38 57//38
f 8//39 9//39 55//39 54//39
f 36//40 30//40 69//40 73//40
f 16//41 19//41 59//41 56//41
f 7//42 8//42 54//42 53//42
f 6//43 5//43 49//43 52//43
f 45//44 35//44 71//44 72//44
f 4//45 6//45 52//45 51//45
f 19//46 43//46 76//46 59//46
f 69//47 68//47 71//47 73//47
f 57//48 50//48 49//48
f 51//49 52//49 49//49 50//49
f 62//50 70//50 58//50
f 47//51 57//51 49//51 48//51
f 53//52 54//52 55//52 49//52
f 56//53 59//53 47//53
f 61//54 64//54 63//54 60//54
f 64//55 62//55 58//55 63//55
f 59//56 67//56 47//56
f 71//57 66//57 75//57 72//57
f 65//58 67//58 59//58 76//58 74//58
f 60//59 69//59 61//59
f 58//60 70//60 56//60 47//60
f 68//61 66//61 71//61
f 66//62 65//62 74//62 75//62
f 14//63 32//63 70//63 62//63
f 43//64 41//64 74//64 76//64
f 30//65 13//65 61//65 69//65
f 15//66 14//66 62//66 64//66
f 32//67 16//67 56//67 70//67
f 10//68 11//68 57//68 47//68
f 2//69 4//69 51//69 50//69
f 13//70 15//70 64//70 61//70
f 9//71 5//71 49//71 55//71
f 5//72 7//72 53//72 49//72
f 35//73 36//73 73//73 71//73
f 42//74 45//74 72//74 75//74
