# Blender v2.79 (sub 0) OBJ File: 'TreeStump_Snow.blend'
# www.blender.org
mtllib TreeStump_Snow.mtl
o TreeStump_Snow_Cylinder.021
v -0.011119 0.001398 -0.446654
v -0.011119 0.363649 -0.395416
v 0.267708 0.001398 -0.317448
v 0.233749 0.363649 -0.278571
v 0.435566 0.001398 -0.127909
v 0.367836 0.346862 -0.106683
v 0.360681 0.001398 0.209833
v 0.299045 0.363649 0.151645
v 0.115058 0.002056 0.344050
v 0.124375 0.337953 0.267064
v -0.142444 0.001398 0.392955
v -0.163306 0.302673 0.309052
v -0.370212 0.001398 0.252719
v -0.314929 0.363649 0.181824
v -0.427624 0.001398 -0.011958
v -0.358124 0.363649 -0.063147
v -0.304240 0.001398 -0.357158
v -0.270282 0.363649 -0.256334
v 0.118175 0.138734 0.326151
v -0.011119 0.142468 -0.434061
v 0.259362 0.142468 -0.307894
v 0.419554 0.139936 -0.123430
v 0.345534 0.153229 0.195532
v -0.150172 0.153842 0.361802
v -0.356625 0.167934 0.235296
v -0.410544 0.167934 -0.024538
v -0.295895 0.090426 -0.332379
v 0.216371 0.365909 -0.262810
v -0.024341 0.365909 -0.344538
v 0.322921 0.340231 -0.101924
v 0.265334 0.363826 0.109531
v 0.102922 0.339614 0.234317
v -0.124587 0.305533 0.261692
v -0.291617 0.365909 0.163442
v -0.308269 0.365909 -0.061806
v 0.201803 0.352174 -0.246801
v -0.022271 0.352174 -0.322880
v 0.305101 0.343295 -0.095453
v 0.227579 0.352174 0.113910
v 0.096536 0.325879 0.217559
v -0.113746 0.291798 0.240095
v -0.271072 0.334362 0.149988
v -0.286573 0.352174 -0.059690
v -0.212315 0.352174 -0.213151
v -0.542009 0.081232 0.167807
v -0.557001 0.000279 0.173684
v -0.494666 0.000279 0.027718
v -0.479282 0.099197 0.026176
v -0.645420 0.064600 0.045096
v -0.648009 -0.000238 0.053299
v -0.673747 -0.000238 -0.010412
v -0.669225 0.064600 -0.017323
v -0.761763 0.021677 0.086421
v -0.763707 -0.006498 0.092581
v -0.806447 -0.006498 0.052049
v -0.803051 0.021677 0.046859
v 0.412286 0.102916 0.364522
v 0.413106 -0.001087 0.380398
v 0.311167 0.091854 0.373101
v 0.300012 -0.000585 0.381334
v 0.385938 0.073121 0.484787
v 0.385441 -0.001087 0.500677
v 0.306918 0.062059 0.487153
v 0.295119 -0.000585 0.494434
v 0.460467 0.039156 0.568848
v 0.459970 0.000158 0.584738
v 0.381447 0.028094 0.571214
v 0.369648 0.000660 0.578496
v -0.222455 0.366623 -0.220705
v 0.312884 0.341957 -0.098279
v 0.304317 0.343362 -0.096601
v -0.112360 0.509899 -0.348768
v -0.235926 0.481180 -0.275709
v -0.102567 0.512370 -0.318379
v -0.210848 0.484432 -0.251506
v -0.144447 0.477818 -0.320349
v -0.127531 0.480653 -0.292843
v -0.197386 0.612248 -0.291028
v -0.180469 0.615083 -0.263522
v -0.201896 0.001398 0.356351
v -0.202882 0.273056 0.275843
v -0.204061 0.157520 0.328782
v -0.168185 0.275760 0.236047
v -0.154811 0.276849 0.216576
v 0.370270 0.254705 -0.120511
v 0.546459 0.405231 -0.253571
v 0.371942 0.249838 -0.070333
v 0.553119 0.405609 -0.237641
v 0.357764 0.265512 -0.048139
v 0.548177 0.417848 -0.226503
v 0.337317 0.287176 -0.055341
v 0.536575 0.429709 -0.231296
v 0.331047 0.293164 -0.084737
v 0.529915 0.429331 -0.247226
v 0.349681 0.275754 -0.129016
v 0.534857 0.417092 -0.258364
v 0.527273 0.436879 -0.238199
v 0.331047 0.302500 -0.084737
v 0.533933 0.437257 -0.222269
v 0.337317 0.296511 -0.055341
v 0.357764 0.274848 -0.048139
v 0.545535 0.425396 -0.217476
v 0.191932 0.395775 -0.236270
v -0.020654 0.395775 -0.308448
v 0.289190 0.387415 -0.093771
v 0.216387 0.395775 0.105948
v 0.289934 0.387351 -0.092681
v 0.092061 0.371318 0.204283
v -0.107439 0.338541 0.225664
v -0.146399 0.329894 0.203350
v -0.271406 0.395870 -0.058752
v -0.256700 0.378876 0.140177
v -0.200955 0.395775 -0.204346
v 0.114987 0.409088 0.113285
v 0.202953 0.414112 -0.082036
v -0.224136 0.393960 -0.061081
v 0.157490 0.427543 -0.079805
v -0.174980 0.409118 -0.063493
v -0.138990 0.374652 0.131660
v -0.426600 0.189996 0.164778
v -0.433414 0.189996 0.018452
v -0.546458 0.092494 0.154730
v -0.482395 0.109903 0.028628
v -0.646667 0.076377 0.035818
v -0.666457 0.076377 -0.013525
v -0.759408 0.034784 0.075863
v -0.791834 0.035624 0.048104
v 0.185917 0.147563 0.315174
v 0.358105 0.163426 0.245495
v 0.310253 0.145096 0.373531
v 0.407136 0.155695 0.365311
v 0.306181 0.074099 0.482807
v 0.381892 0.084698 0.480540
v 0.377588 0.041557 0.563347
v 0.453299 0.052156 0.561081
vn 0.4209 0.1615 -0.8926
vn 0.7603 0.2037 -0.6168
vn 0.9459 0.2370 0.2216
vn -0.2005 0.1233 0.9719
vn -0.4521 0.3437 0.8231
vn -0.9455 0.2701 0.1819
vn -0.1297 0.9912 0.0280
vn -0.9017 0.1814 -0.3925
vn -0.4123 0.2261 -0.8826
vn 0.0001 -1.0000 0.0003
vn 0.1610 0.1676 0.9726
vn -0.3231 0.1631 -0.9322
vn -0.9297 0.1093 -0.3518
vn -0.5628 0.0249 -0.8262
vn -0.5153 0.1362 0.8461
vn 0.9697 0.1114 0.2176
vn 0.7485 0.0981 -0.6559
vn 0.4201 0.0834 -0.9036
vn 0.4855 0.2577 0.8354
vn 0.1208 0.3059 0.9444
vn -0.1895 0.7877 -0.5862
vn -0.0850 0.9926 0.0870
vn 0.0233 0.9981 -0.0570
vn -0.0364 0.9948 -0.0953
vn -0.0225 0.9895 0.1425
vn -0.0599 0.9982 0.0076
vn -0.4110 0.8639 -0.2910
vn -0.1662 0.9617 0.2182
vn 0.3459 0.7433 0.5726
vn -0.2300 0.8837 -0.4077
vn -0.1765 0.9754 -0.1319
vn 0.7278 0.6853 -0.0257
vn -0.4010 0.8562 -0.3259
vn -0.1830 0.8222 0.5389
vn -0.0457 0.9987 -0.0205
vn 0.2223 -0.0772 -0.9719
vn 0.0088 -1.0000 0.0001
vn -0.3898 0.1308 0.9116
vn -0.7770 0.1527 0.6107
vn 0.0035 -1.0000 0.0006
vn -0.6751 0.2066 0.7082
vn 0.0397 -0.9989 -0.0261
vn -0.4152 -0.0825 -0.9060
vn 0.3004 0.1312 0.9448
vn -0.0049 -1.0000 -0.0007
vn -0.0088 -0.9999 -0.0147
vn 0.9444 0.0202 -0.3283
vn 0.7148 -0.1948 -0.6716
vn 0.9737 0.0417 0.2238
vn -0.9893 0.1443 -0.0209
vn -0.0425 0.3360 0.9409
vn -0.6881 0.2879 0.6661
vn -0.0070 -0.9998 0.0210
vn 0.5800 0.7577 0.2990
vn 0.1529 0.9872 -0.0464
vn -0.4377 0.0237 -0.8988
vn 0.5279 0.0945 0.8440
vn -0.4391 -0.0197 -0.8982
vn -0.6235 0.2776 0.7309
vn 0.8531 0.5217 0.0056
vn -0.4976 -0.0108 -0.8673
vn 0.4435 0.1856 0.8769
vn -0.6269 0.7472 0.2207
vn 0.4436 -0.0207 0.8960
vn 0.7578 0.4093 -0.5082
vn -0.7639 0.2627 0.5895
vn 0.5789 0.8023 -0.1458
vn 0.3479 0.8390 0.4184
vn -0.5145 0.1444 0.8452
vn -0.6055 0.2717 0.7481
vn 0.5813 -0.8036 -0.1278
vn 0.7558 -0.2192 0.6171
vn 0.7385 0.5920 -0.3228
vn -0.7225 0.4330 -0.5390
vn -0.1863 -0.5192 -0.8341
vn 0.5882 0.1731 0.7900
vn -0.5025 0.4212 -0.7551
vn -0.7138 0.3070 -0.6295
vn -0.5772 0.5093 0.6383
vn -0.9984 -0.0283 -0.0499
vn -0.6884 0.2086 0.6947
vn 0.9266 0.1637 -0.3386
vn -0.9408 0.3248 0.0972
vn 0.9014 0.2901 0.3215
vn -0.5391 0.2979 0.7878
vn -0.4782 0.2919 -0.8283
vn 0.7945 0.3065 -0.5243
vn 0.0558 0.2864 0.9565
vn -0.8568 0.3066 -0.4147
vn 0.3078 0.2887 -0.9066
vn 0.5594 0.2842 0.7787
vn -0.3672 0.2941 0.8824
vn 0.7401 0.6065 -0.2905
vn -0.9780 0.0000 0.2086
vn 0.2766 0.5471 0.7901
vn 0.7492 -0.2173 0.6256
vn -0.4256 0.8753 0.2297
vn -0.3322 0.0000 0.9432
vn 0.7147 0.6252 -0.3136
vn -0.7027 0.2469 -0.6673
vn 0.2766 0.9518 -0.1329
vn 0.1849 0.9768 0.1084
vn 0.0443 0.9957 0.0818
vn 0.0000 1.0000 0.0000
vn -0.2961 0.9545 -0.0358
vn 0.0413 0.9990 0.0193
vn 0.3012 0.9510 0.0700
vn -0.0812 0.9878 0.1333
vn -0.0568 0.9906 0.1243
vn -0.0351 0.9879 -0.1509
vn 0.2748 0.9523 -0.1329
vn -0.1039 0.9220 0.3730
vn 0.1478 0.8997 0.4107
vn -0.0700 0.8494 0.5231
vn -0.7206 0.6850 -0.1077
vn -0.2516 0.9508 0.1808
vn -0.1978 0.9791 0.0473
vn -0.0632 0.9910 0.1182
vn -0.0721 0.8472 0.5264
vn -0.1101 0.8838 0.4547
vn 0.4443 0.8934 -0.0664
vn 0.1688 0.2664 -0.9490
vn 0.0486 0.6213 0.7821
vn -0.7345 0.3703 0.5688
vn -0.5019 0.5511 0.6666
vn -0.0433 0.4948 0.8679
vn -0.2319 0.4003 0.8865
vn 0.7524 0.0214 -0.6584
vn -0.1538 0.9752 -0.1590
vn 0.9503 0.1504 0.2726
usemtl Wood
s off
f 20//1 2//1 4//1 21//1
f 21//2 4//2 6//2 22//2
f 22//3 6//3 8//3 23//3
f 19//4 9//4 60//4 59//4
f 82//5 81//5 14//5 25//5
f 25//6 14//6 16//6 26//6
f 12//7 10//7 32//7 33//7
f 26//8 16//8 18//8 27//8
f 27//9 18//9 2//9 20//9
f 1//10 3//10 5//10 7//10 9//10 11//10 80//10 13//10 15//10 17//10
f 9//11 19//11 24//11 11//11
f 17//12 27//12 20//12 1//12
f 15//13 26//13 27//13 17//13
f 26//14 15//14 47//14 48//14
f 80//15 82//15 25//15 13//15
f 5//16 22//16 23//16 7//16
f 3//17 21//17 22//17 5//17
f 1//18 20//18 21//18 3//18
f 19//19 23//19 8//19 10//19
f 24//20 19//20 10//20 12//20
f 33//21 32//21 40//21 41//21
f 10//22 8//22 31//22 32//22
f 4//23 2//23 29//23 28//23
f 8//24 6//24 30//24 31//24
f 6//25 4//25 28//25 30//25
f 16//26 14//26 34//26 35//26
f 81//27 12//27 33//27 83//27
f 30//28 28//28 36//28 71//28 70//28
f 29//29 69//29 44//29 37//29
f 83//30 33//30 41//30 84//30
f 31//31 30//31 70//31 38//31 39//31
f 35//32 34//32 42//32 43//32
f 32//33 31//33 39//33 40//33
f 28//34 29//34 37//34 36//34
f 35//35 69//35 18//35 16//35
f 48//36 47//36 51//36 52//36
f 15//37 13//37 46//37 47//37
f 13//38 25//38 45//38 46//38
f 46//39 45//39 49//39 50//39
f 47//40 46//40 50//40 51//40
f 54//41 53//41 56//41 55//41
f 51//42 50//42 54//42 55//42
f 52//43 51//43 55//43 56//43
f 50//44 49//44 53//44 54//44
f 60//45 58//45 62//45 64//45
f 9//46 7//46 58//46 60//46
f 7//47 23//47 57//47 58//47
f 62//48 61//48 65//48 66//48
f 58//49 57//49 61//49 62//49
f 59//50 60//50 64//50 63//50
f 66//51 65//51 67//51 68//51
f 63//52 64//52 68//52 67//52
f 64//53 62//53 66//53 68//53
f 44//54 69//54 35//54 43//54
f 70//55 71//55 38//55
f 76//56 73//56 78//56
f 69//57 29//57 77//57
f 18//58 73//58 76//58
f 18//59 69//59 75//59 73//59
f 29//60 2//60 72//60 74//60
f 2//61 18//61 76//61 72//61
f 69//62 77//62 75//62
f 72//63 76//63 77//63 74//63
f 75//64 77//64 79//64
f 77//65 76//65 78//65 79//65
f 73//66 75//66 79//66 78//66
f 34//67 83//67 84//67 42//67
f 14//68 81//68 83//68 34//68
f 11//69 24//69 82//69 80//69
f 24//70 12//70 81//70 82//70
f 85//71 86//71 88//71 87//71
f 87//72 88//72 90//72 89//72
f 88//73 86//73 96//73 94//73 92//73 90//73
f 93//74 94//74 96//74 95//74
f 95//75 96//75 86//75 85//75
f 77//76 29//76 74//76
usemtl Snow
f 52//77 56//77 127//77 125//77
f 26//78 48//78 123//78 121//78
f 56//79 53//79 126//79 127//79
f 59//80 63//80 132//80 130//80
f 63//81 67//81 134//81 132//81
f 57//82 23//82 129//82 131//82
f 43//83 42//83 112//83 111//83
f 39//84 38//84 107//84 106//84
f 84//85 41//85 109//85 110//85
f 37//86 44//86 113//86 104//86
f 71//87 36//87 103//87 105//87
f 41//88 40//88 108//88 109//88
f 44//89 43//89 111//89 113//89
f 36//90 37//90 104//90 103//90
f 38//87 71//87 105//87 107//87
f 40//91 39//91 106//91 108//91
f 42//92 84//92 110//92 112//92
f 90//93 92//93 99//93 102//93
f 93//94 91//94 100//94 98//94
f 101//95 102//95 99//95 100//95
f 89//96 90//96 102//96 101//96
f 100//97 99//97 97//97 98//97
f 91//98 89//98 101//98 100//98
f 92//99 94//99 97//99 99//99
f 94//100 93//100 98//100 97//100
f 103//101 115//101 105//101
f 106//102 115//102 117//102 114//102
f 112//103 116//103 111//103
f 113//104 103//104 104//104
f 116//105 118//105 113//105
f 111//106 116//106 113//106
f 105//107 115//107 106//107 107//107
f 114//108 117//108 118//108 119//108
f 119//109 118//109 116//109 112//109
f 113//110 118//110 117//110 103//110
f 103//111 117//111 115//111
f 119//112 109//112 108//112 114//112
f 114//113 108//113 106//113
f 110//114 109//114 119//114 112//114
f 120//115 121//115 123//115 122//115
f 124//116 125//116 127//116 126//116
f 122//117 123//117 125//117 124//117
f 129//118 128//118 130//118 131//118
f 131//119 130//119 132//119 133//119
f 133//120 132//120 134//120 135//120
f 25//121 26//121 121//121 120//121
f 48//122 52//122 125//122 123//122
f 53//123 49//123 124//123 126//123
f 49//124 45//124 122//124 124//124
f 45//125 25//125 120//125 122//125
f 67//126 65//126 135//126 134//126
f 19//127 59//127 130//127 128//127
f 65//128 61//128 133//128 135//128
f 23//129 19//129 128//129 129//129
f 61//130 57//130 131//130 133//130
