# Blender v2.79 (sub 0) OBJ File: 'Bush_Snow_2.blend'
# www.blender.org
mtllib Bush_Snow_2.mtl
o Bush_Snow_2_Cube.133
v -0.439841 0.447170 -0.397019
v -0.513054 0.457699 0.222069
v 0.512878 0.470965 0.308091
v 0.497222 0.458405 -0.257879
v -0.389856 0.786085 -0.372809
v 0.054756 0.811782 -0.602466
v -0.030923 0.491361 0.574159
v 0.096625 0.458411 -0.620965
v 0.369430 0.756548 -0.236149
v -0.483866 0.781247 0.185376
v 0.418286 0.791136 0.256259
v -0.020339 0.810717 0.482463
v 0.032025 -0.069072 -0.000531
v 0.106846 0.265891 -0.619794
v -0.020337 0.283799 0.621582
v 0.546401 0.282554 -0.253636
v 0.538467 0.280297 0.335194
v -0.533233 0.294190 0.254334
v -0.435620 0.265518 -0.367127
v -0.443989 0.123454 -0.352551
v 0.541793 0.119896 0.343615
v -0.015313 0.116210 0.641931
v -0.555061 0.123329 0.272165
v 0.562873 0.119681 -0.247429
v 0.110364 0.115979 -0.638831
v -0.049584 0.588573 0.509583
v 0.469949 0.566551 0.284949
v -0.506446 0.549033 0.211872
v 0.455982 0.593027 -0.261323
v 0.087698 0.579831 -0.629275
v -0.367021 0.574011 -0.352880
v 0.346705 0.467632 -0.540433
v -0.345808 0.561610 -0.325325
v -0.490250 0.552925 0.203515
v 0.453240 0.567752 0.276041
v 0.434926 0.575945 -0.238199
v 0.083159 0.569132 -0.595233
v -0.035552 0.585886 0.494804
v 0.269421 0.792890 -0.504660
v -0.154954 0.589558 -0.546665
v -0.522228 0.527341 -0.097567
v 0.424446 0.752973 0.032147
v -0.344583 0.578143 0.450812
v 0.228162 0.799943 0.381077
v 0.319976 0.118866 0.540915
v -0.671510 0.124843 -0.086515
v -0.359671 0.115281 0.585493
v 0.673004 0.118427 0.087103
v 0.358501 0.119397 -0.512441
v -0.183849 0.116375 -0.569981
v 0.100588 -0.035658 -0.523833
v -0.006495 -0.036041 0.521819
v 0.503045 -0.052134 -0.221458
v 0.449652 -0.019444 0.277346
v -0.473715 -0.035348 0.235264
v 0.362651 0.274176 -0.529625
v -0.535483 0.435634 -0.091956
v -0.341651 0.482718 0.483258
v 0.583783 0.460959 0.050075
v 0.285775 0.476548 0.471101
v -0.173563 0.451637 -0.575506
v 0.111599 0.313220 -0.663947
v -0.028140 0.341687 0.663947
v 0.619179 0.320245 -0.302502
v 0.578936 0.325718 0.351961
v -0.588376 0.324482 0.270566
v -0.453800 0.298123 -0.399901
v -0.607035 0.268618 -0.085408
v -0.360201 0.278400 0.566075
v 0.610116 0.287436 0.070766
v 0.318778 0.276823 0.537267
v -0.179978 0.241823 -0.578332
v -0.380373 -0.035072 -0.311087
v -0.446489 0.242894 -0.362474
v -0.500497 0.260334 0.243532
v 0.502843 0.253770 0.320585
v 0.493334 0.256278 -0.216694
v -0.015313 0.254151 0.548898
v 0.099787 0.239803 -0.589010
v 0.318508 0.581872 -0.533753
v -0.156297 0.797806 -0.499337
v -0.530515 0.768451 -0.125535
v 0.511555 0.587135 0.035478
v -0.294643 0.801898 0.430984
v 0.250978 0.592730 0.424495
v -0.050313 0.637695 0.569712
v 0.507691 0.616917 0.308215
v -0.528232 0.599369 0.217244
v 0.495233 0.614654 -0.289391
v 0.083289 0.636467 -0.642204
v -0.445581 0.585850 -0.427699
v 0.314742 0.569046 -0.506996
v -0.516081 0.533527 -0.096761
v 0.475086 0.574417 0.035960
v -0.319515 0.577484 0.434810
v -0.144537 0.574784 -0.499736
v 0.243294 0.583166 0.408500
v 0.332855 0.016229 -0.448358
v -0.164285 0.008934 -0.499422
v 0.274314 0.011985 0.475005
v 0.608228 -0.011617 0.060976
v -0.295636 0.013593 0.470784
v -0.549638 0.005883 -0.059095
v 0.367157 0.325048 -0.558968
v -0.673004 0.298231 -0.108040
v -0.377210 0.342155 0.565492
v 0.647759 0.323985 0.063415
v 0.338054 0.332250 0.562582
v -0.193229 0.294240 -0.636957
v -0.543726 0.264478 -0.068738
v -0.332008 0.249716 0.538010
v 0.626677 0.249004 0.080215
v 0.302241 0.251867 0.516582
v -0.165295 0.241811 -0.514173
v 0.354850 0.245003 -0.502342
v 0.310721 0.628909 -0.549856
v -0.190632 0.621055 -0.631497
v -0.536884 0.578009 -0.106594
v 0.555817 0.608409 0.038299
v -0.385687 0.627816 0.513154
v 0.285697 0.631341 0.488435
v -0.450423 0.493031 -0.405491
v -0.464699 0.340603 -0.408438
v -0.548235 0.481233 -0.093506
v -0.178103 0.497600 -0.588027
v -0.525297 0.503799 0.227643
v -0.602328 0.367559 0.277241
v -0.350006 0.529386 0.494759
v 0.523912 0.517366 0.315618
v 0.591469 0.368824 0.360483
v 0.596426 0.507133 0.051748
v 0.291656 0.523076 0.482327
v 0.507901 0.504521 -0.263193
v 0.632625 0.363226 -0.308829
v 0.353969 0.513957 -0.552158
v -0.398572 0.827829 -0.380144
v -0.542423 0.809794 -0.127260
v -0.285250 1.025233 -0.235564
v -0.159714 0.839816 -0.509543
v 0.056128 0.854109 -0.615012
v 0.053948 1.028035 -0.399579
v 0.275663 0.834788 -0.514986
v -0.032227 0.538225 0.587722
v -0.029381 0.385155 0.679547
v 0.098215 0.504527 -0.634518
v 0.113528 0.356042 -0.678475
v 0.120550 1.050630 -0.114977
v 0.285715 1.010598 0.124333
v 0.260335 0.979781 -0.181776
v 0.012354 1.089030 -0.057858
v -0.134941 1.076307 0.016184
v -0.026137 0.998716 0.263102
v -0.325533 1.015647 0.109685
v 0.377941 0.797622 -0.240383
v 0.434206 0.793965 0.033999
v -0.494715 0.822881 0.190705
v -0.301198 0.844001 0.441886
v 0.427906 0.832994 0.263197
v 0.233468 0.842001 0.390847
v -0.020671 0.853019 0.494533
v 0.374884 0.368138 -0.571114
v 0.159303 0.931938 -0.342670
v -0.110994 1.034091 -0.339840
v -0.353804 0.941180 -0.092038
v -0.198674 0.955068 0.273335
v 0.155352 1.034519 0.231709
v 0.308702 0.922517 0.001820
v -0.688876 0.340713 -0.109955
v -0.386371 0.385634 0.578858
v 0.661854 0.367052 0.065390
v 0.345121 0.375504 0.575882
v -0.198216 0.336632 -0.650872
vn -0.7768 0.5247 -0.3482
vn -0.4835 0.6286 -0.6092
vn -0.7818 0.3636 0.5065
vn -0.9735 0.2202 0.0616
vn 0.7584 0.6373 0.1369
vn 0.4834 0.5570 0.6754
vn 0.8058 0.4424 -0.3937
vn 0.7896 0.5887 -0.1729
vn -0.9137 0.1788 -0.3649
vn -0.5236 0.4758 -0.7068
vn -0.2309 0.4300 -0.8728
vn 0.3921 0.2985 -0.8701
vn 0.2591 0.5967 0.7595
vn -0.2188 0.5598 0.7992
vn -0.2506 0.3994 -0.8819
vn 0.3084 0.3163 -0.8972
vn 0.7649 0.5339 -0.3604
vn 0.7271 0.6741 -0.1299
vn -0.7833 0.4390 0.4401
vn -0.9863 0.1451 0.0781
vn 0.8185 0.5734 0.0358
vn 0.5225 0.5332 0.6654
vn 0.2727 0.4927 0.8264
vn -0.1674 0.4790 0.8617
vn -0.0593 -0.9896 -0.1314
vn 0.0670 -0.9874 -0.1430
vn 0.0910 -0.9930 0.0748
vn 0.0991 -0.9881 0.1179
vn -0.0757 -0.9898 0.1210
vn -0.1256 -0.9918 -0.0220
vn 0.2397 -0.7332 -0.6364
vn -0.0170 -0.9644 -0.2638
vn -0.0281 -0.7185 -0.6950
vn 0.3084 -0.5885 -0.7474
vn -0.0367 -0.8700 0.4916
vn 0.0760 -0.8648 0.4964
vn 0.2066 -0.5170 0.8306
vn -0.2015 -0.3547 0.9130
vn 0.7597 -0.6030 -0.2433
vn 0.4919 -0.8331 -0.2531
vn 0.4898 -0.7769 -0.3957
vn 0.5353 -0.8424 -0.0610
vn 0.4460 -0.7675 0.4605
vn 0.8931 -0.2894 0.3445
vn 0.7032 -0.6899 0.1719
vn 0.5432 -0.5765 0.6104
vn -0.3713 -0.9235 0.0970
vn -0.5852 -0.7546 0.2968
vn -0.6794 -0.5931 0.4321
vn -0.4444 -0.8811 0.1616
vn -0.2397 -0.9261 -0.2914
vn -0.4010 -0.9040 -0.1484
vn -0.4365 -0.8508 -0.2925
vn -0.4770 -0.7193 -0.5051
vn -0.7875 0.3951 -0.4731
vn -0.5513 0.1884 -0.8127
vn -0.5533 -0.4643 -0.6916
vn -0.6751 -0.5681 -0.4707
vn 0.8443 0.3208 0.4293
vn 0.6561 0.2648 0.7067
vn 0.5336 -0.6120 0.5837
vn 0.7097 -0.5600 0.4274
vn 0.1831 0.4008 0.8977
vn -0.0935 0.4639 0.8809
vn -0.1719 -0.6950 0.6982
vn 0.2341 -0.5887 0.7737
vn -0.7902 0.3752 0.4846
vn -0.8147 0.5448 0.1985
vn -0.7884 -0.5837 0.1940
vn -0.6243 -0.6230 0.4712
vn 0.8058 0.3041 -0.5081
vn 0.8567 0.4005 -0.3249
vn 0.8858 -0.3655 -0.2859
vn 0.6977 -0.4094 -0.5879
vn -0.2280 0.3861 -0.8938
vn 0.3754 0.2367 -0.8961
vn 0.3736 -0.5676 -0.7337
vn -0.1793 -0.5773 -0.7966
vn 0.1171 -0.9142 0.3881
vn 0.1398 -0.8261 0.5459
vn -0.0857 -0.7896 0.6076
vn 0.0081 -0.9930 0.1182
vn 0.2156 -0.9761 -0.0264
vn 0.6382 -0.7643 0.0925
vn 0.3164 -0.7828 0.5358
vn 0.0690 -0.9642 0.2562
vn 0.1022 -0.9939 0.0412
vn -0.6122 -0.6697 0.4205
vn -0.9397 -0.3369 0.0592
vn 0.4200 -0.9069 0.0325
vn 0.5310 -0.8168 -0.2255
vn 0.6911 -0.5875 -0.4210
vn 0.4312 -0.8969 -0.0976
vn 0.4310 -0.8984 -0.0839
vn -0.1400 -0.9474 -0.2879
vn -0.1074 -0.7599 -0.6411
vn 0.3687 -0.2102 -0.9055
vn 0.1393 -0.9298 -0.3407
vn -0.0388 -0.9833 -0.1780
vn -0.3775 -0.8928 -0.2459
vn -0.0741 -0.9746 -0.2115
vn -0.1755 -0.9465 -0.2708
vn 0.7912 0.2761 -0.5457
vn -0.4523 -0.2451 -0.8575
vn -0.6431 -0.3061 -0.7019
vn -0.3037 0.2783 0.9112
vn -0.7509 -0.2727 0.6015
vn -0.7603 -0.3098 -0.5709
vn 0.5328 0.2710 0.8017
vn -0.8313 -0.2599 -0.4914
vn -0.9155 -0.3318 0.2276
vn 0.1529 0.2738 0.9496
vn 0.9554 -0.2185 -0.1988
vn -0.9336 0.2462 0.2604
vn -0.7573 -0.3324 0.5621
vn 0.9168 0.2665 0.2975
vn 0.6183 -0.3216 0.7171
vn -0.1691 -0.2717 0.9474
vn 0.2629 0.2750 -0.9248
vn 0.9028 -0.2249 -0.3667
vn -0.8511 0.2503 0.4615
vn 0.9236 -0.3125 0.2222
vn 0.9490 -0.3073 -0.0710
vn 0.3559 -0.2538 0.8994
vn -0.2879 0.2588 -0.9220
vn -0.5587 0.2606 -0.7873
vn 0.6753 -0.3098 -0.6694
vn -0.2564 -0.3330 0.9074
vn 0.5224 -0.2549 0.8137
vn -0.9275 0.2636 -0.2651
vn 0.2449 -0.3213 0.9148
vn 0.3786 -0.2743 -0.8840
vn 0.3732 -0.3131 -0.8733
vn 0.9700 -0.2339 0.0665
vn -0.6033 0.2267 -0.7646
vn -0.7946 0.4474 -0.4105
vn -0.7792 0.6221 0.0770
vn -0.7251 0.5130 0.4594
vn 0.5384 0.5273 0.6573
vn 0.8703 0.4442 0.2129
vn 0.8122 0.5653 -0.1441
vn 0.7102 0.4768 -0.5180
vn -0.6748 0.7165 -0.1770
vn -0.3912 0.6690 -0.6320
vn -0.2938 0.7084 -0.6418
vn 0.4730 0.7834 -0.4031
vn -0.2424 0.5148 0.8224
vn 0.2587 0.5416 0.7998
vn 0.3261 0.2358 -0.9155
vn -0.1325 0.3252 -0.9363
vn 0.2645 0.9642 0.0183
vn 0.6117 0.7805 -0.1293
vn 0.5240 0.7885 -0.3219
vn 0.0895 0.9823 -0.1644
vn -0.1491 0.9081 0.3912
vn -0.0574 0.9628 0.2640
vn -0.1356 0.9828 -0.1257
vn -0.5121 0.8582 -0.0359
vn 0.5968 0.7454 -0.2969
vn 0.7800 0.6184 -0.0959
vn -0.4655 0.7719 0.4329
vn -0.6730 0.7392 -0.0261
vn 0.7846 0.6011 -0.1519
vn 0.4604 0.7066 0.5373
vn 0.1514 0.7630 0.6284
vn -0.1463 0.8482 0.5090
vn -0.9512 -0.2675 0.1537
vn -0.4122 -0.2466 -0.8771
vn -0.0640 -0.3180 -0.9459
vn 0.9601 0.2655 -0.0872
usemtl Green
s off
f 1//1 57//1 93//1 33//1
f 1//2 33//2 96//2 61//2
f 2//3 58//3 95//3 34//3
f 2//4 34//4 93//4 57//4
f 3//5 59//5 94//5 35//5
f 3//6 35//6 97//6 60//6
f 4//7 32//7 92//7 36//7
f 4//8 36//8 94//8 59//8
f 5//9 91//9 118//9 82//9
f 5//10 81//10 117//10 91//10
f 6//11 90//11 117//11 81//11
f 6//12 39//12 116//12 90//12
f 7//13 60//13 97//13 38//13
f 7//14 38//14 95//14 58//14
f 8//15 61//15 96//15 37//15
f 8//16 37//16 92//16 32//16
f 9//17 89//17 116//17 39//17
f 9//18 42//18 119//18 89//18
f 10//19 88//19 120//19 84//19
f 10//20 82//20 118//20 88//20
f 11//21 87//21 119//21 42//21
f 11//22 44//22 121//22 87//22
f 12//23 86//23 121//23 44//23
f 12//24 84//24 120//24 86//24
f 13//25 73//25 99//25 51//25
f 13//26 51//26 98//26 53//26
f 13//27 53//27 101//27 54//27
f 13//28 54//28 100//28 52//28
f 13//29 52//29 102//29 55//29
f 13//30 55//30 103//30 73//30
f 14//31 56//31 115//31 79//31
f 14//32 79//32 114//32 72//32
f 14//33 72//33 109//33 62//33
f 14//34 62//34 104//34 56//34
f 15//35 69//35 111//35 78//35
f 15//36 78//36 113//36 71//36
f 15//37 71//37 108//37 63//37
f 15//38 63//38 106//38 69//38
f 16//39 70//39 112//39 77//39
f 16//40 77//40 115//40 56//40
f 16//41 56//41 104//41 64//41
f 16//42 64//42 107//42 70//42
f 17//43 71//43 113//43 76//43
f 17//44 76//44 112//44 70//44
f 17//45 70//45 107//45 65//45
f 17//46 65//46 108//46 71//46
f 18//47 68//47 110//47 75//47
f 18//48 75//48 111//48 69//48
f 18//49 69//49 106//49 66//49
f 18//50 66//50 105//50 68//50
f 19//51 72//51 114//51 74//51
f 19//52 74//52 110//52 68//52
f 19//53 68//53 105//53 67//53
f 19//54 67//54 109//54 72//54
f 20//55 46//55 110//55 74//55
f 20//56 74//56 114//56 50//56
f 20//57 50//57 99//57 73//57
f 20//58 73//58 103//58 46//58
f 21//59 48//59 112//59 76//59
f 21//60 76//60 113//60 45//60
f 21//61 45//61 100//61 54//61
f 21//62 54//62 101//62 48//62
f 22//63 45//63 113//63 78//63
f 22//64 78//64 111//64 47//64
f 22//65 47//65 102//65 52//65
f 22//66 52//66 100//66 45//66
f 23//67 47//67 111//67 75//67
f 23//68 75//68 110//68 46//68
f 23//69 46//69 103//69 55//69
f 23//70 55//70 102//70 47//70
f 24//71 49//71 115//71 77//71
f 24//72 77//72 112//72 48//72
f 24//73 48//73 101//73 53//73
f 24//74 53//74 98//74 49//74
f 25//75 50//75 114//75 79//75
f 25//76 79//76 115//76 49//76
f 25//77 49//77 98//77 51//77
f 25//78 51//78 99//78 50//78
f 26//79 38//79 97//79 85//79
f 26//80 85//80 121//80 86//80
f 26//81 86//81 120//81 43//81
f 26//82 43//82 95//82 38//82
f 27//83 35//83 94//83 83//83
f 27//84 83//84 119//84 87//84
f 27//85 87//85 121//85 85//85
f 27//86 85//86 97//86 35//86
f 28//87 34//87 95//87 43//87
f 28//88 43//88 120//88 88//88
f 28//89 88//89 118//89 41//89
f 28//90 41//90 93//90 34//90
f 29//91 36//91 92//91 80//91
f 29//92 80//92 116//92 89//92
f 29//93 89//93 119//93 83//93
f 29//94 83//94 94//94 36//94
f 30//95 37//95 96//95 40//95
f 30//96 40//96 117//96 90//96
f 30//97 90//97 116//97 80//97
f 30//98 80//98 92//98 37//98
f 31//99 33//99 93//99 41//99
f 31//100 41//100 118//100 91//100
f 31//101 91//101 117//101 40//101
f 31//102 40//102 96//102 33//102
usemtl Snow
f 58//103 2//103 126//103 128//103
f 81//104 5//104 136//104 139//104
f 109//105 67//105 123//105 172//105
f 8//106 32//106 135//106 145//106
f 10//107 84//107 157//107 156//107
f 67//108 105//108 168//108 123//108
f 1//109 61//109 125//109 122//109
f 5//110 82//110 137//110 136//110
f 105//111 66//111 127//111 168//111
f 61//112 8//112 145//112 125//112
f 42//113 9//113 154//113 155//113
f 4//114 59//114 131//114 133//114
f 66//115 106//115 169//115 127//115
f 57//116 1//116 122//116 124//116
f 108//117 65//117 130//117 171//117
f 84//118 12//118 160//118 157//118
f 7//119 58//119 128//119 143//119
f 9//120 39//120 142//120 154//120
f 32//121 4//121 133//121 135//121
f 65//122 107//122 170//122 130//122
f 107//123 64//123 134//123 170//123
f 12//124 44//124 159//124 160//124
f 60//125 7//125 143//125 132//125
f 3//126 60//126 132//126 129//126
f 64//127 104//127 161//127 134//127
f 106//128 63//128 144//128 169//128
f 44//129 11//129 158//129 159//129
f 59//130 3//130 129//130 131//130
f 63//131 108//131 171//131 144//131
f 39//132 6//132 140//132 142//132
f 104//133 62//133 146//133 161//133
f 11//134 42//134 155//134 158//134
f 122//135 125//135 172//135 123//135
f 122//136 123//136 168//136 124//136
f 126//137 124//137 168//137 127//137
f 126//138 127//138 169//138 128//138
f 129//139 132//139 171//139 130//139
f 129//140 130//140 170//140 131//140
f 133//141 131//141 170//141 134//141
f 133//142 134//142 161//142 135//142
f 136//143 137//143 164//143 138//143
f 136//144 138//144 163//144 139//144
f 140//145 139//145 163//145 141//145
f 140//146 141//146 162//146 142//146
f 143//147 128//147 169//147 144//147
f 143//148 144//148 171//148 132//148
f 145//149 135//149 161//149 146//149
f 145//150 146//150 172//150 125//150
f 147//151 150//151 166//151 148//151
f 147//152 148//152 167//152 149//152
f 147//153 149//153 162//153 141//153
f 147//154 141//154 163//154 150//154
f 151//155 153//155 165//155 152//155
f 151//156 152//156 166//156 150//156
f 151//157 150//157 163//157 138//157
f 151//158 138//158 164//158 153//158
f 154//159 142//159 162//159 149//159
f 154//160 149//160 167//160 155//160
f 156//161 157//161 165//161 153//161
f 156//162 153//162 164//162 137//162
f 158//163 155//163 167//163 148//163
f 158//164 148//164 166//164 159//164
f 160//165 159//165 166//165 152//165
f 160//166 152//166 165//166 157//166
f 82//167 10//167 156//167 137//167
f 6//168 81//168 139//168 140//168
f 62//169 109//169 172//169 146//169
f 2//170 57//170 124//170 126//170
