# Blender v2.79 (sub 0) OBJ File: 'Flowers.blend'
# www.blender.org
mtllib Flowers.mtl
o Flowers_Plane.029
v -0.160115 0.163801 -0.094915
v -0.157545 0.157907 -0.121174
v -0.243130 0.426240 -0.071107
v -0.248425 0.427721 -0.090641
v -0.050044 -0.003356 -0.095021
v -0.043747 -0.003263 -0.128489
v -0.246877 0.631837 -0.062826
v -0.250759 0.632974 -0.077405
v -0.272939 0.624152 -0.099317
v -0.218036 0.627921 -0.115857
v -0.295931 0.636429 -0.119766
v -0.212223 0.642106 -0.142990
v -0.300345 0.704540 -0.175008
v -0.255120 0.707660 -0.189063
v -0.281501 0.716393 -0.189741
v -0.203163 0.626764 -0.058070
v -0.257140 0.623169 -0.044976
v -0.178487 0.640428 -0.038973
v -0.270589 0.634319 -0.017372
v -0.192352 0.703845 0.024267
v -0.238342 0.700776 0.035580
v -0.213252 0.712374 0.038518
v -0.200810 0.642709 -0.141253
v -0.176880 0.640891 -0.049542
v -0.143553 0.712086 -0.130222
v -0.131078 0.711209 -0.084439
v -0.129751 0.722417 -0.109841
v -0.281628 0.633756 -0.019614
v -0.300413 0.635914 -0.112508
v -0.345998 0.696793 -0.029415
v -0.355904 0.697841 -0.075819
v -0.359849 0.706945 -0.049853
v -0.166738 0.156350 -0.095906
v -0.164111 0.150500 -0.122167
v -0.250353 0.425380 -0.069336
v -0.255643 0.426905 -0.088857
v -0.057456 -0.009365 -0.096367
v -0.051159 -0.009273 -0.129835
v -0.254422 0.631409 -0.060850
v -0.258304 0.632546 -0.075429
v -0.272001 0.631841 -0.098311
v -0.219379 0.635453 -0.114279
v -0.294978 0.642550 -0.115008
v -0.211292 0.648281 -0.138298
v -0.298682 0.708734 -0.168632
v -0.253457 0.711848 -0.182683
v -0.280018 0.721330 -0.183873
v -0.204956 0.634339 -0.058715
v -0.256873 0.630897 -0.046077
v -0.179948 0.646695 -0.043400
v -0.272048 0.640598 -0.021784
v -0.194138 0.708277 0.018088
v -0.240128 0.705203 0.029397
v -0.214976 0.717526 0.032905
v -0.205767 0.648578 -0.139841
v -0.181780 0.646812 -0.048146
v -0.150085 0.715962 -0.128398
v -0.137613 0.715080 -0.082614
v -0.135787 0.727062 -0.108107
v -0.277453 0.640315 -0.020355
v -0.296216 0.642460 -0.113252
v -0.339882 0.701509 -0.030585
v -0.349784 0.702552 -0.076989
v -0.354319 0.712359 -0.050912
v -0.226436 0.637899 -0.100554
v -0.259190 0.635636 -0.090794
v -0.249812 0.635031 -0.058373
v -0.217579 0.637202 -0.066303
v -0.239208 0.649934 -0.078653
v -0.063422 0.131696 -0.246384
v -0.037014 0.131763 -0.248390
v -0.152450 0.334041 -0.333054
v -0.134234 0.334790 -0.341936
v -0.039087 0.000172 -0.103380
v -0.005083 0.000172 -0.103380
v -0.172556 0.531249 -0.378726
v -0.158965 0.531808 -0.385353
v -0.140914 0.519140 -0.409092
v -0.115136 0.533750 -0.359857
v -0.125475 0.526987 -0.437333
v -0.088127 0.549166 -0.361888
v -0.075275 0.593690 -0.464558
v -0.053619 0.605745 -0.424084
v -0.058041 0.609185 -0.451310
v -0.169258 0.534715 -0.334723
v -0.191494 0.520504 -0.383728
v -0.184338 0.552657 -0.310004
v -0.221551 0.528443 -0.393763
v -0.252053 0.611287 -0.323798
v -0.271152 0.599171 -0.365522
v -0.270172 0.615389 -0.342968
v -0.087848 0.551955 -0.350673
v -0.173686 0.553569 -0.310474
v -0.091962 0.630990 -0.306519
v -0.134721 0.631929 -0.285946
v -0.110063 0.643529 -0.291427
v -0.221270 0.525773 -0.404718
v -0.133377 0.525511 -0.440233
v -0.226090 0.575205 -0.480523
v -0.182275 0.574943 -0.498762
v -0.208942 0.582748 -0.499541
v -0.063605 0.125937 -0.253040
v -0.037182 0.125991 -0.254974
v -0.155497 0.331562 -0.339806
v -0.137297 0.332352 -0.348695
v -0.039087 -0.005828 -0.110893
v -0.005083 -0.005828 -0.110893
v -0.175810 0.529333 -0.385564
v -0.162220 0.529892 -0.392190
v -0.142113 0.526850 -0.409456
v -0.117292 0.540853 -0.362286
v -0.130282 0.533111 -0.436700
v -0.092877 0.555339 -0.361299
v -0.081455 0.598038 -0.462581
v -0.059802 0.610088 -0.422103
v -0.063789 0.614235 -0.449738
v -0.169311 0.541805 -0.338001
v -0.190742 0.528151 -0.385131
v -0.180550 0.558579 -0.313407
v -0.217778 0.534378 -0.397163
v -0.246511 0.615372 -0.327488
v -0.265606 0.603250 -0.369212
v -0.265212 0.620183 -0.346631
v -0.090398 0.556727 -0.356307
v -0.176214 0.558403 -0.316064
v -0.095098 0.633496 -0.313219
v -0.137859 0.634429 -0.292648
v -0.113060 0.646886 -0.297811
v -0.220124 0.533029 -0.402063
v -0.132223 0.532758 -0.437557
v -0.224090 0.581037 -0.475727
v -0.180273 0.580770 -0.493961
v -0.207189 0.589149 -0.495422
v -0.132151 0.541690 -0.367048
v -0.147424 0.532962 -0.396438
v -0.177608 0.533749 -0.381348
v -0.164222 0.542260 -0.352108
v -0.156526 0.550708 -0.377640
v -0.038619 0.179838 -0.010468
v -0.011150 0.179838 -0.010468
v -0.039087 -0.001368 -0.028263
v -0.005083 -0.001368 -0.028263
v -0.034202 0.712512 -0.045057
v -0.015651 0.713558 -0.046321
v 0.015700 0.703365 -0.068771
v 0.023127 0.703365 0.001571
v 0.046080 0.719205 -0.090887
v 0.054992 0.719205 0.015900
v 0.115839 0.800794 -0.078261
v 0.122477 0.800794 -0.020219
v 0.129639 0.813373 -0.051222
v -0.050188 0.703365 0.006219
v -0.053660 0.703365 -0.062204
v -0.078574 0.719205 0.032705
v -0.083599 0.719205 -0.083876
v -0.149982 0.800794 0.006466
v -0.153128 0.800794 -0.051869
v -0.162137 0.813373 -0.021351
v 0.050274 0.719205 0.029325
v -0.066156 0.719205 0.037096
v 0.025727 0.800794 0.101332
v -0.032518 0.800794 0.105852
v -0.001796 0.813373 0.114138
v -0.078356 0.719205 -0.096732
v 0.038326 0.719205 -0.097996
v -0.049830 0.800794 -0.167257
v 0.008577 0.800794 -0.168521
v -0.021635 0.813373 -0.178508
v -0.107411 0.598197 -0.064129
v -0.110765 0.568698 -0.066955
v -0.118402 0.584859 -0.068378
v -0.028329 0.588107 -0.045479
v -0.030741 0.564539 -0.047863
v -0.038756 0.179677 -0.020081
v -0.011287 0.179674 -0.020081
v -0.039087 -0.000428 -0.037832
v -0.005083 -0.000428 -0.037832
v -0.034861 0.712609 -0.054649
v -0.016310 0.713656 -0.055913
v 0.014490 0.712785 -0.067269
v 0.021748 0.712778 0.000178
v 0.040286 0.726859 -0.090346
v 0.049284 0.726923 0.016434
v 0.107868 0.806100 -0.077385
v 0.114502 0.806093 -0.019343
v 0.122346 0.819582 -0.050388
v -0.048777 0.712769 0.004795
v -0.052167 0.712790 -0.061026
v -0.072704 0.726815 0.032443
v -0.077747 0.726830 -0.084137
v -0.141974 0.806100 0.006070
v -0.145115 0.806093 -0.052265
v -0.154806 0.819582 -0.021747
v 0.049883 0.726828 0.023478
v -0.066542 0.726886 0.031326
v 0.025142 0.806100 0.093335
v -0.033103 0.806093 0.097850
v -0.002364 0.819582 0.106819
v -0.078235 0.726931 -0.091010
v 0.038446 0.726913 -0.092249
v -0.049692 0.806100 -0.159240
v 0.008714 0.806093 -0.160499
v -0.021476 0.819582 -0.171169
v 0.006857 0.716876 -0.011286
v 0.002556 0.716854 -0.053228
v -0.038815 0.716835 -0.049369
v -0.036608 0.716859 -0.008482
v -0.016319 0.733509 -0.030769
v -0.105066 0.598879 -0.073428
v -0.108421 0.569379 -0.076255
v -0.116058 0.585541 -0.077678
v -0.025985 0.588788 -0.054779
v -0.028397 0.565221 -0.057162
v 0.070596 0.280232 -0.027048
v 0.070538 0.310042 -0.026146
v 0.080365 0.295103 -0.027485
v -0.011247 0.279325 -0.024966
v -0.011529 0.303127 -0.024425
v 0.070287 0.280466 -0.036655
v 0.070228 0.310276 -0.035752
v 0.080056 0.295337 -0.037092
v -0.011556 0.279559 -0.034573
v -0.011838 0.303361 -0.034032
vn 0.9443 0.3174 -0.0868
vn 0.8250 0.5610 0.0680
vn 0.9658 0.0278 -0.2577
vn -0.9460 -0.3131 0.0846
vn -0.8247 -0.5613 -0.0691
vn -0.9658 -0.0295 0.2575
vn 0.0947 -0.0645 0.9934
vn -0.1051 0.0808 -0.9912
vn 0.0725 0.0975 -0.9926
vn -0.1003 -0.0678 0.9926
vn -0.0338 0.9957 0.0866
vn 0.2486 -0.0347 0.9680
vn -0.2511 0.0596 -0.9661
vn 0.2006 0.4735 0.8577
vn 0.0215 0.7402 0.6720
vn 0.4167 0.2452 0.8753
vn -0.1997 -0.4698 -0.8599
vn -0.0209 -0.7375 -0.6750
vn -0.4168 -0.2453 -0.8753
vn -0.8984 -0.2429 0.3658
vn 0.8906 0.2580 -0.3744
vn 0.9868 0.1184 -0.1107
vn -0.9921 -0.0896 0.0872
vn -0.1398 0.9688 -0.2049
vn -0.9077 0.0042 0.4196
vn 0.9043 0.0198 -0.4265
vn -0.0259 -0.0658 -0.9975
vn -0.0000 -0.0977 0.9952
vn -0.2401 -0.0687 0.9683
vn -0.9991 0.0105 0.0414
vn 0.0000 0.0981 -0.9952
vn 0.2401 0.0687 -0.9683
vn 0.9991 0.0061 -0.0414
vn 0.9994 0.0345 -0.0057
vn -1.0000 0.0015 0.0072
vn -0.0554 0.9984 0.0140
vn -0.7420 0.6558 -0.1390
vn -0.8667 -0.4316 -0.2501
vn 0.0259 0.0659 0.9975
vn -0.0324 -0.9962 -0.0812
vn 0.9645 -0.1224 0.2342
vn 0.0286 -0.0270 0.9992
vn -0.0286 0.0270 -0.9992
vn 0.8346 -0.5494 -0.0402
vn 0.8348 0.5504 -0.0135
vn 0.1031 0.9898 0.0985
vn -0.0834 0.9962 0.0269
vn -0.9994 -0.0126 0.0319
vn 0.0105 -0.9996 -0.0247
vn -0.0731 -0.8826 -0.4644
vn 0.2143 -0.6679 0.7127
vn -0.1899 -0.6320 -0.7513
vn 0.1616 -0.8870 0.4325
vn 0.7679 -0.6033 -0.2152
vn 0.2207 -0.6596 0.7185
vn 0.5068 -0.8492 -0.1484
vn -0.7018 -0.7007 0.1284
vn 0.7728 -0.5946 -0.2220
vn -0.3803 -0.9222 0.0697
vn 0.1753 0.6321 0.7548
vn -0.7080 -0.6931 0.1355
vn 0.0776 0.8752 0.4776
vn -0.2144 0.6671 -0.7134
vn 0.1908 0.6291 0.7536
vn -0.1648 0.8785 -0.4483
vn -0.7686 0.6023 0.2154
vn -0.2212 0.6567 -0.7210
vn -0.5218 0.8393 0.1525
vn 0.7028 0.6997 -0.1286
vn -0.7750 0.5915 0.2225
vn 0.3927 0.9168 -0.0722
vn 0.8596 0.2568 -0.4417
vn 0.7105 0.6904 -0.1361
vn 0.0171 0.9446 0.3276
vn -0.1396 0.9596 -0.2441
vn -0.3438 0.9318 0.1165
vn 0.2472 0.9679 -0.0446
vn 0.9715 -0.0737 0.2251
vn -0.6749 -0.2036 0.7092
vn -0.9838 0.0730 0.1635
vn -0.9068 0.1239 0.4029
vn -0.6823 0.6591 -0.3162
vn 0.2750 0.7358 -0.6188
vn -0.8882 -0.2317 -0.3968
vn 0.6125 -0.1410 -0.7778
vn 0.9661 0.2551 -0.0384
vn 0.4083 0.1826 0.8944
vn 0.5813 0.7075 0.4020
vn -0.3938 0.6527 0.6472
vn -0.7715 -0.2304 -0.5931
vn -0.0812 0.2265 -0.9706
vn -0.3829 0.1974 -0.9025
vn 0.3219 0.7276 -0.6058
vn 0.5907 0.7198 0.3646
vn 0.7163 -0.1345 0.6847
vn -0.2660 -0.1846 0.9461
vn 0.0042 0.1633 0.9866
vn 0.7412 -0.6448 -0.1868
vn -0.4360 0.6403 0.6324
vn -0.6516 0.6726 -0.3506
vn 0.4269 -0.1375 -0.8938
vn 0.4868 -0.8735 0.0113
vn -0.6301 -0.6232 0.4632
vn 0.7359 -0.6465 -0.2012
vn -0.3532 -0.8445 0.4026
vn 0.3767 -0.4393 0.8156
vn -0.6351 -0.6138 0.4689
vn 0.2770 -0.7322 0.6222
vn -0.2160 -0.8256 -0.5212
vn 0.3838 -0.4297 0.8173
vn -0.0907 -0.9795 -0.1800
vn -0.7419 0.6437 0.1877
vn -0.2244 -0.8195 -0.5274
vn -0.4985 0.8669 -0.0032
vn 0.6309 0.6224 -0.4633
vn -0.7378 0.6438 0.2031
vn 0.3687 0.8357 -0.4069
vn -0.3770 0.4382 -0.8160
vn 0.6376 0.6110 -0.4693
vn -0.2832 0.7195 -0.6341
vn 0.2164 0.8248 0.5223
vn -0.3846 0.4263 -0.8188
vn 0.0956 0.9766 0.1925
vn 0.5736 0.4253 0.7001
vn 0.2256 0.8173 0.5302
vn -0.3652 0.9253 -0.1021
vn 0.1684 0.9174 -0.3606
vn -0.2208 0.8454 -0.4864
vn 0.0402 0.9981 0.0475
vn -0.0459 0.1137 0.9925
vn -0.8066 -0.3408 -0.4831
vn -0.3381 -0.1221 -0.9331
vn -0.5624 -0.0605 -0.8247
vn 0.1580 0.5180 -0.8406
vn 0.6210 0.7837 0.0132
vn 0.2444 -0.3947 -0.8857
vn 0.8797 -0.0084 0.4754
vn 0.1960 0.4388 0.8769
vn -0.8160 0.2463 0.5230
vn -0.3270 0.8015 0.5007
vn -0.7377 0.5546 -0.3849
vn 0.4579 -0.3680 -0.8092
vn 0.9288 0.2197 -0.2986
vn 0.8099 0.1315 -0.5717
vn 0.6168 0.7846 0.0623
vn -0.2891 0.8159 0.5006
vn -0.5399 -0.0019 0.8417
vn -0.9681 -0.2458 -0.0488
vn -0.9771 0.1475 0.1536
vn -0.7300 0.5344 -0.4260
vn 0.1967 0.5377 -0.8199
vn 0.9608 -0.0395 0.2744
vn 0.4491 -0.8925 -0.0414
vn -0.7557 -0.6540 0.0353
vn 0.7586 -0.6458 -0.0868
vn -0.4758 -0.8793 0.0218
vn 0.0531 -0.6540 0.7547
vn -0.7624 -0.6458 0.0411
vn 0.0308 -0.8818 0.4706
vn -0.0109 -0.6540 -0.7565
vn 0.0591 -0.6458 0.7612
vn -0.0187 -0.8956 -0.4444
vn -0.7592 0.6468 0.0718
vn -0.0165 -0.6458 -0.7634
vn 0.0000 -1.0000 0.0000
vn -0.4630 0.8853 0.0429
vn 0.7564 0.6531 -0.0354
vn -0.7610 0.6429 0.0871
vn 0.4917 0.8704 -0.0226
vn -0.0533 0.6530 -0.7554
vn 0.7649 0.6429 -0.0413
vn -0.0322 0.8730 -0.4867
vn 0.0109 0.6529 0.7574
vn -0.0593 0.6429 -0.7637
vn 0.0188 0.8894 0.4567
vn 0.2786 0.1910 0.9412
vn 0.0166 0.6429 0.7658
vn -0.3028 0.9529 0.0159
vn 0.2884 0.9570 -0.0306
vn -0.0281 0.9537 -0.2996
vn 0.0201 0.9498 0.3121
vn -0.4049 -0.1221 0.9062
vn -0.5747 -0.1392 -0.8065
vn 0.0257 0.1356 -0.9904
vn -0.2226 0.1902 -0.9562
vn 0.4539 0.6862 -0.5685
vn 0.5733 0.6966 0.4313
vn 0.5507 -0.1936 -0.8119
vn 0.6456 -0.2034 0.7361
vn -0.1375 0.1972 0.9707
vn -0.9506 0.1897 0.2458
vn -0.4872 0.6862 0.5402
vn -0.5464 0.6966 -0.4649
vn 0.7217 -0.2059 -0.6609
vn 0.9737 0.1968 0.1151
vn 0.9626 0.1876 -0.1952
vn 0.5516 0.6862 0.4743
vn -0.4519 0.6966 0.5572
vn -0.8098 -0.1518 0.5667
vn -0.8835 -0.1357 -0.4483
vn -0.9657 0.1972 -0.1688
vn -0.5242 0.6862 -0.5043
vn 0.4823 0.6966 -0.5311
vn 0.7944 -0.1932 0.5759
vn 0.7582 -0.6480 -0.0715
vn -0.1748 -0.6333 -0.7539
vn 0.0933 -0.9668 0.2380
vn 0.0580 -0.9977 -0.0349
vn 0.5561 0.8214 -0.1271
vn -0.6479 0.7347 0.2011
vn -0.2236 0.7933 -0.5663
vn 0.1010 0.7758 0.6229
vn 0.1831 0.9155 0.3581
vn -0.3481 0.5917 -0.7271
vn 0.4785 0.7423 -0.4691
vn -0.6324 0.7720 0.0648
vn 0.0398 0.7828 0.6210
vn -0.0587 0.7776 -0.6260
vn 0.6167 0.7847 -0.0637
vn -0.6124 0.7899 0.0326
usemtl Green
s off
f 1//1 2//1 4//1 3//1
f 2//2 1//2 5//2 6//2
f 3//3 4//3 8//3 7//3
f 33//4 35//4 36//4 34//4
f 34//5 38//5 37//5 33//5
f 35//6 39//6 40//6 36//6
f 1//7 3//7 35//7 33//7
f 4//8 2//8 34//8 36//8
f 2//9 6//9 38//9 34//9
f 5//10 1//10 33//10 37//10
f 7//11 8//11 40//11 39//11
f 3//12 7//12 39//12 35//12
f 8//13 4//13 36//13 40//13
f 70//14 71//14 73//14 72//14
f 71//15 70//15 74//15 75//15
f 72//16 73//16 77//16 76//16
f 102//17 104//17 105//17 103//17
f 103//18 107//18 106//18 102//18
f 104//19 108//19 109//19 105//19
f 70//20 72//20 104//20 102//20
f 73//21 71//21 103//21 105//21
f 71//22 75//22 107//22 103//22
f 74//23 70//23 102//23 106//23
f 76//24 77//24 109//24 108//24
f 72//25 76//25 108//25 104//25
f 77//26 73//26 105//26 109//26
f 174//27 178//27 179//27 175//27
f 140//28 139//28 141//28 142//28
f 169//29 171//29 170//29 173//29 172//29
f 139//30 143//30 178//30 174//30
f 175//31 177//31 176//31 174//31
f 209//32 212//32 213//32 210//32 211//32
f 144//33 140//33 175//33 179//33
f 140//34 142//34 177//34 175//34
f 141//35 139//35 174//35 176//35
f 143//36 144//36 179//36 178//36
f 171//37 169//37 209//37 211//37
f 170//38 171//38 211//38 210//38
f 140//39 144//39 143//39 139//39
f 173//40 170//40 210//40 213//40
f 172//41 173//41 213//41 212//41
f 214//42 216//42 215//42 218//42 217//42
f 219//43 222//43 223//43 220//43 221//43
f 216//44 214//44 219//44 221//44
f 215//45 216//45 221//45 220//45
f 169//46 172//46 212//46 209//46
f 218//47 215//47 220//47 223//47
f 217//48 218//48 223//48 222//48
f 214//49 217//49 222//49 219//49
usemtl Cyan
f 10//50 9//50 11//50 12//50
f 19//51 18//51 20//51 21//51
f 14//52 13//52 15//52
f 17//53 16//53 18//53 19//53
f 24//54 23//54 25//54 26//54
f 21//55 20//55 22//55
f 16//56 10//56 23//56 24//56
f 29//57 28//57 30//57 31//57
f 26//58 25//58 27//58
f 9//59 17//59 28//59 29//59
f 44//60 46//60 45//60 43//60
f 31//61 30//61 32//61
f 42//62 44//62 43//62 41//62
f 51//63 53//63 52//63 50//63
f 46//64 47//64 45//64
f 49//65 51//65 50//65 48//65
f 56//66 58//66 57//66 55//66
f 53//67 54//67 52//67
f 48//68 56//68 55//68 42//68
f 61//69 63//69 62//69 60//69
f 58//70 59//70 57//70
f 41//71 61//71 60//71 49//71
f 12//72 14//72 46//72 44//72
f 63//73 64//73 62//73
f 48//74 68//74 67//74 49//74
f 41//75 66//75 65//75 42//75
f 49//76 67//76 66//76 41//76
f 42//77 65//77 68//77 48//77
f 10//78 12//78 44//78 42//78
f 11//79 9//79 41//79 43//79
f 13//80 11//80 43//80 45//80
f 19//81 21//81 53//81 51//81
f 15//82 13//82 45//82 47//82
f 14//83 15//83 47//83 46//83
f 17//84 19//84 51//84 49//84
f 18//85 16//85 48//85 50//85
f 20//86 18//86 50//86 52//86
f 24//87 26//87 58//87 56//87
f 22//88 20//88 52//88 54//88
f 21//89 22//89 54//89 53//89
f 23//90 10//90 42//90 55//90
f 25//91 23//91 55//91 57//91
f 29//92 31//92 63//92 61//92
f 27//93 25//93 57//93 59//93
f 26//94 27//94 59//94 58//94
f 28//95 17//95 49//95 60//95
f 16//96 24//96 56//96 48//96
f 30//97 28//97 60//97 62//97
f 81//98 80//98 82//98 83//98
f 32//99 30//99 62//99 64//99
f 31//100 32//100 64//100 63//100
f 9//101 29//101 61//101 41//101
f 79//102 78//102 80//102 81//102
f 88//103 87//103 89//103 90//103
f 83//104 82//104 84//104
f 86//105 85//105 87//105 88//105
f 93//106 92//106 94//106 95//106
f 90//107 89//107 91//107
f 85//108 79//108 92//108 93//108
f 98//109 97//109 99//109 100//109
f 95//110 94//110 96//110
f 78//111 86//111 97//111 98//111
f 113//112 115//112 114//112 112//112
f 100//113 99//113 101//113
f 111//114 113//114 112//114 110//114
f 120//115 122//115 121//115 119//115
f 115//116 116//116 114//116
f 118//117 120//117 119//117 117//117
f 125//118 127//118 126//118 124//118
f 122//119 123//119 121//119
f 117//120 125//120 124//120 111//120
f 130//121 132//121 131//121 129//121
f 127//122 128//122 126//122
f 110//123 130//123 129//123 118//123
f 81//124 83//124 115//124 113//124
f 132//125 133//125 131//125
f 117//126 137//126 136//126 118//126
f 110//127 135//127 134//127 111//127
f 118//128 136//128 135//128 110//128
f 111//129 134//129 137//129 117//129
f 79//130 81//130 113//130 111//130
f 80//131 78//131 110//131 112//131
f 82//132 80//132 112//132 114//132
f 88//133 90//133 122//133 120//133
f 84//134 82//134 114//134 116//134
f 83//135 84//135 116//135 115//135
f 86//136 88//136 120//136 118//136
f 87//137 85//137 117//137 119//137
f 89//138 87//138 119//138 121//138
f 93//139 95//139 127//139 125//139
f 91//140 89//140 121//140 123//140
f 90//141 91//141 123//141 122//141
f 92//142 79//142 111//142 124//142
f 94//143 92//143 124//143 126//143
f 98//144 100//144 132//144 130//144
f 96//145 94//145 126//145 128//145
f 95//146 96//146 128//146 127//146
f 97//147 86//147 118//147 129//147
f 85//148 93//148 125//148 117//148
f 99//149 97//149 129//149 131//149
f 101//150 99//150 131//150 133//150
f 100//151 101//151 133//151 132//151
f 78//152 98//152 130//152 110//152
f 146//153 145//153 147//153 148//153
f 155//154 154//154 156//154 157//154
f 150//155 149//155 151//155
f 153//156 152//156 154//156 155//156
f 160//157 159//157 161//157 162//157
f 157//158 156//158 158//158
f 152//159 146//159 159//159 160//159
f 165//160 164//160 166//160 167//160
f 162//161 161//161 163//161
f 145//162 153//162 164//162 165//162
f 183//163 185//163 184//163 182//163
f 167//164 166//164 168//164
f 146//165 152//165 153//165 145//165
f 181//166 183//166 182//166 180//166
f 190//167 192//167 191//167 189//167
f 185//168 186//168 184//168
f 188//169 190//169 189//169 187//169
f 195//170 197//170 196//170 194//170
f 192//171 193//171 191//171
f 187//172 195//172 194//172 181//172
f 200//173 202//173 201//173 199//173
f 197//174 198//174 196//174
f 180//175 200//175 199//175 188//175
f 148//176 150//176 185//176 183//176
f 202//177 203//177 201//177
f 187//178 207//178 206//178 188//178
f 180//179 205//179 204//179 181//179
f 188//180 206//180 205//180 180//180
f 181//181 204//181 207//181 187//181
f 146//182 148//182 183//182 181//182
f 147//183 145//183 180//183 182//183
f 149//184 147//184 182//184 184//184
f 155//185 157//185 192//185 190//185
f 151//186 149//186 184//186 186//186
f 150//187 151//187 186//187 185//187
f 153//188 155//188 190//188 188//188
f 154//189 152//189 187//189 189//189
f 156//190 154//190 189//190 191//190
f 160//191 162//191 197//191 195//191
f 158//192 156//192 191//192 193//192
f 157//193 158//193 193//193 192//193
f 159//194 146//194 181//194 194//194
f 161//195 159//195 194//195 196//195
f 165//196 167//196 202//196 200//196
f 163//197 161//197 196//197 198//197
f 162//198 163//198 198//198 197//198
f 164//199 153//199 188//199 199//199
f 152//200 160//200 195//200 187//200
f 166//201 164//201 199//201 201//201
f 168//202 166//202 201//202 203//202
f 167//203 168//203 203//203 202//203
f 145//204 165//204 200//204 180//204
f 148//205 147//205 149//205 150//205
f 12//206 11//206 13//206 14//206
f 79//207 85//207 86//207 78//207
f 10//208 16//208 17//208 9//208
usemtl Yellow
f 65//209 69//209 68//209
f 67//210 69//210 66//210
f 66//211 69//211 65//211
f 68//212 69//212 67//212
f 134//213 138//213 137//213
f 136//214 138//214 135//214
f 135//215 138//215 134//215
f 137//216 138//216 136//216
f 204//217 208//217 207//217
f 206//218 208//218 205//218
f 205//219 208//219 204//219
f 207//220 208//220 206//220
