# Blender v2.79 (sub 0) OBJ File: 'Grass_2.blend'
# www.blender.org
mtllib Grass_2.mtl
o Grass_2_Plane.002
v -0.134580 0.666307 -0.237296
v -0.114435 -0.015862 -0.249623
v -0.122479 0.666307 -0.208855
v -0.099628 -0.015862 -0.214821
v -0.107032 0.996921 -0.232222
v 0.065000 0.479759 -0.061565
v 0.088063 -0.015862 -0.056479
v 0.053998 0.479759 -0.032681
v 0.074600 -0.015862 -0.021135
v 0.081332 0.689435 -0.038807
v -0.116744 0.666307 -0.136483
v -0.112951 -0.015862 -0.113173
v -0.147649 0.666307 -0.136038
v -0.150768 -0.015862 -0.112628
v -0.131860 0.996921 -0.112900
v 0.082511 0.854786 0.155705
v 0.073018 -0.015862 0.177330
v 0.056333 0.854786 0.139273
v 0.040985 -0.015862 0.157222
v 0.057002 1.185400 0.167276
v 0.113398 0.479759 -0.136659
v 0.090006 -0.015862 -0.133409
v 0.113672 0.479759 -0.167566
v 0.090341 -0.015862 -0.171229
v 0.090174 0.689435 -0.152319
v -0.017949 0.666307 -0.065588
v -0.033244 -0.015862 -0.083582
v 0.008277 0.666307 -0.081944
v -0.001153 -0.015862 -0.103596
v -0.017199 0.996921 -0.093590
v -0.150625 0.479759 -0.001048
v -0.173848 -0.015862 -0.005341
v -0.140619 0.479759 -0.030292
v -0.161604 -0.015862 -0.041125
v -0.167726 0.689435 -0.023233
v -0.041698 0.350834 0.011509
v -0.051155 -0.015862 0.033150
v -0.067904 0.348753 -0.004879
v -0.083222 -0.015862 0.013096
v -0.067188 0.679367 0.023123
v 0.125207 0.803443 0.071288
v 0.112934 -0.015862 0.091466
v 0.101436 0.803443 0.051534
v 0.083846 -0.015862 0.067294
v 0.098390 1.134057 0.079380
v 0.026136 0.164286 -0.168702
v 0.013863 -0.015862 -0.148525
v 0.002364 0.164286 -0.188456
v -0.015225 -0.015862 -0.172697
v -0.000681 0.373962 -0.160611
v -0.123121 0.350834 0.100874
v -0.141935 -0.015862 0.086598
v -0.101035 0.350834 0.079251
v -0.114910 -0.015862 0.060139
v -0.128422 0.681447 0.073369
v -0.030577 0.350834 0.134596
v -0.054193 -0.015862 0.134429
v -0.025838 0.350834 0.104053
v -0.048394 -0.015862 0.097056
v -0.051294 0.681448 0.115742
v -0.117386 0.666102 -0.244611
v -0.097251 -0.015217 -0.256934
v -0.105285 0.666102 -0.216170
v -0.082444 -0.015217 -0.222132
v -0.089880 0.995591 -0.239519
v 0.082179 0.479492 -0.068562
v 0.105206 -0.014640 -0.063461
v 0.071164 0.479000 -0.039672
v 0.091744 -0.014640 -0.028118
v 0.098311 0.686573 -0.045723
v -0.132871 0.665404 -0.128859
v -0.129036 -0.014237 -0.105568
v -0.163790 0.665815 -0.128406
v -0.166853 -0.014237 -0.105023
v -0.147752 0.993607 -0.105387
v 0.065468 0.854434 0.163183
v 0.055987 -0.015079 0.184802
v 0.039288 0.854582 0.146752
v 0.023954 -0.015079 0.164695
v 0.040018 1.183788 0.174728
v 0.096180 0.479540 -0.129475
v 0.072810 -0.014895 -0.126235
v 0.096458 0.479301 -0.160383
v 0.073145 -0.014895 -0.164054
v 0.073081 0.687163 -0.145187
v -0.031869 0.665181 -0.061284
v -0.046986 -0.012665 -0.079334
v -0.005607 0.664552 -0.077652
v -0.014894 -0.012665 -0.099348
v -0.030334 0.990615 -0.089528
v -0.167812 0.479502 0.005973
v -0.191003 -0.014677 0.001667
v -0.157795 0.479038 -0.023275
v -0.178759 -0.014677 -0.034117
v -0.184726 0.686658 -0.016288
v -0.058741 0.350481 0.018988
v -0.068186 -0.015078 0.040623
v -0.084948 0.348549 0.002600
v -0.100252 -0.015078 0.020569
v -0.084171 0.677753 0.030575
v 0.108112 0.803140 0.078730
v 0.095849 -0.015138 0.098902
v 0.084339 0.803252 0.058976
v 0.066761 -0.015138 0.074731
v 0.081346 1.132566 0.086799
v 0.009045 0.163786 -0.161263
v -0.003210 -0.014866 -0.141093
v -0.014732 0.164066 -0.181014
v -0.032299 -0.014866 -0.165265
v -0.017646 0.371622 -0.153227
v -0.139755 0.350321 0.107156
v -0.158509 -0.014181 0.092858
v -0.117655 0.349897 0.085528
v -0.131484 -0.014181 0.066399
v -0.144784 0.678022 0.079548
v -0.047790 0.350636 0.141717
v -0.071393 -0.015105 0.141545
v -0.043050 0.350502 0.111174
v -0.065594 -0.015105 0.104171
v -0.068449 0.679888 0.122839
vn -0.9196 -0.0342 0.3913
vn -0.9179 0.0705 0.3905
vn -0.9335 -0.0471 -0.3556
vn -0.9288 0.1107 -0.3538
vn -0.0144 -0.0342 -0.9993
vn -0.0144 0.0705 -0.9974
vn 0.5315 -0.0268 -0.8467
vn 0.5303 0.0705 -0.8449
vn 0.9989 -0.0471 0.0088
vn 0.9938 0.1107 0.0088
vn 0.5289 -0.0342 0.8480
vn 0.5279 0.0705 0.8464
vn 0.9451 -0.0471 0.3234
vn 0.9403 0.1107 0.3217
vn 0.5308 -0.0638 -0.8451
vn 0.5249 0.0707 -0.8482
vn 0.6389 -0.0285 -0.7688
vn 0.6375 0.0705 -0.7672
vn 0.6338 -0.1286 -0.7627
vn 0.6352 0.1107 -0.7644
vn 0.6982 -0.0636 0.7131
vn 0.6978 0.0705 0.7128
vn 0.9862 -0.0636 0.1530
vn 0.9857 0.0705 0.1529
vn 0.9196 0.0343 -0.3913
vn 0.9179 -0.0706 -0.3905
vn 0.9333 0.0472 0.3560
vn 0.9292 -0.1113 0.3524
vn 0.0147 0.0343 0.9993
vn 0.0136 -0.0707 0.9974
vn -0.5314 0.0268 0.8467
vn -0.5306 -0.0706 0.8447
vn -0.9988 0.0472 -0.0091
vn -0.9938 -0.1112 -0.0081
vn -0.5285 0.0344 -0.8482
vn -0.5288 -0.0709 -0.8458
vn -0.9449 0.0472 -0.3238
vn -0.9407 -0.1112 -0.3204
vn -0.5306 0.0639 0.8452
vn -0.5251 -0.0708 0.8481
vn -0.6388 0.0285 0.7688
vn -0.6377 -0.0706 0.7670
vn -0.6333 0.1295 0.7630
vn -0.6358 -0.1112 0.7638
vn -0.6978 0.0639 -0.7134
vn -0.6984 -0.0707 -0.7122
vn -0.9861 0.0637 -0.1532
vn -0.9857 -0.0706 -0.1527
vn -0.3916 0.0051 -0.9201
vn 0.0318 -0.9994 -0.0135
vn 0.3915 0.0051 0.9202
vn -0.3893 0.0466 -0.9199
vn 0.3928 0.0466 0.9184
vn -0.3764 -0.0271 -0.9260
vn 0.0840 -0.9959 0.0320
vn 0.3765 0.0373 0.9257
vn -0.3639 0.1293 -0.9224
vn 0.3751 -0.0219 0.9267
vn 0.4278 0.0333 0.9033
vn 0.0031 -0.9766 0.2152
vn -0.4281 -0.0291 -0.9033
vn 0.4318 -0.0447 0.9009
vn -0.4341 0.0839 -0.8970
vn 0.4019 0.0184 0.9155
vn -0.0270 -0.9987 0.0431
vn -0.4019 -0.0118 -0.9156
vn 0.4018 -0.0010 0.9157
vn -0.4041 0.0782 -0.9114
vn 0.3848 -0.0121 0.9229
vn -0.0564 -0.9984 -0.0005
vn -0.3846 0.0250 -0.9227
vn 0.3758 0.1109 0.9200
vn -0.3866 0.0238 -0.9220
vn 0.2931 -0.0319 0.9556
vn -0.3478 -0.7537 -0.5576
vn -0.2936 0.0345 -0.9553
vn 0.2740 0.0812 0.9583
vn -0.2797 -0.0557 -0.9585
vn 0.3774 -0.0257 0.9257
vn -0.0800 -0.9964 -0.0274
vn -0.3775 0.0363 -0.9253
vn 0.3653 0.1281 0.9220
vn -0.3766 -0.0176 -0.9262
vn 0.4019 0.0437 0.9146
vn -0.0270 -0.9987 0.0432
vn -0.4021 -0.0283 -0.9152
vn 0.4019 -0.0012 0.9157
vn 0.3992 0.0166 0.9167
vn -0.0278 -0.9991 0.0334
vn -0.3992 -0.0091 -0.9168
vn 0.3987 0.0099 0.9170
vn -0.4011 0.0734 -0.9131
vn 0.3989 0.0755 0.9139
vn -0.0382 -0.9982 0.0460
vn -0.3996 -0.0412 -0.9158
vn 0.3980 0.0156 0.9173
vn -0.4037 0.1153 -0.9076
vn 0.3511 -0.0546 0.9347
vn -0.1607 -0.9732 -0.1642
vn -0.3514 0.0622 -0.9342
vn 0.3433 0.0837 0.9355
vn -0.3477 -0.0456 -0.9365
vn 0.3818 -0.0250 0.9239
vn -0.0470 -0.9989 -0.0073
vn -0.3815 0.0412 -0.9234
vn 0.3778 0.0765 0.9227
vn -0.3824 0.0032 -0.9240
usemtl Green
s off
f 1//1 2//1 4//1 3//1
f 1//2 3//2 5//2
f 6//3 7//3 9//3 8//3
f 6//4 8//4 10//4
f 11//5 12//5 14//5 13//5
f 11//6 13//6 15//6
f 16//7 17//7 19//7 18//7
f 16//8 18//8 20//8
f 21//9 22//9 24//9 23//9
f 21//10 23//10 25//10
f 26//11 27//11 29//11 28//11
f 26//12 28//12 30//12
f 31//13 32//13 34//13 33//13
f 31//14 33//14 35//14
f 36//15 37//15 39//15 38//15
f 36//16 38//16 40//16
f 41//17 42//17 44//17 43//17
f 41//18 43//18 45//18
f 46//19 47//19 49//19 48//19
f 46//20 48//20 50//20
f 51//21 52//21 54//21 53//21
f 51//22 53//22 55//22
f 56//23 57//23 59//23 58//23
f 56//24 58//24 60//24
f 61//25 63//25 64//25 62//25
f 61//26 65//26 63//26
f 66//27 68//27 69//27 67//27
f 66//28 70//28 68//28
f 71//29 73//29 74//29 72//29
f 71//30 75//30 73//30
f 76//31 78//31 79//31 77//31
f 76//32 80//32 78//32
f 81//33 83//33 84//33 82//33
f 81//34 85//34 83//34
f 86//35 88//35 89//35 87//35
f 86//36 90//36 88//36
f 91//37 93//37 94//37 92//37
f 91//38 95//38 93//38
f 96//39 98//39 99//39 97//39
f 96//40 100//40 98//40
f 101//41 103//41 104//41 102//41
f 101//42 105//42 103//42
f 106//43 108//43 109//43 107//43
f 106//44 110//44 108//44
f 111//45 113//45 114//45 112//45
f 111//46 115//46 113//46
f 116//47 118//47 119//47 117//47
f 116//48 120//48 118//48
f 2//49 1//49 61//49 62//49
f 4//50 2//50 62//50 64//50
f 3//51 4//51 64//51 63//51
f 1//52 5//52 65//52 61//52
f 5//53 3//53 63//53 65//53
f 7//54 6//54 66//54 67//54
f 9//55 7//55 67//55 69//55
f 8//56 9//56 69//56 68//56
f 6//57 10//57 70//57 66//57
f 10//58 8//58 68//58 70//58
f 12//59 11//59 71//59 72//59
f 14//60 12//60 72//60 74//60
f 13//61 14//61 74//61 73//61
f 11//62 15//62 75//62 71//62
f 15//63 13//63 73//63 75//63
f 17//64 16//64 76//64 77//64
f 19//65 17//65 77//65 79//65
f 18//66 19//66 79//66 78//66
f 16//67 20//67 80//67 76//67
f 20//68 18//68 78//68 80//68
f 22//69 21//69 81//69 82//69
f 24//70 22//70 82//70 84//70
f 23//71 24//71 84//71 83//71
f 21//72 25//72 85//72 81//72
f 25//73 23//73 83//73 85//73
f 27//74 26//74 86//74 87//74
f 29//75 27//75 87//75 89//75
f 28//76 29//76 89//76 88//76
f 26//77 30//77 90//77 86//77
f 30//78 28//78 88//78 90//78
f 32//79 31//79 91//79 92//79
f 34//80 32//80 92//80 94//80
f 33//81 34//81 94//81 93//81
f 31//82 35//82 95//82 91//82
f 35//83 33//83 93//83 95//83
f 37//84 36//84 96//84 97//84
f 39//85 37//85 97//85 99//85
f 38//86 39//86 99//86 98//86
f 36//87 40//87 100//87 96//87
f 40//68 38//68 98//68 100//68
f 42//88 41//88 101//88 102//88
f 44//89 42//89 102//89 104//89
f 43//90 44//90 104//90 103//90
f 41//91 45//91 105//91 101//91
f 45//92 43//92 103//92 105//92
f 47//93 46//93 106//93 107//93
f 49//94 47//94 107//94 109//94
f 48//95 49//95 109//95 108//95
f 46//96 50//96 110//96 106//96
f 50//97 48//97 108//97 110//97
f 52//98 51//98 111//98 112//98
f 54//99 52//99 112//99 114//99
f 53//100 54//100 114//100 113//100
f 51//101 55//101 115//101 111//101
f 55//102 53//102 113//102 115//102
f 57//103 56//103 116//103 117//103
f 59//104 57//104 117//104 119//104
f 58//105 59//105 119//105 118//105
f 56//106 60//106 120//106 116//106
f 60//107 58//107 118//107 120//107
