# Blender v2.79 (sub 0) OBJ File: 'Rock_4.blend'
# www.blender.org
mtllib Rock_4.mtl
o Rock_4_Cube.022
v -0.302785 -0.205689 -0.572949
v 0.185011 -0.148458 -0.419920
v -0.308197 0.162863 -0.466687
v 0.150255 0.127170 -0.255465
v 0.083519 -0.102699 -0.554881
v 0.062498 0.154930 -0.417901
v 0.079992 0.123076 -0.509828
v -0.237994 0.106456 -0.541100
v -0.263927 -0.156757 -0.625258
v -0.296295 -0.270511 -0.475213
v 0.010394 -0.209784 -0.420365
v 0.224044 -0.217132 -0.218347
v 0.172939 0.438101 -0.088587
v -0.397184 0.453644 -0.180484
v -0.011557 0.510511 -0.172134
v -0.428604 -0.231746 -0.287528
v 0.224044 -0.258511 -0.218347
v 0.005197 -0.250778 -0.285195
v -0.428604 -0.273126 -0.287528
v 0.163687 0.246195 -0.190849
v -0.352813 0.210077 -0.338092
v 0.021895 0.305853 -0.312693
v -0.302785 -0.205689 0.572949
v 0.185010 -0.148458 0.419920
v -0.322698 0.278716 0.461472
v 0.152638 0.204243 0.304707
v 0.083519 -0.102699 0.554881
v 0.050830 0.276998 0.443267
v 0.061650 0.276998 0.541523
v -0.257126 0.252941 0.554656
v -0.263927 -0.156757 0.625258
v -0.296295 -0.270511 0.475213
v 0.010394 -0.209784 0.420365
v 0.212061 -0.210279 0.235636
v 0.174735 0.405565 0.076991
v -0.393270 0.398852 0.182119
v -0.007040 0.452126 0.182119
v -0.428604 -0.231746 0.287528
v 0.212061 -0.251659 0.235636
v 0.005197 -0.250778 0.285195
v -0.428604 -0.273126 0.287528
v 0.163687 0.246195 0.190849
v -0.357984 0.280075 0.321795
v 0.021895 0.305853 0.312693
v 0.174735 0.405565 0.000000
v -0.393270 0.398852 -0.000000
v -0.007040 0.452126 -0.000000
v -0.428604 -0.231746 -0.000000
v 0.224044 -0.258511 0.000000
v 0.005197 -0.250778 0.000000
v -0.428604 -0.273126 -0.000000
v 0.174894 0.216533 0.129087
v 0.186878 0.252217 0.000000
v 0.187425 0.252368 -0.125369
v -0.439487 0.234958 -0.214638
v -0.432381 0.276906 0.202503
v -0.433550 0.256032 -0.000000
v 0.304083 -0.207832 -0.146806
v 0.304083 -0.249211 -0.146806
v 0.296336 -0.217132 0.000000
v 0.296336 -0.258511 0.000000
v 0.288712 -0.207832 0.186079
v 0.288712 -0.249211 0.186079
v 0.270918 0.174267 0.081171
v 0.270489 0.214940 -0.007305
v 0.256200 0.210112 -0.108207
vn 0.2890 -0.8193 -0.4951
vn 0.9516 0.1716 -0.2550
vn -0.0245 0.7582 -0.6515
vn 0.0412 0.8914 -0.4513
vn 0.8296 0.3380 -0.4444
vn -0.7707 0.2412 -0.5897
vn 0.2474 -0.8114 -0.5296
vn 0.1204 0.2485 -0.9611
vn 0.2373 -0.7911 -0.5638
vn -0.7333 0.2179 -0.6440
vn 0.9806 -0.0235 0.1948
vn 0.1924 -0.8880 -0.4177
vn -0.9855 -0.0238 -0.1679
vn -0.8173 0.0000 -0.5762
vn 0.9818 0.0000 -0.1901
vn 0.7707 0.3931 -0.5015
vn 0.5991 0.4444 -0.6660
vn -0.0720 0.5437 -0.8362
vn 0.1175 -0.9895 -0.0836
vn -1.0000 0.0000 0.0000
vn 0.2272 0.9212 0.3158
vn -0.1377 0.9421 0.3057
vn 0.5190 0.2490 0.8177
vn -0.0353 -0.9994 0.0000
vn -0.9749 0.2186 0.0430
vn 0.5323 0.1735 -0.8286
vn 0.0514 -0.9987 0.0000
vn 0.2890 -0.8193 0.4951
vn 0.9856 0.1206 0.1188
vn -0.0274 0.9927 0.1175
vn -0.0254 0.9893 0.1433
vn 0.8261 0.2324 0.5133
vn -0.8022 0.3394 0.4913
vn 0.2474 -0.8114 0.5296
vn 0.1113 0.1072 0.9880
vn 0.2373 -0.7911 0.5638
vn -0.8158 0.1039 0.5690
vn 0.9926 0.0533 -0.1093
vn 0.1952 -0.8888 0.4146
vn -0.9903 -0.0443 0.1320
vn -0.8173 0.0000 0.5762
vn 0.9894 0.0000 0.1452
vn 0.6105 0.7715 0.1788
vn 0.5981 0.5216 0.6085
vn -0.0643 0.7048 0.7065
vn 0.1175 -0.9895 0.0836
vn 0.2481 0.9687 -0.0000
vn -0.1366 0.9906 0.0000
vn 0.0721 -0.9971 -0.0239
vn -0.0187 -0.9997 0.0127
vn -0.9581 0.2863 -0.0126
vn 0.4636 0.8281 0.3152
vn 0.9865 0.0443 0.1577
vn 0.9263 0.1414 -0.3492
vn 0.9970 0.0776 0.0060
vn 0.9968 0.0458 0.0659
vn -1.0000 -0.0085 0.0027
vn -0.9998 -0.0175 0.0126
vn -0.8230 0.0759 0.5630
vn -0.8087 0.0719 -0.5839
vn 0.9986 0.0000 0.0527
vn 0.9959 0.0873 -0.0247
vn 0.9992 0.0000 0.0409
vn 0.9978 0.0580 0.0328
vn 0.6664 0.0000 -0.7456
vn 0.4646 0.8843 -0.0465
vn 0.5429 0.0000 0.8398
vn 0.0296 -0.9988 0.0396
usemtl Rock
s off
f 11//1 5//1 2//1
f 12//2 2//2 4//2 20//2 54//2
f 22//3 6//3 3//3 21//3
f 3//4 6//4 7//4 8//4
f 4//5 2//5 5//5 6//5
f 14//6 21//6 55//6
f 10//7 1//7 5//7 11//7
f 7//8 5//8 9//8 8//8
f 5//9 1//9 9//9
f 1//10 3//10 8//10 9//10
f 6//11 5//11 7//11
f 11//12 2//12 17//12 18//12
f 10//13 21//13 3//13 1//13
f 16//14 10//14 19//14
f 2//15 12//15 17//15
f 20//16 4//16 6//16 22//16
f 13//17 20//17 22//17 15//17
f 15//18 22//18 21//18 14//18
f 19//19 10//19 11//19 18//19
f 16//20 19//20 51//20 48//20
f 13//21 15//21 47//21 45//21
f 15//22 14//22 46//22 47//22
f 52//23 34//23 62//23 64//23
f 18//24 17//24 49//24 50//24
f 14//25 55//25 57//25 46//25
f 12//26 54//26 66//26 58//26
f 19//27 18//27 50//27 51//27
f 33//28 24//28 27//28
f 34//29 52//29 42//29 26//29 24//29
f 44//30 43//30 25//30 28//30
f 25//31 30//31 29//31 28//31
f 26//32 28//32 27//32 24//32
f 36//33 56//33 43//33
f 32//34 33//34 27//34 23//34
f 29//35 30//35 31//35 27//35
f 27//36 31//36 23//36
f 23//37 31//37 30//37 25//37
f 28//38 29//38 27//38
f 33//39 40//39 39//39 24//39
f 32//40 23//40 25//40 43//40
f 38//41 41//41 32//41
f 24//42 39//42 34//42
f 42//43 44//43 28//43 26//43
f 35//44 37//44 44//44 42//44
f 37//45 36//45 43//45 44//45
f 41//46 40//46 33//46 32//46
f 38//20 48//20 51//20 41//20
f 35//47 45//47 47//47 37//47
f 37//48 47//48 46//48 36//48
f 49//49 17//49 59//49 61//49
f 40//50 50//50 49//50 39//50
f 36//51 46//51 57//51 56//51
f 53//52 52//52 64//52 65//52
f 41//27 51//27 50//27 40//27
f 42//53 52//53 35//53
f 54//54 20//54 13//54
f 53//55 54//55 13//55 45//55
f 52//56 53//56 45//56 35//56
f 56//57 57//57 48//57 38//57
f 57//58 55//58 16//58 48//58
f 43//59 56//59 38//59 32//59
f 55//60 21//60 10//60 16//60
f 59//61 58//61 60//61 61//61
f 58//62 66//62 65//62 60//62
f 63//63 61//63 60//63 62//63
f 62//64 60//64 65//64 64//64
f 17//65 12//65 58//65 59//65
f 54//66 53//66 65//66 66//66
f 34//67 39//67 63//67 62//67
f 39//68 49//68 61//68 63//68
