# Blender v2.79 (sub 0) OBJ File: 'Rock_Snow_3.blend'
# www.blender.org
mtllib Rock_Snow_3.mtl
o Rock_Snow_3_Cube.079
v -0.460759 -0.002045 -0.247213
v -0.302785 0.472205 -0.205689
v 0.247213 -0.002045 -0.247213
v 0.185011 0.319176 -0.148458
v -0.393271 -0.002045 0.398852
v -0.322698 0.461472 0.278716
v 0.214758 -0.002045 0.444716
v 0.152638 0.304707 0.204243
v 0.000000 -0.002045 -0.247213
v 0.083519 0.454137 -0.102699
v -0.000000 -0.002045 0.484768
v 0.050830 0.443267 0.276998
v 0.061650 0.541523 0.276998
v -0.257126 0.554656 0.252941
v -0.263927 0.524514 -0.156757
v -0.296295 0.374469 -0.270511
v -0.000000 -0.002045 0.513990
v 0.214758 -0.002045 0.473938
v 0.010394 0.319621 -0.209784
v 0.000000 -0.002045 -0.288593
v -0.460759 -0.002045 -0.288593
v 0.247213 -0.002045 -0.288593
v 0.224044 0.117603 -0.217132
v 0.174735 0.076991 0.405565
v -0.393271 0.182119 0.398852
v -0.007040 0.182119 0.452126
v -0.428604 0.186784 -0.231746
v 0.224044 0.117603 -0.258511
v 0.005197 0.184452 -0.250778
v -0.428604 0.186784 -0.273126
v 0.277600 -0.002045 -0.247213
v 0.245144 -0.002045 0.444716
v -0.393271 -0.002045 0.428075
v 0.163687 0.190849 0.246195
v -0.357984 0.321795 0.280075
v 0.021895 0.312693 0.305853
v 0.073649 0.482021 -0.093227
v 0.181284 0.346870 -0.137004
v 0.150712 0.333205 0.196084
v 0.054565 0.464060 0.264793
v 0.052996 0.564548 0.265354
v -0.248053 0.576951 0.242636
v -0.254476 0.548485 -0.144279
v 0.151921 0.216773 0.252292
v 0.162355 0.109247 0.402799
v -0.340740 0.340438 0.284288
v -0.374064 0.208529 0.396460
v 0.018014 0.331841 0.308632
v -0.009312 0.208529 0.446771
vn 0.2890 0.4951 -0.8193
vn 0.8450 0.5304 0.0689
vn 0.9801 0.1729 0.0979
vn -0.0274 0.1175 0.9927
vn 0.0000 -1.0000 0.0000
vn -0.0254 0.1433 0.9893
vn -0.8897 0.4566 0.0023
vn 0.2474 0.5296 -0.8114
vn 0.2373 0.5638 -0.7911
vn -0.8103 0.5855 -0.0246
vn 0.9906 -0.1091 0.0822
vn 0.1924 0.4177 -0.8880
vn -0.1709 0.2335 0.9572
vn -0.9879 0.1384 -0.0694
vn -0.8173 0.5762 0.0000
vn -0.9858 0.1679 0.0000
vn 0.0150 0.2173 -0.9760
vn 0.0251 0.1381 -0.9901
vn 0.9818 0.1901 0.0000
vn 0.4964 0.6979 0.5162
vn -0.9934 0.0823 0.0803
vn 0.8753 0.3614 -0.3214
vn 0.6105 0.1788 0.7715
vn -1.0000 0.0000 0.0000
vn 0.3049 0.4656 0.8308
vn 0.1175 0.0836 -0.9895
vn 0.0706 0.1573 -0.9850
vn -0.7063 0.5536 0.4412
vn -0.3366 0.0681 -0.9392
vn -0.9889 -0.1288 -0.0744
vn 0.8080 0.5831 0.0847
vn 0.1396 0.9798 -0.1432
vn 0.5981 0.6085 0.5216
vn -0.0643 0.7065 0.7048
vn 0.0788 0.3681 -0.9264
vn 0.2171 0.3820 -0.8983
vn -0.1343 0.1858 0.9734
vn 0.9398 0.3409 -0.0243
vn 0.9910 0.0941 0.0948
vn -0.0499 0.4357 0.8987
vn -0.9281 0.3722 -0.0120
vn 0.3572 0.2150 0.9089
vn 0.7521 0.2279 0.6184
vn 0.9092 0.3660 0.1984
usemtl Rock
s off
f 19//1 10//1 4//1
f 23//2 24//2 32//2 31//2
f 23//3 4//3 8//3 34//3 24//3
f 36//4 12//4 6//4 35//4
f 9//5 11//5 5//5 1//5
f 6//6 12//6 13//6 14//6
f 3//5 7//5 11//5 9//5
f 25//7 35//7 16//7 27//7
f 16//8 2//8 10//8 19//8
f 10//9 2//9 15//9
f 2//10 6//10 14//10 15//10
f 12//11 10//11 13//11
f 19//12 4//12 28//12 29//12
f 26//13 25//13 33//13 17//13
f 3//5 22//5 31//5
f 3//5 9//5 20//5 22//5
f 16//14 35//14 6//14 2//14
f 27//15 16//15 30//15
f 9//5 1//5 21//5 20//5
f 1//16 27//16 30//16 21//16
f 20//17 29//17 28//17 22//17
f 21//18 30//18 29//18 20//18
f 4//19 23//19 28//19
f 18//20 32//20 24//20
f 5//21 25//21 27//21 1//21
f 7//5 32//5 18//5
f 22//22 28//22 23//22 31//22
f 5//5 11//5 17//5 33//5
f 7//5 3//5 31//5 32//5
f 34//23 8//23 12//23 36//23
f 25//24 5//24 33//24
f 11//5 7//5 18//5 17//5
f 24//25 26//25 17//25 18//25
f 30//26 16//26 19//26 29//26
usemtl Snow
f 36//27 35//27 46//27 48//27
f 35//28 25//28 47//28 46//28
f 34//29 36//29 48//29 44//29
f 10//30 12//30 40//30 37//30
f 39//31 38//31 37//31 40//31
f 41//32 37//32 43//32 42//32
f 45//33 44//33 48//33 49//33
f 49//34 48//34 46//34 47//34
f 4//35 10//35 37//35 38//35
f 10//36 15//36 43//36 37//36
f 25//37 26//37 49//37 47//37
f 13//38 10//38 37//38 41//38
f 8//39 4//39 38//39 39//39
f 14//40 13//40 41//40 42//40
f 15//41 14//41 42//41 43//41
f 26//42 24//42 45//42 49//42
f 12//43 8//43 39//43 40//43
f 24//44 34//44 44//44 45//44
