# Blender v2.79 (sub 0) OBJ File: 'Willow_Dead_5.blend'
# www.blender.org
mtllib Willow_Dead_5.mtl
o Willow_Dead_5_Cube.113
v 0.085355 0.627096 -0.000971
v 0.001024 0.001235 0.023562
v 0.044785 1.180974 0.003085
v -0.131577 0.026324 -0.019959
v 0.044548 0.026284 -0.109043
v 0.133639 0.026516 0.067076
v -0.042486 0.026556 0.156160
v -0.049990 -0.007932 0.179015
v 0.156479 -0.007931 0.074580
v 0.052042 -0.007934 -0.131888
v -0.154427 -0.007935 -0.027453
v -0.051702 1.056736 0.541988
v -0.011866 0.811151 0.219080
v -0.050545 0.889167 0.168524
v 0.063812 0.861403 0.180994
v 0.076962 1.025872 0.582032
v 0.030309 1.062289 0.500956
v -0.010229 1.530685 0.865172
v 0.069543 1.293013 0.771216
v -0.015727 1.299240 0.811579
v 0.020699 1.319270 0.680911
v -0.064570 1.325496 0.721274
v -0.081102 1.107409 1.072475
v -0.103171 0.277076 -0.065839
v 0.037610 0.301661 -0.126307
v 0.107699 0.254389 -0.008067
v -0.033083 0.229803 0.052400
v -0.072680 0.664993 -0.030912
v -0.021194 0.574562 0.038366
v 0.033869 0.717527 -0.070249
v 0.264725 1.762097 -0.234694
v 0.108370 1.131191 -0.078369
v 0.163373 1.157098 0.012986
v 0.099788 1.206881 0.094439
v 0.318842 2.027385 -0.190128
v 0.324096 1.767927 -0.165946
v 0.204796 1.793530 -0.166270
v 0.264167 1.799359 -0.097522
v 0.193622 1.501998 -0.063362
v 0.137018 1.477426 -0.132363
v 0.256057 1.455299 -0.124092
v 0.132773 1.708899 -0.565371
v 0.191366 1.780186 -0.688708
v 0.180463 1.631777 -0.581437
v 0.206313 1.756240 -0.550862
v 0.254003 1.679118 -0.566926
v 0.257893 1.505325 -0.314067
v 0.210398 1.585728 -0.320741
v 0.184464 1.452831 -0.315943
v 0.136970 1.533234 -0.322617
v -0.009455 0.912700 0.442127
v 0.023598 1.002088 0.338517
v 0.065515 0.943712 0.399645
v -0.051372 0.971076 0.380998
v -0.198290 1.166752 1.265616
v -0.187115 1.128165 1.031943
v -0.127906 1.179582 1.091790
v -0.140310 1.055993 1.012627
v -0.040999 0.982697 0.667608
v -0.033976 1.106445 0.794258
v -0.100823 1.059238 0.709351
v 0.025848 1.029904 0.752516
v -0.037590 -0.001056 0.141226
v 0.079355 -0.007931 0.178414
v 0.118689 -0.001056 0.062178
v 0.155876 -0.007932 -0.054763
v 0.039640 -0.001058 -0.094101
v -0.077301 -0.007935 -0.131287
v -0.116639 -0.001057 -0.015052
v -0.131039 0.026448 0.090408
v 0.055089 0.230429 0.051892
v 0.107591 0.284020 -0.082470
v -0.050044 0.301338 -0.125468
v -0.114126 0.110727 -0.028036
v 0.039419 0.116821 -0.103012
v 0.116809 0.105291 0.044891
v -0.036736 0.099196 0.119867
v 0.067826 0.026595 0.155610
v 0.133149 0.026388 -0.043216
v -0.065812 0.026248 -0.108569
v -0.153827 -0.007934 0.101890
v -0.047761 -0.003895 0.172227
v 0.149694 -0.003903 0.072352
v 0.049816 -0.003963 -0.125101
v -0.147640 -0.003955 -0.025227
v -0.011242 0.862248 0.330689
v 0.062014 0.904910 0.288918
v 0.040843 1.040961 0.226793
v -0.051076 0.931433 0.277564
v 0.098910 0.967072 0.117012
v -0.049168 0.837275 0.203505
v 0.037374 0.913759 0.436273
v 0.064434 0.980506 0.358356
v -0.072407 1.046937 0.614049
v -0.022774 1.068548 0.501512
v 0.029460 1.144309 0.576458
v 0.077756 1.115513 0.664457
v -0.054996 1.147590 0.616988
v -0.013931 1.140326 0.747785
v 0.039038 1.289395 0.814376
v 0.066520 1.304752 0.715570
v -0.061384 1.314092 0.776115
v -0.034228 1.328779 0.678918
v -0.020710 1.467816 0.884441
v -0.057343 1.487508 0.816711
v 0.043242 1.463146 0.854168
v 0.006610 1.482839 0.786439
v -0.103581 0.247141 0.008232
v 0.045038 0.578562 0.036041
v 0.086163 0.685104 -0.045469
v -0.032190 0.714209 -0.067875
v -0.091695 0.477716 -0.083442
v 0.036601 0.521623 -0.131272
v 0.099487 0.439695 -0.040465
v -0.028808 0.395788 0.007365
v -0.073661 0.606304 0.013535
v -0.018420 0.994508 0.104823
v 0.034685 0.817095 0.212495
v 0.071422 0.779896 0.082241
v -0.055754 0.811335 0.062744
v -0.014220 0.726295 0.118053
v 0.050697 0.912880 -0.025270
v 0.163145 1.395383 -0.016345
v 0.226117 1.347751 -0.083308
v 0.107216 1.368602 -0.091155
v 0.166441 1.326497 -0.188831
v 0.056797 1.205496 0.070604
v 0.062421 1.150483 -0.061959
v 0.152173 1.130822 -0.051577
v 0.144926 1.189344 0.075073
v 0.306090 1.972210 -0.130187
v 0.350033 1.956108 -0.186404
v 0.260453 1.975334 -0.181842
v 0.304396 1.959232 -0.238059
v 0.219452 1.777434 -0.218255
v 0.258406 1.448957 -0.202879
v 0.238558 1.485821 -0.077617
v 0.219965 1.803225 -0.114205
v 0.138030 1.474590 -0.213501
v 0.309858 1.756076 -0.216841
v 0.308510 1.786178 -0.115132
v 0.150144 1.500358 -0.081539
v 0.218277 1.609175 -0.079468
v 0.160706 1.591164 -0.148187
v 0.279836 1.566453 -0.141069
v 0.225001 1.587192 -0.241700
v 0.182189 1.712428 -0.673282
v 0.237371 1.747421 -0.660105
v 0.146372 1.769862 -0.656031
v 0.201555 1.804855 -0.642853
v 0.157636 1.751657 -0.553485
v 0.142367 1.479585 -0.320010
v 0.233044 1.459301 -0.313076
v 0.248527 1.729708 -0.555882
v 0.161802 1.579905 -0.323086
v 0.138217 1.658696 -0.577647
v 0.229172 1.635974 -0.577582
v 0.252511 1.558326 -0.317197
v 0.255948 1.592634 -0.440978
v 0.208356 1.670984 -0.435801
v 0.182464 1.543492 -0.450035
v 0.134871 1.621842 -0.444858
v 0.054929 1.016320 0.655488
v 0.074553 1.045537 0.530927
v -0.048021 0.933988 0.422078
v -0.025501 1.001322 0.344581
v -0.016157 0.955264 0.554172
v 0.027079 1.029463 0.429832
v 0.071452 0.982477 0.501306
v -0.051543 1.011656 0.471562
v -0.216919 1.160600 1.198195
v -0.176985 1.198625 1.233209
v -0.147571 1.148422 1.226333
v -0.187505 1.110397 1.191319
v -0.088245 1.156510 1.099224
v 0.005676 0.987477 0.697069
v -0.177058 1.079385 1.009454
v -0.084060 1.102289 0.759682
v 0.014352 1.079664 0.797171
v -0.100461 1.063498 1.035592
v -0.085918 1.008854 0.669810
v -0.170669 1.171757 1.064564
v -0.082783 1.010955 0.810928
v -0.072941 1.139047 0.919444
v -0.138531 1.088145 0.843461
v -0.017192 1.061857 0.886912
v -0.114314 -0.002839 0.081904
v 0.059367 -0.002838 0.138903
v -0.057315 -0.002841 -0.091776
v 0.116364 -0.002839 -0.034778
v -0.113852 0.103398 0.064665
v 0.059418 0.099401 0.119349
v 0.116466 0.112540 -0.047798
v -0.056667 0.116697 -0.102505
v 0.075932 -0.003884 0.171643
v 0.149124 -0.003935 -0.051334
v -0.073886 -0.003973 -0.124536
v -0.147059 -0.003924 0.098478
v -0.048189 0.885927 0.314591
v 0.034061 0.866531 0.323064
v 0.080462 0.992068 0.225797
v -0.017559 1.014069 0.217885
v -0.063174 1.124065 0.685951
v 0.048190 1.096909 0.727592
v -0.025007 1.153006 0.575103
v 0.074886 1.129233 0.609946
v 0.042831 1.428887 0.789712
v -0.031750 1.446784 0.762324
v 0.022521 1.417611 0.862664
v -0.051914 1.435805 0.834560
v -0.092695 0.425502 -0.026332
v 0.051431 0.397532 0.006403
v 0.099748 0.491363 -0.098078
v -0.042899 0.520425 -0.129806
v 0.091363 0.890597 0.023885
v -0.055983 0.755058 0.099570
v -0.013307 0.916867 0.007975
v 0.038570 0.732192 0.113757
v 0.208191 1.379301 -0.032504
v 0.119860 1.392861 -0.035629
v 0.225707 1.345817 -0.171289
v 0.124619 1.365966 -0.180909
v 0.327936 1.918146 -0.141478
v 0.262025 1.931422 -0.139002
v 0.327720 1.903140 -0.219383
v 0.260982 1.918332 -0.217948
v 0.167449 1.561614 -0.221013
v 0.268718 1.537994 -0.212387
v 0.263006 1.593311 -0.093937
v 0.174546 1.609855 -0.097579
v 0.151390 1.715898 -0.643592
v 0.218788 1.699135 -0.645201
v 0.233126 1.768043 -0.625429
v 0.165756 1.784463 -0.622726
v 0.159719 1.665975 -0.438502
v 0.140292 1.570407 -0.450245
v 0.231108 1.548450 -0.446267
v 0.250519 1.644120 -0.436659
v 0.041018 0.960360 0.568923
v 0.069683 1.010387 0.454926
v -0.060554 0.984730 0.542575
v -0.024087 1.032341 0.433039
v -0.200024 1.116735 1.142853
v -0.193886 1.183270 1.177170
v -0.138212 1.173387 1.200577
v -0.146939 1.106568 1.162473
v -0.027022 1.113079 0.924618
v -0.037698 1.017206 0.838341
v -0.125408 1.036727 0.810644
v -0.121321 1.132992 0.887140
vn 0.9894 -0.0358 0.1408
vn 0.8091 -0.2301 0.5407
vn 0.7310 -0.0863 0.6769
vn 0.9960 0.0555 0.0700
vn -0.0142 -0.9995 -0.0281
vn 0.0281 -0.9995 -0.0142
vn 0.0142 -0.9995 0.0281
vn -0.0281 -0.9995 0.0142
vn -0.9421 0.2023 -0.2675
vn -0.9426 0.3337 -0.0143
vn -0.9382 0.3420 0.0524
vn -0.9543 0.1624 -0.2508
vn -0.7094 0.4680 -0.5270
vn -0.8839 0.4677 0.0039
vn -0.9772 0.2122 0.0114
vn -0.7946 0.1140 -0.5963
vn 0.5268 0.4680 -0.7096
vn -0.0040 0.4682 -0.8836
vn -0.0048 0.0668 -0.9978
vn 0.5894 0.0794 -0.8039
vn 0.7101 0.4663 0.5275
vn 0.8845 0.4666 -0.0043
vn 0.9799 0.1996 0.0030
vn 0.7428 0.3449 0.5738
vn -0.5276 0.4665 0.7100
vn 0.0042 0.4663 0.8846
vn 0.0041 0.4464 0.8948
vn -0.5361 0.3922 0.7475
vn 0.0980 -0.9883 -0.1167
vn -0.0097 -0.9883 -0.1521
vn 0.0024 0.8590 0.5120
vn -0.3045 0.8598 0.4098
vn -0.1167 -0.9883 -0.0980
vn -0.1521 -0.9883 0.0098
vn 0.5098 0.8603 -0.0025
vn 0.4108 0.8592 0.3051
vn -0.0980 -0.9883 0.1167
vn 0.0098 -0.9883 0.1521
vn -0.0024 0.8629 -0.5054
vn 0.3021 0.8621 -0.4069
vn 0.1167 -0.9883 0.0980
vn 0.1521 -0.9883 -0.0097
vn -0.5076 0.8616 0.0023
vn -0.4060 0.8626 -0.3017
vn -0.9778 0.1188 -0.1726
vn -0.9722 0.1728 -0.1583
vn -0.7870 0.3843 -0.4826
vn -0.7675 0.5561 -0.3190
vn 0.1597 -0.7516 0.6400
vn 0.1630 -0.8989 0.4067
vn -0.6185 -0.7155 0.3249
vn -0.6280 -0.5892 0.5084
vn -0.9989 0.0182 0.0434
vn -0.9994 -0.0324 0.0154
vn -0.9560 0.2830 -0.0774
vn -0.9548 0.2361 -0.1807
vn 0.9756 -0.1692 0.1396
vn 0.9738 -0.1742 0.1460
vn 0.8732 -0.4449 0.1989
vn 0.8707 -0.3499 0.3455
vn 0.9982 -0.0236 -0.0543
vn 0.9987 0.0309 -0.0401
vn 0.9235 -0.2396 0.2995
vn 0.8415 -0.5018 0.2003
vn 0.0623 0.8938 -0.4440
vn 0.0980 0.6649 -0.7404
vn 0.6047 0.5442 -0.5816
vn 0.5469 0.7481 -0.3758
vn -0.8356 0.2023 0.5108
vn 0.4317 0.1052 0.8958
vn 0.7719 0.5856 -0.2472
vn -0.2216 0.7778 -0.5881
vn 0.8708 -0.1952 0.4513
vn 0.9969 0.0693 -0.0373
vn 0.9774 0.2011 -0.0657
vn 0.7726 -0.1594 0.6145
vn -0.6818 -0.2953 0.6693
vn -0.0432 -0.3946 0.9178
vn -0.0545 -0.3807 0.9231
vn -0.6803 -0.2933 0.6717
vn 0.6263 0.4231 -0.6548
vn 0.1112 0.5116 -0.8520
vn 0.0727 0.5578 -0.8268
vn 0.6587 0.4589 -0.5963
vn -0.7947 0.2759 -0.5407
vn -0.9992 0.0001 -0.0403
vn -0.9934 -0.0037 0.1146
vn -0.7244 0.3887 -0.5693
vn 0.6553 -0.6561 0.3743
vn 0.9382 -0.0603 0.3408
vn 0.9065 -0.0328 0.4210
vn 0.6135 -0.6540 0.4427
vn -0.7612 -0.0734 -0.6443
vn -0.9972 0.0730 0.0155
vn -0.9976 0.0628 0.0286
vn -0.7194 -0.0044 -0.6946
vn 0.5425 -0.1190 -0.8316
vn -0.0070 -0.1241 -0.9922
vn -0.0136 -0.0210 -0.9997
vn 0.4920 -0.0317 -0.8700
vn 0.7010 0.3098 0.6424
vn 0.9982 0.0588 0.0103
vn 0.9986 0.0443 0.0284
vn 0.6560 0.1839 0.7320
vn -0.4772 0.3817 0.7916
vn 0.0029 0.4583 0.8888
vn 0.0047 0.2623 0.9650
vn -0.4298 0.2213 0.8754
vn -0.9938 0.0844 0.0728
vn -0.9945 0.0675 0.0807
vn -0.8944 0.2663 -0.3594
vn -0.7813 0.2347 -0.5783
vn 0.0872 -0.4565 0.8854
vn -0.5706 -0.3602 0.7380
vn -0.5001 -0.1316 0.8559
vn 0.0286 -0.1662 0.9857
vn -0.2504 0.3017 -0.9199
vn 0.6724 0.1686 -0.7207
vn 0.5413 0.2562 -0.8008
vn -0.0345 0.3014 -0.9529
vn 0.4271 -0.0820 -0.9005
vn -0.3469 0.1047 -0.9320
vn -0.4012 0.0881 -0.9118
vn 0.4088 -0.0839 -0.9088
vn 0.5706 -0.3551 -0.7405
vn -0.4292 -0.1171 -0.8956
vn -0.4512 -0.3308 -0.8288
vn 0.4141 -0.5427 -0.7307
vn 0.9550 -0.1494 0.2562
vn 0.9645 -0.2584 0.0537
vn 0.9459 -0.3242 -0.0120
vn 0.9254 -0.1126 0.3618
vn -0.3915 0.6532 0.6481
vn 0.5073 0.4159 0.7548
vn 0.4497 0.3287 0.8305
vn -0.3918 0.5553 0.7336
vn -0.6161 0.4852 -0.6205
vn -0.5672 0.6229 0.5388
vn 0.7910 0.3026 0.5317
vn 0.7398 0.2039 -0.6412
vn 0.9117 -0.1635 0.3770
vn 0.9693 -0.2066 -0.1330
vn 0.9431 -0.1438 -0.2999
vn 0.9330 -0.0810 0.3506
vn -0.9482 0.2091 -0.2391
vn -0.9508 0.2330 0.2042
vn -0.9059 0.3215 0.2757
vn -0.8964 0.2527 -0.3642
vn -0.3552 0.1677 0.9196
vn 0.3430 0.0144 0.9392
vn 0.4640 0.0775 0.8824
vn -0.3706 0.2728 0.8878
vn -0.3711 0.4563 0.8088
vn 0.3933 0.2679 0.8795
vn 0.3263 0.0678 0.9428
vn -0.3769 0.2189 0.9000
vn -0.9813 0.1574 -0.1108
vn -0.9485 0.3020 0.0958
vn -0.9599 0.2297 0.1609
vn -0.9647 0.2436 -0.0998
vn 0.9132 -0.0986 0.3954
vn 0.9605 -0.2770 0.0249
vn 0.9852 -0.1702 -0.0181
vn 0.9004 -0.1357 0.4134
vn -0.9939 -0.0972 -0.0520
vn -0.8493 0.4183 0.3219
vn -0.8428 0.5064 0.1825
vn -0.9662 -0.0974 -0.2387
vn 0.4077 -0.3209 -0.8549
vn -0.6193 -0.1550 -0.7697
vn -0.4782 0.8447 -0.2404
vn 0.7323 0.5690 -0.3741
vn 0.1208 -0.8242 -0.5533
vn -0.4839 -0.7264 -0.4880
vn -0.5254 -0.6156 -0.5874
vn 0.1714 -0.7270 -0.6649
vn -0.1110 0.7967 0.5940
vn 0.4851 0.7105 0.5098
vn 0.5832 0.7434 0.3274
vn -0.1690 0.8812 0.4415
vn 0.9938 0.0982 0.0530
vn 0.8511 -0.4288 -0.3029
vn 0.7941 -0.3984 -0.4591
vn 0.9806 0.1815 -0.0741
vn 0.9948 -0.0427 -0.0922
vn 0.8866 -0.3947 -0.2411
vn 0.8375 -0.4463 -0.3153
vn 0.9932 0.1021 0.0559
vn -0.2628 0.9576 0.1184
vn 0.6733 0.7385 -0.0370
vn 0.4503 0.7251 0.5211
vn -0.1195 0.7958 0.5937
vn 0.2915 -0.7274 -0.6212
vn -0.5062 -0.6057 -0.6140
vn -0.4464 -0.7409 -0.5018
vn 0.1344 -0.8213 -0.5545
vn -0.9984 0.0409 -0.0387
vn -0.9101 0.3793 0.1671
vn -0.8356 0.4355 0.3348
vn -0.9934 -0.1008 -0.0552
vn 0.1106 -0.9124 0.3942
vn 0.0263 -0.9391 0.3425
vn -0.5746 -0.7749 0.2634
vn -0.5952 -0.7308 0.3342
vn -0.2496 0.9515 0.1797
vn -0.0085 0.9511 -0.3087
vn 0.5351 0.8009 -0.2689
vn 0.6075 0.7575 0.2391
vn 0.9943 -0.0879 0.0610
vn 0.9986 -0.0220 -0.0487
vn 0.8078 -0.5637 0.1723
vn 0.8411 -0.5129 0.1714
vn -0.9983 -0.0545 0.0221
vn -0.9984 -0.0096 -0.0559
vn -0.8137 0.5416 -0.2110
vn -0.9087 0.4096 -0.0804
vn 0.2398 -0.7818 0.5756
vn 0.6826 0.3093 0.6621
vn -0.7273 0.6802 0.0908
vn -0.8278 -0.5154 0.2217
vn -0.7563 0.5680 -0.3247
vn -0.9684 -0.0971 -0.2299
vn -0.9760 -0.1735 -0.1315
vn -0.8154 0.5275 -0.2382
vn 0.5013 0.8643 -0.0413
vn -0.0034 0.9750 -0.2221
vn -0.1540 0.9749 -0.1611
vn 0.5447 0.8327 0.0990
vn -0.5274 -0.8486 0.0420
vn 0.0216 -0.9731 0.2293
vn 0.0667 -0.9445 0.3217
vn -0.5906 -0.8005 0.1026
vn -0.5326 -0.8435 0.0696
vn -0.0009 -0.9755 0.2200
vn -0.0050 -0.9801 0.1982
vn -0.5096 -0.8601 0.0241
vn 0.5114 0.6732 0.5340
vn -0.4269 0.8672 0.2562
vn 0.0537 0.9723 -0.2274
vn 0.4918 0.8679 -0.0704
vn -0.8752 0.4247 -0.2315
vn -0.9720 0.0007 -0.2350
vn -0.9637 -0.0856 -0.2529
vn -0.6925 0.6346 -0.3431
vn 0.6625 -0.6807 0.3126
vn 0.9216 -0.1793 0.3441
vn 0.9454 -0.0614 0.3201
vn 0.6149 -0.7063 0.3508
usemtl Wood
s off
f 1//1 110//1 215//1 119//1
f 1//2 119//2 218//2 109//2
f 1//3 109//3 212//3 114//3
f 1//4 114//4 213//4 110//4
f 2//5 65//5 188//5 63//5
f 2//6 63//6 187//6 69//6
f 2//7 69//7 189//7 67//7
f 2//8 67//8 190//8 65//8
f 3//9 128//9 217//9 117//9
f 3//10 117//10 202//10 127//10
f 3//11 127//11 220//11 125//11
f 3//12 125//12 222//12 128//12
f 4//13 80//13 197//13 85//13
f 4//14 85//14 198//14 70//14
f 4//15 70//15 191//15 74//15
f 4//16 74//16 194//16 80//16
f 5//17 79//17 196//17 84//17
f 5//18 84//18 197//18 80//18
f 5//19 80//19 194//19 75//19
f 5//20 75//20 193//20 79//20
f 6//21 78//21 195//21 83//21
f 6//22 83//22 196//22 79//22
f 6//23 79//23 193//23 76//23
f 6//24 76//24 192//24 78//24
f 7//25 70//25 198//25 82//25
f 7//26 82//26 195//26 78//26
f 7//27 78//27 192//27 77//27
f 7//28 77//28 191//28 70//28
f 8//29 81//29 187//29 63//29
f 8//30 63//30 188//30 64//30
f 8//31 64//31 195//31 82//31
f 8//32 82//32 198//32 81//32
f 9//33 64//33 188//33 65//33
f 9//34 65//34 190//34 66//34
f 9//35 66//35 196//35 83//35
f 9//36 83//36 195//36 64//36
f 10//37 66//37 190//37 67//37
f 10//38 67//38 189//38 68//38
f 10//39 68//39 197//39 84//39
f 10//40 84//40 196//40 66//40
f 11//41 68//41 189//41 69//41
f 11//42 69//42 187//42 81//42
f 11//43 81//43 198//43 85//43
f 11//44 85//44 197//44 68//44
f 12//45 170//45 241//45 94//45
f 12//46 94//46 203//46 98//46
f 12//47 98//47 205//47 95//47
f 12//48 95//48 242//48 170//48
f 13//49 121//49 218//49 118//49
f 13//50 118//50 200//50 86//50
f 13//51 86//51 199//51 91//51
f 13//52 91//52 216//52 121//52
f 14//53 120//53 216//53 91//53
f 14//54 91//54 199//54 89//54
f 14//55 89//55 202//55 117//55
f 14//56 117//56 217//56 120//56
f 15//57 119//57 215//57 90//57
f 15//58 90//58 201//58 87//58
f 15//59 87//59 200//59 118//59
f 15//60 118//60 218//60 119//60
f 16//61 169//61 240//61 164//61
f 16//62 164//62 206//62 97//62
f 16//63 97//63 204//63 163//63
f 16//64 163//64 239//64 169//64
f 17//65 168//65 242//65 95//65
f 17//66 95//66 205//66 96//66
f 17//67 96//67 206//67 164//67
f 17//68 164//68 240//68 168//68
f 18//69 105//69 210//69 104//69
f 18//70 104//70 209//70 106//70
f 18//71 106//71 207//71 107//71
f 18//72 107//72 208//72 105//72
f 19//73 100//73 204//73 97//73
f 19//74 97//74 206//74 101//74
f 19//75 101//75 207//75 106//75
f 19//76 106//76 209//76 100//76
f 20//77 102//77 203//77 99//77
f 20//78 99//78 204//78 100//78
f 20//79 100//79 209//79 104//79
f 20//80 104//80 210//80 102//80
f 21//81 101//81 206//81 96//81
f 21//82 96//82 205//82 103//82
f 21//83 103//83 208//83 107//83
f 21//84 107//84 207//84 101//84
f 22//85 103//85 205//85 98//85
f 22//86 98//86 203//86 102//86
f 22//87 102//87 210//87 105//87
f 22//88 105//88 208//88 103//88
f 23//89 180//89 248//89 186//89
f 23//90 186//90 247//90 175//90
f 23//91 175//91 245//91 173//91
f 23//92 173//92 246//92 180//92
f 24//93 73//93 194//93 74//93
f 24//94 74//94 191//94 108//94
f 24//95 108//95 211//95 112//95
f 24//96 112//96 214//96 73//96
f 25//97 72//97 193//97 75//97
f 25//98 75//98 194//98 73//98
f 25//99 73//99 214//99 113//99
f 25//100 113//100 213//100 72//100
f 26//101 71//101 192//101 76//101
f 26//102 76//102 193//102 72//102
f 26//103 72//103 213//103 114//103
f 26//104 114//104 212//104 71//104
f 27//105 108//105 191//105 77//105
f 27//106 77//106 192//106 71//106
f 27//107 71//107 212//107 115//107
f 27//108 115//108 211//108 108//108
f 28//109 112//109 211//109 116//109
f 28//110 116//110 216//110 120//110
f 28//111 120//111 217//111 111//111
f 28//112 111//112 214//112 112//112
f 29//113 109//113 218//113 121//113
f 29//114 121//114 216//114 116//114
f 29//115 116//115 211//115 115//115
f 29//116 115//116 212//116 109//116
f 30//117 111//117 217//117 122//117
f 30//118 122//118 215//118 110//118
f 30//119 110//119 213//119 113//119
f 30//120 113//120 214//120 111//120
f 31//121 140//121 228//121 146//121
f 31//122 146//122 227//122 135//122
f 31//123 135//123 226//123 134//123
f 31//124 134//124 225//124 140//124
f 32//125 129//125 215//125 122//125
f 32//126 122//126 217//126 128//126
f 32//127 128//127 222//127 126//127
f 32//128 126//128 221//128 129//128
f 33//129 130//129 201//129 90//129
f 33//130 90//130 215//130 129//130
f 33//131 129//131 221//131 124//131
f 33//132 124//132 219//132 130//132
f 34//133 127//133 202//133 88//133
f 34//134 88//134 201//134 130//134
f 34//135 130//135 219//135 123//135
f 34//136 123//136 220//136 127//136
f 35//137 134//137 226//137 133//137
f 35//138 133//138 224//138 131//138
f 35//139 131//139 223//139 132//139
f 35//140 132//140 225//140 134//140
f 36//141 141//141 229//141 145//141
f 36//142 145//142 228//142 140//142
f 36//143 140//143 225//143 132//143
f 36//144 132//144 223//144 141//144
f 37//145 135//145 227//145 144//145
f 37//146 144//146 230//146 138//146
f 37//147 138//147 224//147 133//147
f 37//148 133//148 226//148 135//148
f 38//149 138//149 230//149 143//149
f 38//150 143//150 229//150 141//150
f 38//151 141//151 223//151 131//151
f 38//152 131//152 224//152 138//152
f 39//153 142//153 220//153 123//153
f 39//154 123//154 219//154 137//154
f 39//155 137//155 229//155 143//155
f 39//156 143//156 230//156 142//156
f 40//157 139//157 222//157 125//157
f 40//158 125//158 220//158 142//158
f 40//159 142//159 230//159 144//159
f 40//160 144//160 227//160 139//160
f 41//161 137//161 219//161 124//161
f 41//162 124//162 221//162 136//162
f 41//163 136//163 228//163 145//163
f 41//164 145//164 229//164 137//164
f 42//165 156//165 236//165 162//165
f 42//166 162//166 235//166 151//166
f 42//167 151//167 234//167 149//167
f 42//168 149//168 231//168 156//168
f 43//169 148//169 232//169 147//169
f 43//170 147//170 231//170 149//170
f 43//171 149//171 234//171 150//171
f 43//172 150//172 233//172 148//172
f 44//173 157//173 237//173 161//173
f 44//174 161//174 236//174 156//174
f 44//175 156//175 231//175 147//175
f 44//176 147//176 232//176 157//176
f 45//177 151//177 235//177 160//177
f 45//178 160//178 238//178 154//178
f 45//179 154//179 233//179 150//179
f 45//180 150//180 234//180 151//180
f 46//181 154//181 238//181 159//181
f 46//182 159//182 237//182 157//182
f 46//183 157//183 232//183 148//183
f 46//184 148//184 233//184 154//184
f 47//185 158//185 228//185 136//185
f 47//186 136//186 221//186 153//186
f 47//187 153//187 237//187 159//187
f 47//188 159//188 238//188 158//188
f 48//189 155//189 227//189 146//189
f 48//190 146//190 228//190 158//190
f 48//191 158//191 238//191 160//191
f 48//192 160//192 235//192 155//192
f 49//193 153//193 221//193 126//193
f 49//194 126//194 222//194 152//194
f 49//195 152//195 236//195 161//195
f 49//196 161//196 237//196 153//196
f 50//197 152//197 222//197 139//197
f 50//198 139//198 227//198 155//198
f 50//199 155//199 235//199 162//199
f 50//200 162//200 236//200 152//200
f 51//201 86//201 200//201 92//201
f 51//202 92//202 239//202 167//202
f 51//203 167//203 241//203 165//203
f 51//204 165//204 199//204 86//204
f 52//205 88//205 202//205 166//205
f 52//206 166//206 242//206 168//206
f 52//207 168//207 240//207 93//207
f 52//208 93//208 201//208 88//208
f 53//209 87//209 201//209 93//209
f 53//210 93//210 240//210 169//210
f 53//211 169//211 239//211 92//211
f 53//212 92//212 200//212 87//212
f 54//213 89//213 199//213 165//213
f 54//214 165//214 241//214 170//214
f 54//215 170//215 242//215 166//215
f 54//216 166//216 202//216 89//216
f 55//217 174//217 246//217 173//217
f 55//218 173//218 245//218 172//218
f 55//219 172//219 244//219 171//219
f 55//220 171//220 243//220 174//220
f 56//221 182//221 250//221 185//221
f 56//222 185//222 249//222 177//222
f 56//223 177//223 243//223 171//223
f 56//224 171//224 244//224 182//224
f 57//225 175//225 247//225 184//225
f 57//226 184//226 250//226 182//226
f 57//227 182//227 244//227 172//227
f 57//228 172//228 245//228 175//228
f 58//229 177//229 249//229 183//229
f 58//230 183//230 248//230 180//230
f 58//231 180//231 246//231 174//231
f 58//232 174//232 243//232 177//232
f 59//233 181//233 241//233 167//233
f 59//234 167//234 239//234 176//234
f 59//235 176//235 248//235 183//235
f 59//236 183//236 249//236 181//236
f 60//237 179//237 204//237 99//237
f 60//238 99//238 203//238 178//238
f 60//239 178//239 250//239 184//239
f 60//240 184//240 247//240 179//240
f 61//241 178//241 203//241 94//241
f 61//242 94//242 241//242 181//242
f 61//243 181//243 249//243 185//243
f 61//244 185//244 250//244 178//244
f 62//245 176//245 239//245 163//245
f 62//246 163//246 204//246 179//246
f 62//247 179//247 247//247 186//247
f 62//248 186//248 248//248 176//248
